<?xml version="1.0" standalone="no"?>
<!DOCTYPE svg PUBLIC "-//W3C//DTD SVG 1.1//EN" "http://www.w3.org/Graphics/SVG/1.1/DTD/svg11.dtd" >
<svg xmlns="http://www.w3.org/2000/svg" xmlns:xlink="http://www.w3.org/1999/xlink" version="1.1" viewBox="0 0 256 256">
  <g transform="matrix(1 0 0 -1 0 204)">
   <path fill="currentColor"
d="M204 146q4 -8 5 -13v-3q-2 -1 -4 -4t-3 -5q-36 -53 -73 -69q-4 -2 -1 2q43 31 68 71q7 12 4 22q1 2 4 -1zM84 99q-2 1 1 1q17 -5 22 -17q0 -2 -4 -3q-4 -3 -9 5q-17 -26 -33 -42q-8 -8 -12 -13q-1 -2 -2 -1q-5 0 -9 3q-3 0 -1 3q6 6 10 9q-5 42 -14 49q-1 2 1 1
q16 -9 15 -22q1 -19 3 -22q-1 -3 4 0q17 14 37 38h-1q-3 7 -8 11zM179 68q-3 2 0 2q37 -20 43 -44q0 -2 -3 -3h-1q-4 -2 -6 3q-8 16 -33 42z" />
  </g>

</svg>
