<?xml version="1.0" encoding="UTF-8" standalone="no"?>
<!-- Created with Inkscape (http://www.inkscape.org/) -->

<svg
 xmlns:dc="http://purl.org/dc/elements/1.1/"
 xmlns:cc="http://creativecommons.org/ns#"
 xmlns:rdf="http://www.w3.org/1999/02/22-rdf-syntax-ns#"
 xmlns:svg="http://www.w3.org/2000/svg"
 xmlns="http://www.w3.org/2000/svg"
 xmlns:sodipodi="http://sodipodi.sourceforge.net/DTD/sodipodi-0.dtd"
 xmlns:inkscape="http://www.inkscape.org/namespaces/inkscape"
 width="512"
 height="512"
 viewBox="0 0 512 512"
 version="1.1"
 id="svg8"
 inkscape:version="0.92.4 (5da689c313, 2019-01-14)"
 sodipodi:docname="U+4EAF.svg">
<defs
 id="defs2" />
<sodipodi:namedview
 id="base"
 pagecolor="#ffffff"
 bordercolor="#666666"
 borderopacity="1.0"
 inkscape:pageopacity="0.0"
 inkscape:pageshadow="2"
 inkscape:zoom="0.70000001"
 inkscape:cx="135.34862"
 inkscape:cy="295.98759"
 inkscape:document-units="px"
 inkscape:current-layer="layer1"
 showgrid="false"
 units="px"
 inkscape:window-width="1366"
 inkscape:window-height="705"
 inkscape:window-x="-8"
 inkscape:window-y="-8"
 inkscape:window-maximized="1" />
<metadata
 id="metadata5">
<rdf:RDF>
<cc:Work
 rdf:about="">
<dc:format>image/svg+xml</dc:format>
<dc:type
 rdf:resource="http://purl.org/dc/dcmitype/StillImage" />
<dc:title></dc:title>
</cc:Work>
</rdf:RDF>
</metadata>
<g
 inkscape:label="圖層 1"
 inkscape:groupmode="layer"
 id="layer1"
 transform="translate(0,-2307.4759)">
<path
 style="fill:#000000;stroke:none;stroke-width:1px;stroke-linecap:butt;stroke-linejoin:miter;stroke-opacity:1;fill-opacity:1"
 d="M 219.2031,2341.6737 C 218.49128,2347.1568 228.32499,2347.9592 233.17536,2350.6135 241.03729,2354.9159 249.67928,2357.6628 257.5889,2361.8768 265.59051,2366.1399 272.30128,2372.9222 280.82241,2376.0189 286.10371,2377.9382 293.80231,2382.7843 297.48992,2378.5443 302.90818,2372.3144 295.32402,2361.4471 290.41885,2354.8057 284.28805,2346.5048 274.51219,2340.703 264.65996,2337.6331 254.69302,2334.5274 243.67158,2335.5945 233.34524,2337.1281 228.44739,2337.8555 219.84056,2336.7633 219.2031,2341.6737 Z"
 id="path842"
 inkscape:connector-curvature="0"
 sodipodi:nodetypes="aaaaaaaaa" />
<path
 style="fill:#000000;stroke:none;stroke-width:1px;stroke-linecap:butt;stroke-linejoin:miter;stroke-opacity:1;fill-opacity:1"
 d="M 95.459415,2414.4047 C 95.459415,2414.4047 129.14429,2428.8969 146.97719,2432.5875 151.76964,2433.5793 156.89436,2434.8537 161.62441,2433.5976 165.73123,2432.507 168.43948,2428.4449 172.23101,2426.5266 181.02278,2422.0785 190.15736,2416.4717 200.0102,2416.425 203.0453,2416.4106 205.06097,2415.4149 208.5965,2419.4555 212.13203,2423.4961 212.32873,2413.6507 215.16249,2411.8794 219.59505,2409.1087 225.19029,2408.8702 230.31478,2407.8388 243.64291,2405.1561 257.1824,2403.526 270.72088,2402.2829 277.93778,2401.6203 288.90363,2399.2524 292.43916,2401.2727 295.97469,2403.2931 303.69948,2408.1787 306.07622,2413.8997 309.63105,2422.4565 305.37476,2432.4181 305.06607,2441.6788 304.88089,2447.2341 304.8084,2452.7935 304.56099,2458.3464 304.30577,2464.0748 303.23269,2469.7937 303.55084,2475.519 303.88255,2481.4883 303.74226,2487.9352 306.5813,2493.1966 308.22173,2496.2367 312.13713,2510.8743 314.15744,2500.2677 316.17774,2489.6611 318.78704,2476.0073 321.22851,2463.9022 323.50683,2452.606 326.19822,2441.3925 328.29957,2430.0621 329.45032,2423.8573 333.35034,2414.4047 331.33003,2411.3743 329.30973,2408.3438 320.21835,2405.8184 317.1879,2403.7981 314.15744,2401.7778 310.11683,2400.2626 314.15744,2398.7474 314.15744,2398.7474 365.01564,2398.8532 390.42396,2399.7575 402.05285,2400.1714 413.80534,2403.7443 425.27422,2401.7778 429.29444,2401.0885 434.93753,2400.5329 436.55666,2397.0404 437.87606,2394.1944 434.7786,2389.4719 432.34529,2386.6255 427.24208,2380.656 419.52892,2377.1711 412.14224,2374.5037 405.8939,2372.2474 403.96694,2367.6838 392.44426,2371.4732 380.66744,2374.9854 365.67522,2379.5545 356.58385,2380.0595 347.49247,2380.5646 312.75398,2384.6606 290.92393,2387.6357 275.89468,2389.684 260.93254,2392.2048 245.97214,2394.7068 232.6496,2396.9349 219.38713,2399.511 206.07112,2401.7778 189.5906,2404.5833 173.1262,2407.5157 156.57364,2409.859 148.17901,2411.0474 139.76209,2412.1083 131.31983,2412.8895 123.5919,2413.6047 115.84316,2414.152 108.08632,2414.4047 103.87958,2414.5417 95.459415,2414.4047 95.459415,2414.4047 Z"
 id="path844"
 inkscape:connector-curvature="0"
 sodipodi:nodetypes="caaaasaaacaaaaasaacccaasaaccaaaaaac" />
<path
 style="fill:#000000;stroke:none;stroke-width:1px;stroke-linecap:butt;stroke-linejoin:miter;stroke-opacity:1;fill-opacity:1"
 d="M 215.66756,2418.9504 C 215.66756,2418.9504 220.71833,2427.5367 225.26402,2436.6281 229.8097,2445.7195 231.56651,2454.8961 231.83001,2464.4073 231.96262,2469.1941 228.84929,2473.7825 229.30463,2478.5494 229.97357,2485.5524 234.32882,2491.6917 236.88077,2498.2474 239.04692,2503.812 238.79267,2511.1736 243.44676,2514.9149 246.76895,2517.5855 251.81597,2517.1376 256.07367,2516.9352 265.45502,2516.4892 274.92112,2514.0114 283.34779,2509.8641 286.79237,2508.1688 292.04583,2506.6121 292.43916,2502.7931 292.89191,2498.3971 288.15809,2493.6888 283.85286,2492.6916 276.87494,2491.0753 270.84211,2498.7118 264.15489,2501.2779 260.67549,2502.6131 257.00259,2506.2122 253.54829,2504.8134 249.15112,2503.0328 248.20869,2496.7693 246.98229,2492.1865 244.97833,2484.6982 245.4639,2476.6881 245.97214,2468.953 246.16269,2466.0529 245.43083,2462.4203 247.48737,2460.3667 252.32508,2455.5359 260.95135,2457.9823 267.69042,2456.8311 273.74719,2455.7964 280.02983,2455.7009 285.87316,2453.8007 289.81126,2452.5201 296.32089,2452.3324 296.98484,2448.2449 297.63386,2444.2493 291.80377,2441.8468 288.40033,2439.6552 284.77195,2437.3188 280.5224,2434.3396 276.27672,2435.1129 272.75532,2435.7543 271.31785,2440.4339 268.1955,2442.1839 263.27173,2444.9436 257.6027,2448.1504 252.03306,2447.2347 249.77347,2446.8632 247.86961,2445.0121 246.47722,2443.1941 242.75088,2438.3288 246.47722,2430.0621 239.91123,2426.0215 233.34524,2421.9809 230.31478,2420.9708 225.76909,2419.9606 221.22341,2418.9505 215.66756,2418.9504 215.66756,2418.9504 Z"
 id="path846"
 inkscape:connector-curvature="0"
 sodipodi:nodetypes="csaaaaaaaaaaaaaaaaaaaaascc" />
<path
 style="fill:#000000;stroke:none;stroke-width:1px;stroke-linecap:butt;stroke-linejoin:miter;stroke-opacity:1;fill-opacity:1"
 d="M 230.81985,2512.3895 C 228.04405,2513.2419 229.52105,2518.37 228.79955,2523.5012 226.79233,2537.7762 223.35147,2538.8163 227.28432,2544.7144 232.96989,2553.2411 241.35281,2563.4022 240.4163,2567.4428 240.92138,2571.4834 226.75928,2572.0393 220.21325,2575.019 213.76844,2577.9526 208.47261,2583.7499 201.52543,2585.1205 193.7184,2586.6607 184.53814,2586.8072 177.78685,2582.5951 171.88191,2578.911 168.69547,2566.4327 166.67517,2564.9175 164.65486,2563.4022 160.8269,2572.8779 159.6041,2577.5443 158.82713,2580.5094 158.76407,2583.7867 159.58509,2586.7399 161.15569,2592.3893 164.38526,2597.8125 168.69547,2601.788 172.84636,2605.6166 178.33782,2608.1279 183.84776,2609.3642 191.24194,2611.0232 199.39431,2611.2771 206.57619,2608.8591 214.45939,2606.2049 219.9347,2598.9386 226.77924,2594.2119 240.63204,2584.6455 255.65074,2577.1751 271.22596,2569.9682 274.3198,2568.5366 274.59617,2563.9981 276.7818,2561.3819 279.14912,2558.5482 281.80826,2555.8799 284.86302,2553.8058 287.47994,2552.0289 291.42901,2546.2296 293.44931,2549.7652 295.46962,2553.3007 297.995,2558.3515 302.03561,2560.8769 306.07622,2563.4022 311.63206,2563.9073 312.13713,2552.7956 312.64221,2541.684 314.66252,2521.986 314.66252,2516.9352 314.66252,2511.8845 313.65236,2507.3388 309.10668,2509.8641 304.56099,2512.3895 304.07553,2519.4882 302.03561,2524.5114 300.03242,2529.4441 298.50008,2537.1383 296.98485,2539.6637 295.46962,2542.189 283.49463,2546.6941 276.7818,2550.2703 270.53226,2553.5997 265.15784,2560.8652 258.09397,2560.3718 254.13022,2560.0949 250.10444,2556.9347 248.49752,2553.3007 246.51245,2548.8116 248.05433,2543.6933 250.01275,2538.6535 252.08701,2533.3157 246.35281,2527.596 242.94169,2522.9961 239.7436,2518.6835 235.95234,2510.8134 230.81985,2512.3895 Z"
 id="path848"
 inkscape:connector-curvature="0"
 sodipodi:nodetypes="ssscaaacaaaaassaacccscacaaasas" />
<path
 style="fill:#000000;fill-opacity:1;stroke:none;stroke-width:1px;stroke-linecap:butt;stroke-linejoin:miter;stroke-opacity:1"
 d="M 336.88587,2512.8946 C 335.7802,2515.1899 337.39095,2515.42 337.89602,2520.4708 338.4011,2525.5215 328.40803,2539.6823 322.74374,2548.755 315.27076,2560.7248 302.03561,2578.0494 297.995,2583.1002 293.95439,2588.151 285.87317,2603.3033 285.87317,2603.3033 285.87317,2603.3033 285.87317,2606.8388 279.30718,2603.3033 272.74119,2599.7677 262.13458,2597.2423 259.10413,2599.2626 256.07367,2601.2829 256.07367,2604.8185 262.13458,2609.8692 268.1955,2614.92 278.62388,2626.1097 279.30718,2629.0621 279.95833,2631.8756 254.86125,2632.5948 243.44677,2634.1129 213.29687,2638.1227 196.44619,2642.9998 164.65486,2648.2551 149.79801,2650.711 131.72324,2653.7885 115.15739,2655.8311 109.78695,2656.4933 104.40015,2657.0936 98.994949,2657.3464 92.940653,2657.6296 83.424951,2651.8776 80.812203,2657.3464 78.386591,2662.4235 87.119109,2666.8488 91.418805,2670.4784 95.731281,2674.1187 101.07761,2676.3615 106.18842,2678.755 110.71934,2680.877 115.22997,2683.6159 120.20815,2684.1155 126.32196,2684.7291 132.44897,2682.6498 138.3909,2681.085 151.21557,2677.7076 163.20876,2671.7118 175.76654,2667.4479 190.64048,2662.3975 205.44985,2656.9955 220.71833,2653.3058 233.33624,2650.2566 246.42524,2649.5245 259.10413,2646.7398 263.53179,2645.7673 268.70058,2642.6992 272.23611,2643.2043 275.77164,2643.7094 278.29702,2641.6891 281.83256,2646.2347 285.36809,2650.7804 286.25912,2659.1831 286.88332,2665.9327 287.8156,2676.0136 287.07682,2686.3584 284.86302,2696.2373 282.648,2706.1217 278.43946,2715.5422 273.75134,2724.5216 271.22287,2729.3645 269.62278,2735.8745 264.65996,2738.1586 255.72519,2742.2708 245.1584,2735.5398 235.36554,2734.6231 225.28566,2733.6795 213.9732,2733.4065 205.06097,2732.6028 200.99968,2732.2366 192.08327,2730.5841 191.4239,2734.6231 189.94337,2743.6922 205.56763,2749.1024 210.6168,2751.7957 216.67772,2754.8261 232.84016,2764.9277 238.396,2770.9886 243.95184,2777.0495 253.04321,2785.1307 256.57874,2786.1409 260.11428,2787.151 264.82543,2785.8301 266.1752,2781.5952 269.64367,2770.7129 279.65323,2754.5569 283.34778,2750.2805 291.93074,2740.3459 299.95643,2727.5935 304.05591,2711.3896 306.82591,2700.4407 310.01714,2689.3479 310.11683,2678.0545 310.19965,2668.672 306.5813,2654.316 305.57114,2650.2753 304.56099,2646.2347 305.57114,2643.7094 312.64221,2644.2144 319.71328,2644.7195 337.58851,2643.8505 350.01785,2644.7195 362.03764,2645.5599 373.86145,2648.3834 385.87827,2649.2652 394.10744,2649.869 404.00226,2654.6893 410.62701,2649.7703 414.13627,2647.1646 416.36955,2640.2937 414.16254,2637.1433 408.60125,2629.2049 400.81297,2624.3358 396.48487,2620.9809 391.6614,2617.242 380.32798,2619.059 372.24121,2619.4657 359.8018,2620.0914 347.66815,2623.5514 335.37064,2625.5266 326.78934,2626.9049 316.68282,2627.0418 309.61175,2629.5672 302.54069,2632.0926 299.85459,2632.0208 298.50008,2628.5571 297.09867,2624.9734 296.28787,2616.7767 290.92393,2613.9098 288.90363,2610.3743 293.95438,2606.3337 297.99499,2602.2931 302.03561,2598.2525 312.67652,2592.125 319.71328,2586.6357 331.86582,2577.1556 343.41221,2566.92 355.06862,2556.8362 360.20519,2552.3926 366.93307,2551.087 370.72598,2543.1992 373.82999,2536.7441 372.74629,2533.6027 362.13968,2523.5012 351.53308,2513.3997 350.0587,2510.0807 341.93663,2509.8641 339.97394,2509.8118 337.73795,2511.1258 336.88587,2512.8946 Z"
 id="path850"
 inkscape:connector-curvature="0"
 sodipodi:nodetypes="acasccccsssaacaaaaaaascaaaaasscscsssaccaasssaassccasssaa" />
</g>
</svg>
