<?xml version="1.0" encoding="UTF-8" standalone="no"?>
<!-- Created with Inkscape (http://www.inkscape.org/) -->

<svg
 xmlns:dc="http://purl.org/dc/elements/1.1/"
 xmlns:cc="http://creativecommons.org/ns#"
 xmlns:rdf="http://www.w3.org/1999/02/22-rdf-syntax-ns#"
 xmlns:svg="http://www.w3.org/2000/svg"
 xmlns="http://www.w3.org/2000/svg"
 xmlns:sodipodi="http://sodipodi.sourceforge.net/DTD/sodipodi-0.dtd"
 xmlns:inkscape="http://www.inkscape.org/namespaces/inkscape"
 width="512"
 height="512"
 viewBox="0 0 512.00001 512.00001"
 version="1.1"
 id="svg8"
 inkscape:version="0.92.4 (5da689c313, 2019-01-14)"
 sodipodi:docname="U+5177.svg">
<defs
 id="defs2" />
<sodipodi:namedview
 id="base"
 pagecolor="#ffffff"
 bordercolor="#666666"
 borderopacity="1.0"
 inkscape:pageopacity="0.0"
 inkscape:pageshadow="2"
 inkscape:zoom="1.979899"
 inkscape:cx="182.35388"
 inkscape:cy="343.24725"
 inkscape:document-units="px"
 inkscape:current-layer="layer1-2"
 showgrid="false"
 units="px"
 fit-margin-top="0"
 fit-margin-left="0"
 fit-margin-right="-2.7755576e-17"
 fit-margin-bottom="0"
 inkscape:pagecheckerboard="false"
 inkscape:window-width="1366"
 inkscape:window-height="705"
 inkscape:window-x="-8"
 inkscape:window-y="-8"
 inkscape:window-maximized="1" />
<metadata
 id="metadata5">
<rdf:RDF>
<cc:Work
 rdf:about="">
<dc:format>image/svg+xml</dc:format>
<dc:type
 rdf:resource="http://purl.org/dc/dcmitype/StillImage" />
<dc:title></dc:title>
</cc:Work>
</rdf:RDF>
</metadata>
<g
 inkscape:label="圖層 1"
 inkscape:groupmode="layer"
 id="layer1"
 transform="translate(0,-1208.1182)">
<g
 id="layer1-2"
 inkscape:label="圖層 1"
 transform="translate(0,3.59375e-5)">
<path
 style="fill:#000000;fill-opacity:1;stroke:none;stroke-width:1px;stroke-linecap:butt;stroke-linejoin:miter;stroke-opacity:1"
 d="M 197.9899,1332.7247 C 195.07728,1333.7722 195.46452,1335.2501 191.42391,1339.2907 187.3833,1343.3313 187.71627,1346.8635 187.88837,1350.9074 188.15822,1357.2481 193.16376,1362.4979 194.95944,1368.5851 197.19222,1376.154 198.8764,1383.9523 199.50513,1391.8186 200.69964,1406.7634 198.40023,1421.7836 197.9899,1436.7704 197.55206,1452.7621 200.81893,1469.2226 196.97975,1484.7527 195.62458,1490.2346 195.46452,1498.8948 189.4036,1499.9049 189.4036,1499.9049 177.64953,1503.4753 167.18025,1501.9252 167.18025,1501.9252 146.6618,1496.4117 160.61425,1506.976 168.78866,1513.1654 171.58634,1512.9892 177.28177,1515.5623 181.07114,1517.2743 185.35674,1517.9294 188.89853,1520.108 192.55459,1522.3568 188.89853,1520.108 198.49497,1528.6942 201.19769,1531.1124 199.00006,1544.8568 199.00006,1544.8568 200.76967,1549.2809 204.27266,1538.0999 206.07112,1534.2501 207.3338,1531.5472 207.63934,1528.4894 208.5965,1525.6638 209.34885,1523.4428 209.03423,1520.1657 211.12188,1519.0978 221.3732,1513.8539 226.27417,1511.0166 245.46707,1507.9862 264.65997,1504.9557 276.27672,1503.4405 284.86302,1504.9557 293.44931,1506.4709 298.83927,1510.9662 302.54069,1517.0775 306.93295,1524.3294 306.5813,1535.2603 305.57115,1542.3314 304.56099,1549.4024 301.02546,1562.5344 299.51023,1564.5547 297.995,1566.575 295.9747,1567.0801 300.01531,1572.6359 304.05592,1578.1918 309.61176,1587.7882 312.13714,1584.2527 314.66252,1580.7172 320.21836,1552.4329 324.25897,1538.7958 328.29958,1525.1588 322.23866,1517.0775 321.22851,1506.976 320.21836,1496.8745 324.42855,1464.2242 325.7742,1442.8313 326.73744,1427.5178 326.78435,1408.9912 328.29958,1396.8694 329.81481,1384.7475 333.85542,1338.7856 333.85542,1334.2399 333.85542,1329.6942 345.47217,1315.5521 345.97725,1311.5115 346.48232,1307.4709 345.47217,1302.9252 333.85542,1295.3491 322.23866,1287.7729 310.11683,1281.2069 308.6016,1285.7526 307.08637,1290.2983 306.5813,1297.3694 302.03561,1297.3694 297.48992,1297.3694 279.30718,1299.3897 267.69042,1300.9049 256.07367,1302.4201 239.40615,1305.9557 232.33509,1308.9861 225.26402,1312.0166 219.2031,1310.5013 220.71833,1318.5826 222.23356,1326.6638 225.76909,1335.7552 231.83001,1333.2298 237.89092,1330.7044 243.44676,1325.1485 261.12443,1320.0978 278.8021,1315.047 295.46962,1308.9861 301.02546,1309.4912 306.5813,1309.9963 312.99355,1313.2752 312.64221,1318.0775 311.58628,1332.5105 309.10668,1346.3618 308.6016,1362.0191 308.09653,1377.6765 306.5813,1395.3542 306.07622,1411.5166 305.57115,1427.679 303.04576,1446.8719 304.05592,1462.0242 305.06607,1477.1765 309.10668,1490.3085 305.06607,1493.3389 301.02546,1496.3694 297.14302,1487.3378 292.43916,1486.2679 279.44409,1483.3123 265.77094,1487.212 252.53814,1488.7933 243.88077,1489.8279 236.3757,1490.8136 226.77925,1493.3389 217.1828,1495.8643 212.13203,1500.41 211.62696,1489.8034 211.12188,1479.1968 214.65742,1439.8009 215.16249,1427.174 215.66757,1414.5471 217.1828,1395.3542 216.17264,1383.7374 215.16249,1372.1206 207.89159,1371.5771 207.08127,1364.5445 206.35175,1358.2132 211.09784,1352.2299 211.12188,1345.8567 211.13745,1341.7293 211.67164,1336.4878 208.5965,1333.7348 205.9504,1331.3659 201.33189,1331.5228 197.9899,1332.7247 Z"
 id="path854"
 inkscape:connector-curvature="0"
 sodipodi:nodetypes="asaaaaacssaassaascsacscscsacsccsssccscssssscaacsssaaaa" />
<path
 style="fill:#000000;fill-opacity:1;stroke:none;stroke-width:1px;stroke-linecap:butt;stroke-linejoin:miter;stroke-opacity:1"
 d="M 222.73864,1384.2425 C 226.11091,1382.2734 227.7894,1385.7577 234.35539,1382.7273 240.92138,1379.6968 264.15489,1372.6257 268.1955,1370.1003 272.23611,1367.575 274.25642,1369.0902 280.31733,1370.6054 286.37825,1372.1206 293.44931,1373.6359 289.91378,1375.6562 286.37825,1377.6765 276.27672,1382.2222 268.70058,1384.7475 261.12443,1387.2729 257.08382,1390.8085 249.0026,1394.344 240.92138,1397.8795 243.95184,1399.8998 234.35539,1395.3542 224.75894,1390.8085 220.9904,1393.5509 219.70818,1388.2831 219.31001,1386.6473 221.28475,1385.0914 222.73864,1384.2425 Z"
 id="path4559"
 inkscape:connector-curvature="0"
 sodipodi:nodetypes="accsscscaa" />
<path
 style="fill:#000000;fill-opacity:1;stroke:none;stroke-width:1px;stroke-linecap:butt;stroke-linejoin:miter;stroke-opacity:1"
 d="M 223.24371,1437.2755 C 223.24371,1437.2755 246.94764,1430.269 258.59905,1426.1638 262.5209,1424.782 266.067,1421.3395 270.21581,1421.6181 275.40421,1421.9665 284.86302,1426.6689 283.85287,1429.1943 282.84271,1431.7197 277.50335,1437.6625 272.74119,1438.7907 255.49921,1442.8755 255.56052,1444.0554 239.40615,1448.8922 233.94862,1450.5262 227.28432,1445.3567 223.24371,1443.3364 219.2031,1441.3161 217.53423,1441.9906 217.68787,1439.8009 217.83025,1437.7716 223.24371,1437.2755 223.24371,1437.2755 Z"
 id="path4561"
 inkscape:connector-curvature="0"
 sodipodi:nodetypes="caacsssac" />
<path
 style="fill:#000000;stroke:none;stroke-width:1px;stroke-linecap:butt;stroke-linejoin:miter;stroke-opacity:1;fill-opacity:1"
 d="M 31.819805,1569.6055 C 31.819805,1569.6055 45.456865,1578.6968 52.022856,1578.1918 58.588848,1577.6867 74.941679,1572.8962 86.368043,1570.1105 104.4184,1565.7098 122.19337,1560.1193 140.4112,1556.4735 156.1004,1553.3337 172.08858,1551.9274 187.88837,1549.4024 201.71805,1547.1922 225.76909,1544.3517 229.30463,1542.3314 232.84016,1540.311 238.396,1540.8161 236.88077,1533.7451 235.36554,1526.674 235.36554,1527.1791 232.33509,1522.1283 229.30463,1517.0775 229.8097,1515.5623 235.87062,1519.0978 241.93153,1522.6334 247.48737,1527.6841 249.0026,1530.7146 250.51783,1533.7451 252.03306,1537.2806 256.07367,1536.2704 260.11428,1535.2603 279.30718,1533.7451 292.43916,1531.2197 305.57115,1528.6943 325.26912,1527.6841 350.01786,1525.6638 L 374.76659,1523.6435 C 374.76659,1523.6435 417.40607,1523.6596 437.90113,1518.5928 441.63526,1517.6696 444.66338,1513.9171 448.50773,1514.0471 457.01123,1514.3346 459.11433,1516.0674 471.23616,1525.6638 483.35799,1535.2603 488.91383,1543.8466 485.88337,1546.877 482.85292,1549.9075 475.27677,1551.9278 469.21586,1550.9176 463.15494,1549.9075 436.47214,1547.8326 420.22346,1545.3618 408.7002,1543.6095 397.4697,1540.0184 385.87827,1538.7958 370.13629,1537.1354 354.22635,1537.4272 338.4011,1537.7857 318.1584,1538.2442 297.94766,1539.8963 277.79195,1541.8263 272.38727,1542.3438 265.62492,1540.1703 261.62951,1543.8466 259.22397,1546.06 259.6092,1547.8872 259.6092,1553.443 259.6092,1558.9989 258.09398,1570.1105 252.53814,1574.6562 246.9823,1579.2019 203.54574,1610.5167 197.9899,1614.0522 192.43406,1617.5877 168.1904,1631.2248 162.63456,1632.74 157.07872,1634.2552 149.50258,1637.7908 143.94674,1636.2755 131.31983,1635.7705 117.1777,1629.2045 116.67262,1626.174 116.16754,1623.1436 127.56312,1626.7914 132.83506,1625.6689 148.49149,1622.3355 163.14411,1614.9937 177.28177,1607.4862 191.75711,1599.7994 206.91844,1592.1078 218.19295,1580.2121 224.78726,1573.2545 231.32493,1562.0293 232.84016,1555.4633 234.35539,1548.8973 230.31478,1548.3923 224.25387,1548.8973 218.19295,1549.4024 202.30809,1553.7043 191.42391,1556.4735 174.99565,1560.6533 158.58928,1564.9837 142.43151,1570.1105 125.73215,1575.4092 108.36536,1579.4925 92.934034,1587.7882 89.226799,1589.7812 86.554868,1593.3998 82.832509,1595.3644 74.969272,1599.5144 66.369343,1605.284 57.578695,1603.9507 50.786587,1602.9205 45.81766,1596.6372 40.911178,1591.8288 36.534239,1587.5394 30.809653,1581.7273 29.7995,1577.1816 28.789348,1572.6359 29.206705,1569.6571 31.819805,1569.6055 Z"
 id="path4565"
 inkscape:connector-curvature="0"
 sodipodi:nodetypes="scaaaccccscsscaacccaaaaassssccaaascaaaaaass" />
<path
 style="fill:none;stroke:#000000;stroke-width:1px;stroke-linecap:butt;stroke-linejoin:miter;stroke-opacity:1"
 d="M 95.964492,1615.5674 Z"
 id="path4567"
 inkscape:connector-curvature="0" />
<path
 style="fill:#000000;fill-opacity:1;stroke:none;stroke-width:1px;stroke-linecap:butt;stroke-linejoin:miter;stroke-opacity:1"
 d="M 258.59906,1573.646 C 258.59906,1573.646 274.81226,1584.2432 282.33764,1590.3136 289.29261,1595.9239 295.29169,1602.634 302.03561,1608.4963 311.06515,1616.3454 320.77165,1623.3914 329.81481,1631.2248 338.10102,1638.4025 344.61003,1647.8886 354.05847,1653.4481 358.64705,1656.148 364.49739,1660.9746 369.21076,1658.4989 375.10718,1655.4019 375.37143,1645.9388 374.76659,1639.306 374.08284,1631.8079 369.48938,1624.8836 364.66507,1619.103 362.50756,1616.5178 356.58385,1613.042 356.58385,1613.042 356.58385,1613.042 342.39888,1604.0721 334.86557,1600.4151 326.23125,1596.2236 316.68282,1593.3441 308.09653,1589.8085 299.51023,1586.273 292.24484,1583.4744 284.35794,1580.2121 279.96587,1578.3954 275.84265,1575.7863 271.22596,1574.6563 267.1246,1573.6525 259.0741,1570.8186 258.59906,1573.646 Z"
 id="path4569"
 inkscape:connector-curvature="0"
 sodipodi:nodetypes="saaaaaaacacaas" />
</g>
</g>
</svg>
