<?xml version="1.0" encoding="UTF-8" standalone="no"?>
<!-- Created with Inkscape (http://www.inkscape.org/) -->

<svg
 xmlns:dc="http://purl.org/dc/elements/1.1/"
 xmlns:cc="http://creativecommons.org/ns#"
 xmlns:rdf="http://www.w3.org/1999/02/22-rdf-syntax-ns#"
 xmlns:svg="http://www.w3.org/2000/svg"
 xmlns="http://www.w3.org/2000/svg"
 xmlns:sodipodi="http://sodipodi.sourceforge.net/DTD/sodipodi-0.dtd"
 xmlns:inkscape="http://www.inkscape.org/namespaces/inkscape"
 width="512"
 height="512"
 viewBox="0 0 512 512"
 version="1.1"
 id="svg8"
 inkscape:version="0.92.4 (5da689c313, 2019-01-14)"
 sodipodi:docname="U+53AD.svg">
<defs
 id="defs2" />
<sodipodi:namedview
 id="base"
 pagecolor="#ffffff"
 bordercolor="#666666"
 borderopacity="1.0"
 inkscape:pageopacity="0.0"
 inkscape:pageshadow="2"
 inkscape:zoom="1.4"
 inkscape:cx="286.14818"
 inkscape:cy="229.52456"
 inkscape:document-units="px"
 inkscape:current-layer="layer1"
 showgrid="false"
 units="px"
 inkscape:window-width="1366"
 inkscape:window-height="705"
 inkscape:window-x="-8"
 inkscape:window-y="-8"
 inkscape:window-maximized="1" />
<metadata
 id="metadata5">
<rdf:RDF>
<cc:Work
 rdf:about="">
<dc:format>image/svg+xml</dc:format>
<dc:type
 rdf:resource="http://purl.org/dc/dcmitype/StillImage" />
<dc:title></dc:title>
</cc:Work>
</rdf:RDF>
</metadata>
<g
 inkscape:label="圖層 1"
 inkscape:groupmode="layer"
 id="layer1"
 transform="translate(0,-2307.4759)">
<path
 style="fill:#000000;stroke:none;stroke-width:1px;stroke-linecap:butt;stroke-linejoin:miter;stroke-opacity:1;fill-opacity:1"
 d="M 224.28571,2358.0472 C 226.53203,2353.8215 233.79682,2356.2938 238.57143,2356.6187 244.67872,2357.0343 250.71577,2358.7055 256.42857,2360.9045 261.99693,2363.0479 269.48714,2364.1329 272.14286,2369.4759 274.28607,2373.7878 280,2383.7616 270,2383.7616 260,2383.7616 251.90328,2380.3413 243.57143,2376.6188 238.38596,2374.3021 233.1328,2371.5111 229.28571,2367.333 226.90446,2364.7469 222.63561,2361.1514 224.28571,2358.0472 Z"
 id="path921"
 inkscape:connector-curvature="0"
 sodipodi:nodetypes="aaaasaaa" />
<path
 style="fill:#000000;stroke:none;stroke-width:1px;stroke-linecap:butt;stroke-linejoin:miter;stroke-opacity:1;fill-opacity:1"
 d="M 102.14286,2416.6188 C 102.14286,2416.6188 141.18073,2413.1671 160.71428,2411.6188 180.22908,2410.0719 199.78844,2409.0869 219.28571,2407.333 243.84978,2405.1232 268.40422,2402.6901 292.85714,2399.4759 308.1486,2397.4659 330.71428,2392.333 338.57143,2392.333 346.42857,2392.333 350.71428,2394.4759 355,2393.0473 359.28571,2391.6188 373.57143,2385.9045 378.57143,2383.7616 383.57143,2381.6188 384.28571,2381.6188 384.28571,2381.6188 384.28571,2381.6188 391.42857,2378.0473 397.14285,2379.4759 402.85714,2380.9045 422.85714,2390.1902 424.28571,2393.0473 425.71428,2395.9045 428.57143,2403.7616 414.28571,2402.333 400,2400.9045 364.28571,2400.9045 355,2400.9045 345.71428,2400.9045 299.69485,2405.5121 272.14286,2408.7616 251.84476,2411.1555 231.58265,2413.9335 211.42857,2417.333 198.02972,2419.5931 184.7926,2422.7325 171.42857,2425.1902 163.11312,2426.7194 150,2426.6188 146.42857,2429.4759 142.85714,2432.333 137.85714,2432.333 148.57143,2446.6188 159.28571,2460.9045 166.68609,2465.3882 163.57143,2475.9045 158.57959,2492.759 149.86362,2510.102 147.14286,2528.0473 143.78927,2550.1666 134.81828,2571.0715 127.85714,2592.333 121.88199,2610.583 116.62067,2629.1839 108.57143,2646.6188 100.38905,2664.3421 90.881284,2681.6293 79.285714,2697.3331 68.477623,2711.9704 52.426764,2733.5175 42.142857,2737.333 32.857143,2743.0473 25,2748.7616 15,2753.0473 5,2757.333 3.5714285,2757.333 3.5714285,2757.333 3.5714285,2757.333 -4.2857143,2760.9045 16.428572,2738.7616 37.142857,2716.6188 53.571428,2697.333 62.142857,2688.0473 70.714285,2678.7616 87.142857,2653.7616 91.428571,2647.333 95.714285,2640.9045 109.82235,2611.2007 117.14286,2592.333 122.91764,2577.4492 127.03673,2560.9772 131.42857,2546.6187 139.59646,2519.9151 139.96979,2517.1438 143.57143,2500.9045 146.2764,2488.7082 150.69586,2476.0723 148.57142,2463.7616 146.33424,2450.7976 130.01962,2430.1902 127.14286,2430.1902 128.11655,2429.7193 105.93102,2417.5658 102.14286,2416.6188 Z"
 id="path923"
 inkscape:connector-curvature="0"
 sodipodi:nodetypes="caaascccsccsaaascssaaacsccscassscc" />
<path
 style="fill:#000000;stroke:none;stroke-width:1px;stroke-linecap:butt;stroke-linejoin:miter;stroke-opacity:1;fill-opacity:1"
 d="M 170,2441.6188 C 170,2441.6188 180.71428,2440.1902 186.42857,2445.9045 192.14286,2451.6188 202.14286,2456.6188 203.57143,2461.6188 205,2466.6188 207.85714,2480.1902 208.57143,2482.333 209.28571,2484.4759 219.58546,2482.472 225,2481.6187 232.07534,2480.5037 240.71429,2475.1902 245.71429,2475.9045 250.71429,2476.6188 255,2478.7616 258.57143,2480.1902 262.14286,2481.6188 254.28571,2487.333 250.71428,2488.0473 247.14286,2488.7616 236.42857,2489.4759 232.14286,2488.7616 227.85714,2488.0473 216.42857,2490.9045 213.57143,2492.333 210.71428,2493.7616 210.71428,2508.7616 211.42857,2517.333 212.14286,2525.9045 209.28571,2528.7616 223.57143,2525.9045 237.85714,2523.0473 247.85714,2518.0473 251.42857,2518.7616 255,2519.4759 258.57143,2523.0473 258.57143,2517.333 258.57143,2511.6188 259.28571,2508.0473 262.85714,2509.4759 266.42857,2510.9045 270.71428,2496.6188 271.42857,2491.6188 272.14286,2486.6188 280,2469.4759 281.42857,2462.333 282.85714,2455.1902 286.42857,2452.333 282.14286,2448.7616 277.85714,2445.1902 265.92624,2448.1116 257.85714,2448.7616 248.96135,2449.4782 240.34943,2453.3057 231.42857,2453.0474 224.84594,2452.8567 215.71428,2454.4759 212.14286,2448.7616 208.57143,2443.0473 202.85714,2440.1902 217.85714,2440.9045 232.85714,2441.6188 241.29673,2439.8844 252.85714,2438.0473 263.00928,2436.434 277.85714,2434.4759 282.85714,2430.9045 287.85714,2427.333 288.57143,2425.1902 293.57143,2427.333 298.57143,2429.4759 305.71428,2435.9045 310,2440.9045 314.28571,2445.9045 315,2451.6188 310.71428,2455.1902 306.42857,2458.7616 303.57143,2453.0473 298.57143,2462.333 293.57143,2471.6188 284.28571,2500.1902 280,2513.0473 275.71428,2525.9045 275,2533.0473 272.85714,2537.333 270.71428,2541.6188 266.42857,2530.1902 261.42857,2528.0473 256.42857,2525.9045 227.3432,2536.1676 210.71428,2541.6188 200.75676,2544.883 191.86752,2552.1333 181.42857,2553.0473 175.38145,2553.5768 168.53336,2552.9727 163.57143,2549.4759 159.03209,2546.2769 140,2536.6188 155,2535.1902 170,2533.7616 178.22345,2534.1107 189.28571,2530.9045 193.5823,2529.6592 200.28971,2530.1739 201.42857,2525.1902 203.29242,2517.034 196.88303,2494.5554 191.42857,2480.1902 186.20763,2466.44 170,2441.6188 170,2441.6188 Z"
 id="path925"
 inkscape:connector-curvature="0"
 sodipodi:nodetypes="csscasssscscssssccaacsaccccccccaaasasac" />
<path
 style="fill:#000000;stroke:none;stroke-width:1px;stroke-linecap:butt;stroke-linejoin:miter;stroke-opacity:1;fill-opacity:1"
 d="M 165,2577.333 C 165,2577.333 177.85714,2586.6188 180.71428,2595.9045 183.57143,2605.1902 184.688,2632.0784 186.42857,2650.1902 186.95441,2655.6619 188.33439,2661.1427 187.85714,2666.6188 187.21531,2673.9833 183.46731,2680.7745 182.14286,2688.0473 180.85674,2695.1096 174.39282,2704.9937 180,2709.4759 184.1168,2712.7668 193.53392,2709.5384 195,2704.4759 198.20977,2693.3924 200.64166,2677.9747 200,2674.4759 199.28571,2670.9045 207.14286,2673.0473 212.85715,2674.4759 218.57143,2675.9045 222.55101,2670.1243 226.42856,2666.6187 230.35011,2663.0734 233.16588,2658.3934 235.71428,2653.7616 238.80468,2648.1447 243.57142,2638.7616 242.85714,2635.9044 242.14285,2633.0473 232.89831,2641.692 227.85714,2644.4759 220.77064,2648.3893 210.71428,2657.333 206.42857,2655.9045 202.14286,2654.4759 201.02945,2640.3557 199.28571,2632.333 196.63238,2620.1254 199.13822,2606.7019 194.28571,2595.1902 191.58462,2588.7824 190,2583.0473 181.42857,2578.7616 172.85714,2574.4759 165,2577.333 165,2577.333 Z"
 id="path927"
 inkscape:connector-curvature="0"
 sodipodi:nodetypes="csaaaascsaacacaasc" />
<path
 style="fill:#000000;fill-opacity:1;stroke:none;stroke-width:1px;stroke-linecap:butt;stroke-linejoin:miter;stroke-opacity:1"
 d="M 204.28571,2623.7616 C 202.66374,2618.8649 213.69921,2616.5169 217.85714,2610.9045 221.63908,2605.7996 230.40723,2604.5924 236.42857,2606.6188 239.95347,2607.8051 244.27769,2611.5387 243.57143,2615.1902 242.23628,2622.0931 231.87266,2623.7071 225,2625.1902 218.23458,2626.6502 206.46198,2630.3317 204.28571,2623.7616 Z"
 id="path929"
 inkscape:connector-curvature="0"
 sodipodi:nodetypes="ssaaas" />
<path
 style="fill:#000000;stroke:none;stroke-width:1px;stroke-linecap:butt;stroke-linejoin:miter;stroke-opacity:1;fill-opacity:1"
 d="M 217.14286,2567.333 C 227.14286,2564.4759 247.14286,2555.1902 250,2554.4759 252.85714,2553.7616 256.42857,2549.4759 262.85714,2553.0473 267.92575,2556.6188 275.12133,2560.3341 278.57143,2567.333 280.64774,2571.545 279.28572,2571.6188 271.42857,2579.4759 263.57143,2587.333 263.28468,2600.0686 261.42857,2610.9045 258.85461,2625.9312 259.68475,2641.3765 260,2656.6188 260.2715,2669.7458 263.74206,2682.8045 262.85714,2695.9045 262.23399,2705.1294 264.91542,2718.0399 257.14285,2723.0473 253.45219,2725.425 246.42857,2724.4759 244.28571,2720.1902 242.14286,2715.9045 232.85714,2695.1902 232.85714,2695.1902 232.85714,2695.1902 241.28084,2699.9069 245,2698.0473 248.71915,2696.1877 250,2686.6188 250,2686.6188 250,2686.6188 250.24286,2649.9476 250.71428,2631.6188 251.03285,2619.2328 255.00204,2606.5316 252.14286,2594.4759 250.32307,2586.8028 247.82219,2577.1771 240.71428,2573.7616 234.39894,2570.7269 227.00322,2577.1142 220,2577.333 214.49424,2577.505 206.42857,2577.333 203.57142,2575.5473 197.85713,2571.9759 207.14286,2570.1902 217.14286,2567.333 Z"
 id="path931"
 inkscape:connector-curvature="0"
 sodipodi:nodetypes="cscssaaaaccacaaaacc" />
<path
 style="fill:#000000;stroke:none;stroke-width:1px;stroke-linecap:butt;stroke-linejoin:miter;stroke-opacity:1;fill-opacity:1"
 d="M 323.57142,2530.1902 C 331.35192,2527.7322 343.46342,2528.8516 347.44922,2524.8004 352.07038,2520.1034 349.76228,2509.8665 350,2502.333 350.30075,2492.802 350.54587,2483.0906 348.57143,2473.7616 346.51145,2464.0284 339.97772,2455.6247 337.85714,2445.9045 337.04356,2442.1752 334.14478,2436.8383 337.14285,2434.4759 342.23019,2430.4673 350.86834,2435.8928 355.71428,2440.1902 361.07809,2444.9468 365.30893,2452.0356 370,2458.0473 373.10719,2462.0292 368.54805,2468.044 367.85714,2473.0473 366.37852,2483.7548 362.63584,2494.4216 363.57143,2505.1902 363.98205,2509.9164 359.54786,2521.4029 367.85714,2518.7616 376.17759,2516.1168 390.62839,2512.6493 401.42857,2510.1902 408.40863,2508.6008 420,2510.1902 422.85714,2511.6188 425.71428,2513.0473 426.42857,2521.6188 421.42857,2523.0473 416.42857,2524.4759 379.28571,2531.6188 370,2534.4759 360.71428,2537.333 355.1175,2529.5448 357.14285,2544.4759 359.72104,2563.4827 351.43913,2575.915 357.85714,2579.4759 366.00082,2583.9942 382.14285,2595.1902 395.71428,2606.6188 409.28571,2618.0473 428.7733,2625.3263 445,2635.1902 461.17354,2645.0217 478.68319,2647.655 499.28571,2660.9044 503.93068,2663.8916 522.85714,2678.7616 501.42857,2677.333 480,2675.9045 475,2676.6188 467.85714,2680.1902 460.71428,2683.7616 458.57143,2693.0473 452.14285,2690.1902 445.71428,2687.333 409.61963,2649.8012 390,2628.0473 380.13784,2617.1123 369.28571,2603.7616 362.14285,2593.7616 355,2583.7616 348.57143,2584.4759 347.85714,2589.4759 347.14285,2594.4759 339.52566,2623.6238 329.28571,2637.333 321.36282,2647.9402 309.9605,2656.2529 297.85714,2661.6188 291.66615,2664.3635 284.28571,2667.333 277.85714,2665.1902 271.42857,2663.0473 279.95921,2659.3658 282.14286,2657.333 282.14286,2657.333 304.26696,2643.3929 312.85714,2633.7616 320.24988,2625.4729 325.33208,2615.2682 330,2605.1902 335.91755,2592.4142 340,2582.333 343.57143,2565.1902 347.14285,2548.0473 350,2540.9045 345,2540.9045 340,2540.9045 323.57143,2545.1902 320,2547.333 316.42857,2549.4759 315,2551.6188 306.42857,2548.0473 297.85714,2544.4759 289.78071,2540.5763 294.25225,2537.6707 298.84101,2534.6889 309.74091,2534.5595 323.57142,2530.1902 Z"
 id="path933"
 inkscape:connector-curvature="0"
 sodipodi:nodetypes="ssaaaassaassccssscsscscassaacsaacsccss" />
</g>
</svg>
