<?xml version="1.0" encoding="UTF-8" standalone="no"?>
<!-- Created with Inkscape (http://www.inkscape.org/) -->

<svg
 xmlns:osb="http://www.openswatchbook.org/uri/2009/osb"
 xmlns:dc="http://purl.org/dc/elements/1.1/"
 xmlns:cc="http://creativecommons.org/ns#"
 xmlns:rdf="http://www.w3.org/1999/02/22-rdf-syntax-ns#"
 xmlns:svg="http://www.w3.org/2000/svg"
 xmlns="http://www.w3.org/2000/svg"
 xmlns:sodipodi="http://sodipodi.sourceforge.net/DTD/sodipodi-0.dtd"
 xmlns:inkscape="http://www.inkscape.org/namespaces/inkscape"
 width="512"
 height="512"
 viewBox="0 0 512.00001 512.00001"
 version="1.1"
 id="svg8"
 inkscape:version="0.92.4 (5da689c313, 2019-01-14)"
 sodipodi:docname="U+55B0.svg">
<defs
 id="defs2">
<linearGradient
 id="linearGradient5248"
 osb:paint="solid">
<stop
 style="stop-color:#000000;stop-opacity:1;"
 offset="0"
 id="stop5246" />
</linearGradient>
</defs>
<sodipodi:namedview
 id="base"
 pagecolor="#ffffff"
 bordercolor="#666666"
 borderopacity="1.0"
 inkscape:pageopacity="0.0"
 inkscape:pageshadow="2"
 inkscape:zoom="0.7"
 inkscape:cx="-29.122548"
 inkscape:cy="274.50467"
 inkscape:document-units="px"
 inkscape:current-layer="layer1"
 showgrid="false"
 units="px"
 fit-margin-top="0"
 fit-margin-left="0"
 fit-margin-right="-2.7755576e-17"
 fit-margin-bottom="0"
 inkscape:pagecheckerboard="false"
 inkscape:window-width="1366"
 inkscape:window-height="705"
 inkscape:window-x="-8"
 inkscape:window-y="-8"
 inkscape:window-maximized="1" />
<metadata
 id="metadata5">
<rdf:RDF>
<cc:Work
 rdf:about="">
<dc:format>image/svg+xml</dc:format>
<dc:type
 rdf:resource="http://purl.org/dc/dcmitype/StillImage" />
<dc:title></dc:title>
</cc:Work>
</rdf:RDF>
</metadata>
<g
 inkscape:label="圖層 1"
 inkscape:groupmode="layer"
 id="layer1"
 transform="translate(0,-1208.1182)">
<path
 style="fill:#000000;stroke:none;stroke-width:1px;stroke-linecap:butt;stroke-linejoin:miter;stroke-opacity:1;fill-opacity:1"
 d="M 93.944187,1276.1562 C 93.944187,1276.1562 100.66422,1284.4025 102.53048,1289.2881 104.71128,1294.9972 106.04143,1301.3505 105.28283,1307.4146 104.6678,1312.331 102.14963,1316.9211 99.500026,1321.1079 96.120552,1326.448 86.873119,1335.2501 86.873119,1335.2501 86.873119,1335.2501 102.9477,1331.628 110.6117,1328.6841 115.88309,1326.6592 121.45528,1324.758 125.76399,1321.108 129.25852,1318.1477 133.37119,1314.5515 133.84521,1309.9962 134.39899,1304.6745 130.38835,1299.7035 127.27922,1295.3491 123.12626,1289.5327 117.88734,1284.14 111.62186,1280.7018 106.28793,1277.7748 93.944187,1276.1562 93.944187,1276.1562 Z"
 id="path5226"
 inkscape:connector-curvature="0"
 sodipodi:nodetypes="caaacaaaaac" />
<path
 style="fill:#000000;stroke:none;stroke-width:1px;stroke-linecap:butt;stroke-linejoin:miter;stroke-opacity:1;fill-opacity:1"
 d="M 55.053313,1399.8998 C 67.4313,1402.0598 80.923536,1403.8958 90.913729,1411.5166 96.037199,1415.4249 100.42826,1421.3282 101.52033,1427.679 102.95972,1436.0495 98.273919,1444.4143 95.459416,1452.4278 92.813647,1459.9609 88.893424,1467.5801 85.35789,1474.1461 81.822356,1480.712 77.781746,1487.278 77.781746,1487.278 77.781746,1487.278 78.393859,1470.4431 78.286822,1462.0242 78.239687,1458.3168 78.26991,1454.588 77.781746,1450.9126 76.759916,1443.2192 76.006875,1435.2198 72.730983,1428.1841 71.210153,1424.9178 68.691243,1422.1668 66.164992,1419.5978 62.551616,1415.9232 58.151441,1413.1128 54.043161,1410.0014 49.2377,1406.362 42.931483,1401.9201 39.395949,1399.3948 V 1399.3948 C 39.395949,1399.3948 49.90921,1399.0022 55.053313,1399.8998 Z"
 id="path5230"
 inkscape:connector-curvature="0"
 sodipodi:nodetypes="aaaaccaaaaacca" />
<path
 style="fill:#000000;stroke:none;stroke-width:1px;stroke-linecap:butt;stroke-linejoin:miter;stroke-opacity:1;fill-opacity:1"
 d="M 60.104076,1569.1004 C 60.104076,1569.1004 59.444165,1589.7819 62.629458,1599.405 64.934305,1606.3682 68.342934,1613.7397 74.246212,1618.0928 80.129243,1622.431 88.592997,1626.155 95.459416,1623.6486 102.04128,1621.2461 104.39256,1612.715 107.58125,1606.476 116.086,1589.8356 119.61652,1571.0908 125.76399,1553.443 129.58257,1542.4809 133.50695,1531.5559 137.38075,1520.6131 140.2417,1512.5315 143.66216,1504.6268 145.96704,1496.3694 147.30748,1491.5672 148.9975,1481.7222 148.9975,1481.7222 148.9975,1481.7222 133.53763,1508.0034 125.76399,1521.1181 121.06752,1529.0414 116.66933,1537.1522 111.62186,1544.8567 107.19235,1551.6179 102.49411,1558.2151 97.479721,1564.5547 94.296324,1568.5794 91.044622,1572.5813 87.378195,1576.1715 85.499187,1578.0114 83.914733,1580.8108 81.31728,1581.2223 76.839921,1581.9316 72.590795,1578.4816 68.690373,1576.1715 65.500196,1574.2821 60.104076,1569.1004 60.104076,1569.1004 Z"
 id="path5234"
 inkscape:connector-curvature="0"
 sodipodi:nodetypes="caaaaaaacaaaaaac" />
<path
 style="fill:#000000;stroke:none;stroke-width:1px;stroke-linecap:butt;stroke-linejoin:miter;stroke-opacity:1;fill-opacity:1"
 d="M 254.05337,1246.3567 C 250.11091,1249.974 255.64071,1257.0308 257.5889,1262.014 259.42897,1266.7207 263.14474,1272.6206 265.16504,1275.146 267.18535,1277.6714 267.20379,1280.8735 266.68027,1283.7323 263.7157,1299.921 250.76971,1312.6101 241.42646,1326.1587 237.88878,1331.2887 229.8097,1340.8059 229.8097,1340.8059 229.8097,1340.8059 218.52918,1353.1178 213.14219,1359.4937 204.7933,1369.3752 197.26262,1379.9297 188.89853,1389.7983 183.19431,1396.5286 177.52985,1403.3294 171.22086,1409.4963 165.67091,1414.9213 159.09903,1420.1029 153.54319,1424.6486 147.98735,1429.1943 141.42136,1433.74 133.34014,1437.2755 125.25892,1440.811 119.70308,1443.3364 114.14724,1444.3466 108.5914,1445.3567 103.03556,1448.3872 110.6117,1449.3973 118.18785,1450.4075 128.79445,1451.9227 140.4112,1445.8618 152.02796,1439.8009 169.76749,1425.5898 182.83761,1413.5369 194.31858,1402.9495 204.55589,1388.2831 214.15234,1378.6866 223.74879,1369.0902 235.41345,1353.4004 245.46707,1340.3008 253.1766,1330.2555 260.37682,1319.8283 267.69042,1309.4912 273.48978,1301.2943 281.35714,1294.1516 284.86302,1284.7425 286.51839,1280.2998 287.95634,1275.071 286.37825,1270.6003 284.95172,1266.559 280.3494,1264.507 277.28688,1261.5089 273.28768,1257.5939 269.97643,1252.7508 265.16504,1249.8922 261.82345,1247.9069 256.91736,1243.7289 254.05337,1246.3567 Z"
 id="path5236"
 inkscape:connector-curvature="0"
 sodipodi:nodetypes="aacaacaaassccsacaaaaaaa" />
<path
 style="fill:#000000;stroke:none;stroke-width:1px;stroke-linecap:butt;stroke-linejoin:miter;stroke-opacity:1;fill-opacity:1"
 d="M 299.51023,1301.4099 C 299.81838,1296.1322 305.98515,1296.9584 314.67178,1296.7553 323.29217,1296.5538 334.09835,1300.5976 340.92648,1301.41 355.88882,1303.1903 370.39166,1307.8365 384.86812,1312.0166 399.03677,1316.1078 412.82129,1321.428 426.78945,1326.1587 435.21078,1329.0108 444.37712,1330.2413 452.04326,1334.745 458.10713,1338.3074 463.94207,1342.9428 467.70063,1348.8871 469.57938,1351.8584 473.06326,1356.3582 470.73109,1358.9887 464.83686,1365.6369 452.99278,1356.9436 444.46712,1354.443 433.24527,1351.1516 422.84374,1345.5219 412.14224,1340.8059 397.39005,1334.3048 383.29949,1326.2523 368.2006,1320.6029 358.67024,1317.037 348.8002,1314.3938 338.90618,1312.0166 330.07701,1309.8952 320.81069,1309.6536 312.13714,1306.9658 307.7448,1305.6047 299.24219,1306.0005 299.51023,1301.4099 Z"
 id="path5238"
 inkscape:connector-curvature="0"
 sodipodi:nodetypes="assaaaaaaaaaaa" />
<path
 style="fill:#000000;stroke:none;stroke-width:1px;stroke-linecap:butt;stroke-linejoin:miter;stroke-opacity:1;fill-opacity:1"
 d="M 252.03306,1344.3414 C 252.03306,1344.3414 275.83138,1341.5228 287.3884,1343.8364 296.92615,1345.7457 309.64861,1346.8342 314.15744,1355.4531 315.74917,1358.4958 314.92683,1363.5524 312.13714,1365.5547 307.86196,1368.6232 301.60058,1364.7468 296.47978,1363.5343 289.53685,1361.8903 282.97434,1358.9227 276.27672,1356.4633 271.87422,1354.8467 267.33259,1353.5237 263.14474,1351.4125 259.22448,1349.4361 252.03306,1344.3414 252.03306,1344.3414 Z"
 id="path5240"
 inkscape:connector-curvature="0"
 sodipodi:nodetypes="caaaaaac" />
<path
 style="fill:#000000;stroke:none;stroke-width:1px;stroke-linecap:butt;stroke-linejoin:miter;stroke-opacity:1;fill-opacity:1"
 d="M 221.72848,1387.778 C 228.04348,1382.1712 234.35539,1396.8694 244.96199,1397.8795 255.56859,1398.8897 259.10413,1392.8288 275.77165,1388.7882 292.43916,1384.7475 309.10668,1382.2222 314.66252,1380.2019 L 320.21836,1378.1816 C 320.21836,1378.1816 323.83997,1375.9931 325.7742,1375.1511 328.70313,1373.8762 331.68877,1371.7858 334.86557,1372.1206 341.47012,1372.8165 347.50732,1377.3667 352.03816,1382.2222 354.26895,1384.6128 356.91132,1388.8295 356.41565,1391.0007 355.77019,1393.8279 351.35841,1394.4788 349.51278,1396.8694 346.42966,1400.8629 344.51769,1405.7121 342.94679,1410.5064 338.94724,1422.7129 337.56872,1435.6542 335.87572,1448.3872 334.76268,1456.7584 333.52641,1465.2026 333.85542,1473.641 334.14765,1481.1362 336.79986,1488.3867 337.39095,1495.8643 337.66956,1499.3888 340.35547,1504.5443 337.39095,1506.4709 333.21994,1509.1815 328.52281,1501.825 323.75389,1500.41 319.66747,1499.1975 315.38049,1498.113 311.12698,1498.3897 299.91093,1499.1194 289.48602,1504.4953 278.8021,1507.9862 271.66493,1510.3182 264.92155,1513.9469 257.5889,1515.5623 253.95683,1516.3625 250.19481,1516.6808 246.47722,1516.5725 243.07382,1516.4734 240.13286,1518.6954 236.3757,1515.0572 234.5596,1513.2986 234.986,1511.4229 234.7915,1509.5097 234.53507,1506.9873 233.39589,1503.7629 235.36554,1501.9252 238.69148,1498.822 247.51719,1501.1946 253.54829,1500.41 264.06096,1499.0424 274.4953,1497.0671 284.86302,1494.8542 294.3672,1492.8256 303.42922,1487.7231 313.14729,1487.7831 316.45495,1487.8035 320.18701,1492.4071 322.74374,1490.3085 329.13223,1485.0647 323.24881,1479.7019 321.22851,1465.5598 319.2082,1451.4176 320.46497,1448.0483 320.72343,1439.2958 320.97765,1430.6869 322.2873,1422.1375 322.74374,1413.5369 323.06507,1407.4822 327.74739,1399.4194 323.24882,1395.3542 319.32263,1391.8062 312.73096,1396.5617 307.50517,1397.3948 297.7194,1398.9549 287.94377,1400.6641 278.29703,1402.9303 267.40064,1405.49 257.02763,1413.7709 245.97214,1412.0217 237.57818,1410.6936 224.75894,1397.8795 224.75894,1397.8795 224.75894,1397.8795 219.09966,1390.112 221.72848,1387.778 Z"
 id="path5252"
 inkscape:connector-curvature="0"
 sodipodi:nodetypes="accscaaasaaaaaaaaaaasasaaaasaaaaaaca" />
<path
 style="fill:#000000;stroke:none;stroke-width:1px;stroke-linecap:butt;stroke-linejoin:miter;stroke-opacity:1;fill-opacity:1"
 d="M 252.53814,1410.0014 C 249.0026,1422.1232 250.51783,1425.1537 249.50768,1432.7298 249.17096,1435.2552 248.0232,1437.8027 248.49753,1440.3059 249.14296,1443.712 247.48737,1451.4176 253.54829,1449.3973 259.6092,1447.377 267.18535,1446.8719 281.83256,1441.8212 296.47977,1436.7704 293.95439,1433.74 299.00515,1435.7603 304.05592,1437.7806 315.16759,1443.8415 308.6016,1445.8618 302.03561,1447.8821 294.45947,1451.4176 283.34779,1453.4379 272.23611,1455.4582 267.29028,1457.4269 259.10413,1458.4887 255.9275,1458.9007 251.9875,1456.9662 249.50768,1458.9938 245.3349,1462.4057 246.44057,1469.3497 245.46707,1474.6511 244.09032,1482.1485 243.86939,1489.8135 242.94169,1497.3796 241.24651,1511.2051 238.72172,1524.9309 237.38585,1538.7958 236.56095,1547.3573 232.33509,1564.0496 235.87062,1564.5547 239.40615,1565.0598 267.18535,1555.9684 285.87317,1548.3923 304.56099,1540.8161 322.85441,1531.2838 339.41126,1519.6029 347.20302,1514.1058 354.339,1507.581 360.62446,1500.41 365.46498,1494.8875 368.61535,1488.4353 373.13692,1482.2774 375.18417,1479.4893 381.33259,1468.5901 381.33259,1468.5901 381.33259,1468.5901 383.31759,1480.0356 382.84782,1485.7628 382.35043,1491.8267 381.83766,1498.3897 378.30213,1503.4405 374.76659,1508.4912 359.2751,1516.6762 350.01786,1523.6435 340.92131,1530.4899 333.0988,1539.1472 323.24881,1544.8567 313.83608,1550.3127 303.12688,1553.147 292.94424,1556.9786 284.42221,1560.1853 275.93871,1563.5626 267.18535,1566.07 261.21664,1567.7797 254.98608,1568.4531 249.00261,1570.1105 243.87181,1571.5316 235.36554,1573.141 233.85032,1575.1613 232.33509,1577.1816 232.33509,1577.6867 232.33509,1586.273 232.33509,1594.8593 228.84669,1606.858 233.85031,1615.0623 236.28598,1619.056 240.41631,1623.1436 245.97214,1622.1334 251.52798,1621.1232 273.24626,1608.4963 281.83256,1602.9405 290.41886,1597.3847 298.50008,1587.7882 305.06607,1582.7374 311.63206,1577.6867 317.69298,1568.5953 317.1879,1575.1613 316.68282,1581.7273 305.92956,1593.6632 298.50008,1601.4253 289.79087,1610.5245 278.77429,1617.098 268.70058,1624.6588 262.72107,1629.1467 256.70925,1633.6001 250.51783,1637.7908 245.56683,1641.1419 241.18325,1646.01 235.36554,1647.3872 228.77963,1648.9463 220.32257,1649.7462 215.16249,1645.3669 211.70624,1642.4336 210.30451,1636.5709 211.62696,1632.2349 213.12394,1627.3266 220.89778,1626.6973 223.24371,1622.1334 226.23274,1616.3184 225.43333,1607.9833 226.36873,1600.4268 228.23989,1585.3111 229.47302,1570.2793 228.79955,1563.5446 227.78939,1553.443 232.10629,1520.1103 231.32493,1498.3897 231.27012,1496.8661 230.96405,1495.3617 230.81986,1493.844 230.2129,1487.4552 229.29065,1481.0686 229.30463,1474.6511 229.33555,1460.46 230.82856,1446.2726 232.84016,1432.2247 234.03364,1423.8901 236.3757,1412.0217 237.89092,1407.476 239.40615,1402.9303 232.84016,1398.3846 239.40615,1399.3948 245.97214,1400.4049 252.53814,1410.0014 252.53814,1410.0014 Z"
 id="path5254"
 inkscape:connector-curvature="0"
 sodipodi:nodetypes="caascsssaaaaascaascacaaaaacsasscsaaaaaasssaaaaccc" />
<path
 style="fill:#000000;stroke:none;stroke-width:1px;stroke-linecap:butt;stroke-linejoin:miter;stroke-opacity:1;fill-opacity:1"
 d="M 319.71328,1548.3923 C 319.71328,1548.3923 336.16583,1549.8994 343.95694,1552.4329 353.62316,1555.5762 362.67845,1560.5773 371.23106,1566.0699 377.77974,1570.2756 383.78504,1575.3423 389.41381,1580.7172 393.64052,1584.7533 401.13026,1588.0057 401.03056,1593.8491 400.95539,1598.2548 396.32318,1603.002 391.93919,1603.4456 381.71599,1604.4801 374.71214,1592.1831 366.68538,1585.7679 358.8649,1579.5176 352.39159,1571.6763 344.46202,1565.5649 338.58098,1561.0324 331.7515,1557.8478 325.7742,1553.443 323.65712,1551.8829 319.71328,1548.3923 319.71328,1548.3923 Z"
 id="path5256"
 inkscape:connector-curvature="0"
 sodipodi:nodetypes="caaaaaaaac" />
</g>
</svg>
