<?xml version="1.0" encoding="UTF-8" standalone="no"?>
<!-- Created with Inkscape (http://www.inkscape.org/) -->

<svg
 xmlns:dc="http://purl.org/dc/elements/1.1/"
 xmlns:cc="http://creativecommons.org/ns#"
 xmlns:rdf="http://www.w3.org/1999/02/22-rdf-syntax-ns#"
 xmlns:svg="http://www.w3.org/2000/svg"
 xmlns="http://www.w3.org/2000/svg"
 xmlns:sodipodi="http://sodipodi.sourceforge.net/DTD/sodipodi-0.dtd"
 xmlns:inkscape="http://www.inkscape.org/namespaces/inkscape"
 width="512"
 height="512"
 viewBox="0 0 512 512"
 version="1.1"
 id="svg8"
 inkscape:version="0.92.4 (5da689c313, 2019-01-14)"
 sodipodi:docname="U+5BB0.svg">
<defs
 id="defs2" />
<sodipodi:namedview
 id="base"
 pagecolor="#ffffff"
 bordercolor="#666666"
 borderopacity="1.0"
 inkscape:pageopacity="0.0"
 inkscape:pageshadow="2"
 inkscape:zoom="1.4"
 inkscape:cx="167.6773"
 inkscape:cy="293.64737"
 inkscape:document-units="px"
 inkscape:current-layer="layer1"
 showgrid="false"
 units="px"
 inkscape:window-width="1366"
 inkscape:window-height="705"
 inkscape:window-x="-8"
 inkscape:window-y="-8"
 inkscape:window-maximized="1" />
<metadata
 id="metadata5">
<rdf:RDF>
<cc:Work
 rdf:about="">
<dc:format>image/svg+xml</dc:format>
<dc:type
 rdf:resource="http://purl.org/dc/dcmitype/StillImage" />
<dc:title></dc:title>
</cc:Work>
</rdf:RDF>
</metadata>
<g
 inkscape:label="圖層 1"
 inkscape:groupmode="layer"
 id="layer1"
 transform="translate(0,-2307.4759)">
<path
 style="fill:#000000;fill-opacity:1;stroke:none;stroke-width:1px;stroke-linecap:butt;stroke-linejoin:miter;stroke-opacity:1"
 d="M 189.28571,2335.1902 C 189.28571,2335.1902 206.43052,2322.8488 216.42857,2322.333 229.28844,2321.6696 241.43397,2329.2465 252.85714,2335.1902 260.12488,2338.9718 269.28571,2343.0473 272.85714,2349.4759 276.42857,2355.9045 272.14286,2367.333 270,2374.4759 267.85714,2381.6188 262.14286,2387.333 265.71428,2385.1902 267.53262,2384.0992 278.51229,2383.4149 284.94434,2382.8396 292.08878,2382.2006 302.06479,2379.6682 310.71428,2378.7617 328.97234,2376.8482 347.36616,2376.5083 365.71428,2375.9045 382.84951,2375.3406 405.84817,2375.9312 417.14285,2375.1902 432.14286,2365.1901 426.87915,2368.0892 432.14286,2365.1901 440.86521,2360.3861 447.0129,2365.7033 453.57143,2368.7617 462.94009,2373.1306 472.85714,2381.6188 477.85714,2388.0473 482.85714,2394.4759 489.28572,2401.6188 479.28572,2403.0474 469.28572,2404.4759 468.60407,2406.1678 464.28571,2409.4759 459.71026,2412.9809 457.57715,2418.9031 453.57143,2423.0473 450.75348,2425.9626 447.76051,2428.8151 444.28571,2430.9045 439.89041,2433.5474 435.09313,2437.2221 430,2436.6188 423.04601,2435.7951 416.24504,2430.6044 412.85714,2424.4759 410.7805,2420.7194 410.10201,2409.4955 412.14286,2411.6188 417.35339,2417.0399 422.71786,2413.8983 426.42856,2410.9045 431.41804,2406.8789 430.84054,2397.7806 431.42857,2392.333 432.10316,2386.0834 435.71428,2380.9045 416.42857,2383.0473 397.14285,2385.1902 377.87641,2386.194 358.57143,2387.333 336.92149,2388.6104 315.18724,2388.4271 293.57143,2390.1902 277.55891,2391.4963 254.28571,2394.4759 245.71428,2395.9045 237.14286,2397.333 205.12002,2403.952 185,2408.7616 181.40505,2409.621 177.96292,2411.9934 174.28571,2411.6188 168.45949,2411.0253 168.57143,2413.0473 158.57143,2403.7616 148.57143,2394.4759 148.57143,2393.7616 148.57143,2393.7616 148.57143,2393.7616 156.45241,2397.5369 160.71428,2398.0473 179.48589,2400.2952 205.71428,2393.7616 217.14286,2392.333 228.57143,2390.9045 245.71428,2387.333 250,2387.333 H 258.57143 C 258.57143,2387.333 243.06641,2366.0807 232.85714,2358.0473 219.96802,2347.9052 205.71428,2340.9045 189.28571,2335.1902 Z"
 id="path871"
 inkscape:connector-curvature="0"
 sodipodi:nodetypes="caasscsaacssccaaaaasascaacaascacscac" />
<path
 style="fill:#000000;fill-opacity:1;stroke:none;stroke-width:1px;stroke-linecap:butt;stroke-linejoin:miter;stroke-opacity:1"
 d="M 97.857142,2384.4759 C 97.857142,2384.4759 102.85714,2393.7616 110,2400.9045 117.14285,2408.0473 122.22515,2410.9796 125,2418.0473 127.95969,2425.5858 128.21597,2434.6302 125.71428,2442.333 122.06038,2453.5835 119.1933,2470.0668 114.28572,2480.9044 113.00513,2483.7324 109.70995,2480.0535 107.85714,2478.7616 105.35603,2477.0176 102.14286,2460.9045 102.14286,2471.6187 102.14286,2482.333 101.37153,2497.2344 107.14286,2508.0473 109.84288,2513.1059 114.32552,2520.3006 120,2519.4759 128.0422,2518.307 129.61126,2506.2119 132.85714,2498.7616 138.27854,2486.3178 140.0585,2472.5869 143.57143,2459.4759 145.99275,2450.439 149.71573,2441.6352 150.71428,2432.333 151.29932,2426.883 152.85714,2422.333 150,2415.9045 147.14286,2409.4759 134.6203,2399.3628 125,2393.7616 116.73619,2388.9502 97.857142,2384.4759 97.857142,2384.4759 Z"
 id="path873"
 inkscape:connector-curvature="0"
 sodipodi:nodetypes="ccassasaaaaacac" />
<path
 style="fill:#000000;stroke:none;stroke-width:1px;stroke-linecap:butt;stroke-linejoin:miter;stroke-opacity:1;fill-opacity:1"
 d="M 219.28571,2428.7616 C 225.28925,2425.628 232.52536,2425.5893 239.28571,2425.1901 247.38085,2424.7122 256.42225,2424.7683 263.57143,2426.6188 270.56401,2428.4287 279.60701,2429.3636 284.28571,2435.1902 286.85915,2438.395 289.27412,2444.3672 286.42857,2447.333 281.11924,2452.8667 266.87635,2445.1656 257.14286,2443.7617 247.10876,2442.3144 236.82049,2441.7817 227.14286,2438.7616 222.87257,2437.4289 215.76906,2437.4541 215,2433.0473 214.65267,2431.0571 217.4947,2429.6964 219.28571,2428.7616 Z"
 id="path875"
 inkscape:connector-curvature="0"
 sodipodi:nodetypes="aasasaaaa" />
<path
 style="fill:#000000;stroke:none;stroke-width:1px;stroke-linecap:butt;stroke-linejoin:miter;stroke-opacity:1;fill-opacity:1"
 d="M 167.14286,2478.0473 C 167.14286,2478.0473 169.28571,2493.7616 175,2497.333 182.22473,2502.415 197.19014,2500.9654 207.14286,2497.333 224.28895,2491.0753 244.90662,2486.7762 265.71428,2485.1902 287.97614,2483.4934 327.14285,2476.6188 332.14285,2476.6188 337.14285,2476.6188 347.14285,2477.333 350.71428,2475.9045 354.28571,2474.4759 356.42857,2467.333 351.42857,2463.7616 346.42857,2460.1902 335.71428,2453.7616 332.85714,2452.333 330,2450.9045 329.28571,2457.333 324.28571,2460.1902 319.28571,2463.0473 274.9404,2470.3568 250,2473.7616 247.39432,2474.1173 244.74094,2474.0684 242.14286,2474.4759 228.16163,2476.6688 214.78052,2482.2045 200.71428,2483.7616 198.82108,2483.9712 196.90297,2483.8442 195,2483.7616 189.50831,2483.5233 183.93247,2483.5474 178.57143,2482.333 174.60338,2481.4342 167.14286,2478.0473 167.14286,2478.0473 Z"
 id="path877"
 inkscape:connector-curvature="0"
 sodipodi:nodetypes="ccssscsccaaaaac" />
<path
 style="fill:#000000;stroke:none;stroke-width:1px;stroke-linecap:butt;stroke-linejoin:miter;stroke-opacity:1;fill-opacity:1"
 d="M 183.57143,2524.4759 C 183.57143,2524.4759 198.06786,2528.1554 205,2530.9045 212.9184,2534.0447 222.85714,2536.6188 227.85714,2542.333 232.85714,2548.0473 234.9414,2550.7648 236.42857,2555.9045 238.08302,2561.6223 234.28571,2570.1902 236.42857,2573.7616 238.57143,2577.333 250,2571.6188 252.85714,2572.333 255.71428,2573.0473 263.5241,2556.5183 267.85714,2548.0473 271.26011,2541.3946 276.16489,2534.8009 276.42857,2527.333 276.74739,2518.3036 269.28571,2504.4759 267.85714,2501.6188 266.42857,2498.7616 261.42857,2496.6188 269.28571,2498.0473 277.14286,2499.4759 291.5892,2503.6429 300.71428,2510.1902 305.24698,2513.4424 311.4673,2517.4687 311.42857,2523.0473 311.36761,2531.8276 300,2537.333 294.28571,2543.0473 288.57143,2548.7616 272.85714,2561.6188 269.28571,2565.9045 265.71428,2570.1902 264.28571,2571.6188 273.57143,2568.7616 282.85714,2565.9045 302.85714,2558.7616 310,2558.7616 317.14286,2558.7616 322.14285,2560.9045 322.85714,2565.1902 323.57143,2569.4759 324.28571,2575.1902 310,2578.0473 295.71428,2580.9045 268.89084,2585.4174 248.57143,2590.1902 243.28587,2591.4317 232.85714,2594.4759 232.85714,2594.4759 232.85714,2594.4759 254.28571,2604.4759 262.14286,2608.7616 270,2613.0473 275.71428,2617.333 275.71428,2622.333 275.71428,2627.333 277.85714,2628.7616 282.85714,2627.333 L 287.85714,2625.9045 C 287.85714,2625.9045 315.91969,2619.0969 330,2615.9045 338.79,2613.9116 350.71428,2608.7616 356.42857,2610.1902 362.14285,2611.6188 366.42857,2616.6188 371.42857,2621.6188 376.42857,2626.6188 370.71428,2632.333 367.14285,2633.0473 363.57143,2633.7616 344.80411,2636.2869 333.57143,2637.333 317.42285,2638.837 290,2640.1902 285,2640.1902 280,2640.1902 275,2635.1902 273.57143,2641.6188 272.14286,2648.0473 275,2678.7616 273.57143,2689.4759 272.14286,2700.1902 273.67408,2728.5392 272.85714,2748.0473 272.13686,2765.2472 272.98984,2791.6683 269.28571,2799.4759 266.48337,2805.3827 265,2820.1902 250,2795.9045 235,2771.6188 244.9463,2779.737 249.28571,2773.7616 253.59528,2767.8273 256.93123,2757.3952 257.85714,2748.0473 259.78213,2728.6128 256.42857,2696.6188 256.42857,2689.4759 256.42857,2682.333 255.71429,2650.9044 255,2647.333 254.28571,2643.7616 239.09802,2644.6033 230,2645.9045 206.55106,2649.2582 184.95175,2657.3175 164.28571,2660.1902 152.72054,2661.7978 143.01317,2670.8719 131.42857,2672.333 124.54152,2673.2016 120,2678.0473 110.71428,2670.1902 101.42857,2662.333 94.285714,2656.6188 92.142857,2652.333 89.999999,2648.0473 92.857142,2650.1902 107.85714,2650.1902 122.85714,2650.1902 150.24178,2644.9817 171.42857,2642.333 192.1465,2639.7429 222.14286,2636.6188 233.57143,2634.4759 245,2632.333 250.71428,2633.0473 247.85714,2629.4759 245,2625.9045 240.71428,2611.6188 230.71428,2602.3331 220.71428,2593.0474 225,2597.3331 210.71429,2600.1902 196.42857,2603.0474 196.35949,2606.2145 189.28571,2604.4759 181.55819,2602.5766 172.14286,2595.9045 170.71428,2589.4759 169.28571,2583.0473 170,2584.4759 175.71428,2586.6188 181.42857,2588.7616 196.27724,2585.3975 206.42857,2583.7616 212.70082,2582.7508 225,2578.7616 225,2579.4759 225,2580.1902 218.57143,2565.1902 207.85714,2556.6188 199.99173,2545.1984 187.09852,2545.9488 183.57143,2539.4759 180.71428,2532.333 183.57143,2524.4759 183.57143,2524.4759 Z"
 id="path879"
 inkscape:connector-curvature="0"
 sodipodi:nodetypes="cacascaaccaasscsscacssccasssascssssssssssaccsassscaccasccc" />
</g>
</svg>
