<?xml version="1.0" encoding="UTF-8" standalone="no"?>
<!-- Created with Inkscape (http://www.inkscape.org/) -->

<svg
 xmlns:dc="http://purl.org/dc/elements/1.1/"
 xmlns:cc="http://creativecommons.org/ns#"
 xmlns:rdf="http://www.w3.org/1999/02/22-rdf-syntax-ns#"
 xmlns:svg="http://www.w3.org/2000/svg"
 xmlns="http://www.w3.org/2000/svg"
 xmlns:sodipodi="http://sodipodi.sourceforge.net/DTD/sodipodi-0.dtd"
 xmlns:inkscape="http://www.inkscape.org/namespaces/inkscape"
 width="512"
 height="512"
 viewBox="0 0 512 512"
 version="1.1"
 id="svg8"
 inkscape:version="0.92.4 (5da689c313, 2019-01-14)"
 sodipodi:docname="U+7CDF.svg">
<defs
 id="defs2" />
<sodipodi:namedview
 id="base"
 pagecolor="#ffffff"
 bordercolor="#666666"
 borderopacity="1.0"
 inkscape:pageopacity="0.0"
 inkscape:pageshadow="2"
 inkscape:zoom="0.70000001"
 inkscape:cx="99.338912"
 inkscape:cy="261.99066"
 inkscape:document-units="px"
 inkscape:current-layer="layer1"
 showgrid="false"
 units="px"
 inkscape:window-width="1366"
 inkscape:window-height="705"
 inkscape:window-x="-8"
 inkscape:window-y="-8"
 inkscape:window-maximized="1" />
<metadata
 id="metadata5">
<rdf:RDF>
<cc:Work
 rdf:about="">
<dc:format>image/svg+xml</dc:format>
<dc:type
 rdf:resource="http://purl.org/dc/dcmitype/StillImage" />
<dc:title></dc:title>
</cc:Work>
</rdf:RDF>
</metadata>
<g
 inkscape:label="圖層 1"
 inkscape:groupmode="layer"
 id="layer1"
 transform="translate(0,-2307.4759)">
<path
 style="fill:#000000;stroke:none;stroke-width:1px;stroke-linecap:butt;stroke-linejoin:miter;stroke-opacity:1;fill-opacity:1"
 d="M 96.974644,2460.8717 C 105.89149,2461.6334 116.39786,2470.0122 126.26907,2472.9936 132.58967,2474.9026 138.64772,2477.6132 144.95689,2479.5596 147.45437,2480.3301 152.32983,2478.9741 152.53303,2481.5799 152.97331,2487.226 147.0712,2497.6255 142.93658,2503.2982 140.85177,2506.1586 135.67118,2504.9714 132.32998,2503.8032 121.96935,2500.1808 115.76701,2489.3964 107.58125,2482.0849 103.84796,2478.7504 98.390146,2476.606 96.469567,2471.9834 95.046985,2468.5594 93.280382,2460.5561 96.974644,2460.8717 Z"
 id="path946"
 inkscape:connector-curvature="0"
 sodipodi:nodetypes="ssassaaas" />
<path
 style="fill:#000000;fill-opacity:1;stroke:none;stroke-width:1px;stroke-linecap:butt;stroke-linejoin:miter;stroke-opacity:1"
 d="M 32.324881,2542.6941 C 32.324881,2542.6941 47.211983,2541.4966 54.548237,2540.1687 67.526408,2537.8196 79.990967,2533.1077 92.934034,2530.5723 105.78504,2528.055 118.96736,2527.5001 131.82491,2525.0164 139.48255,2523.5372 151.52288,2522.9961 154.55334,2519.4606 157.5838,2515.9251 157.5838,2509.8641 157.5838,2498.2474 157.5838,2486.6306 158.33988,2468.6054 159.09902,2453.8007 159.72987,2441.4979 160.87103,2429.226 161.62441,2416.9301 162.00592,2410.7034 164.3773,2404.2322 162.63456,2398.2422 160.61163,2391.2891 153.63408,2386.8325 150.00765,2380.5646 146.76297,2374.9565 137.38075,2360.3616 141.92643,2362.887 146.47212,2365.4124 159.44076,2370.5305 167.18025,2376.0189 173.39823,2380.4284 179.29461,2385.5627 183.84776,2391.6763 187.89532,2397.111 194.45436,2404.8083 192.93913,2409.8591 191.42391,2414.9098 189.4036,2414.4047 185.86807,2420.4657 182.33253,2426.5266 180.89473,2429.6605 179.30208,2434.6078 175.9934,2444.8857 175.24079,2455.8171 173.24116,2466.4276 171.36986,2476.3571 168.69547,2491.6814 167.68532,2496.2271 166.67517,2500.7728 167.18025,2503.2982 171.72593,2502.288 176.27162,2501.2779 180.71603,2493.7567 184.85791,2489.156 190.94486,2482.3947 199.00005,2472.4885 202.03051,2467.9428 205.06097,2463.3971 211.62696,2455.821 211.12188,2451.7804 210.6168,2447.7398 210.6168,2443.6992 208.09142,2438.1433 205.56604,2432.5875 201.52543,2430.5672 208.09142,2430.0621 214.65741,2429.557 223.74879,2435.6179 228.29447,2439.6586 232.84016,2443.6992 235.87062,2451.7804 238.90108,2456.3261 241.93153,2460.8717 244.45691,2462.8921 237.38585,2467.9428 230.31478,2472.9936 212.95024,2484.5088 201.02036,2493.1966 194.51478,2497.9342 188.77778,2503.7867 181.82747,2507.8439 177.39818,2510.4295 166.45446,2508.926 167.68533,2513.9048 169.71205,2522.1028 184.58686,2513.1314 192.93913,2511.8845 201.46391,2510.6119 209.65991,2507.5447 218.19295,2506.3286 223.20429,2505.6144 229.30463,2503.2982 233.34524,2505.3185 237.38585,2507.3388 244.96199,2509.8641 240.4163,2512.8946 235.87062,2515.9251 223.00119,2517.6908 214.15234,2519.4606 205.30349,2521.2304 196.29838,2522.1028 187.3833,2523.5012 180.13718,2524.6378 165.66502,2527.0367 165.66502,2527.0367 165.66502,2527.0367 162.63456,2526.0266 162.12948,2533.6027 161.62441,2541.1789 158.08887,2553.3007 160.61425,2555.8261 163.13963,2558.3515 174.75639,2558.8566 181.82746,2561.887 188.89852,2564.9175 199.50513,2570.9784 202.53558,2575.5241 205.56604,2580.0697 207.58635,2587.1408 204.55589,2589.6662 201.52543,2592.1916 196.97974,2593.2017 188.89852,2588.151 180.8173,2583.1002 175.76654,2577.0393 172.23101,2572.9987 168.69547,2568.9581 162.63456,2564.4124 160.61425,2563.9073 158.59395,2563.4022 159.6041,2564.4124 158.59395,2574.0088 157.5838,2583.6053 156.01567,2611.3931 154.55334,2630.0723 152.68081,2653.9913 150.88842,2677.9209 148.49242,2701.7931 147.76457,2709.0449 148.9975,2720.481 145.96704,2723.5114 142.93658,2726.5419 138.3909,2727.552 135.86552,2721.9962 133.34014,2716.4403 133.09624,2702.0098 130.81475,2692.1967 129.34308,2685.8668 126.26907,2677.0444 125.25891,2673.5089 124.24876,2669.9733 124.24876,2669.9733 129.29952,2673.0038 134.35029,2676.0342 137.88582,2680.0749 139.90613,2676.0342 141.92643,2671.9936 142.279,2654.8487 142.93658,2644.2144 143.66423,2632.447 142.8066,2620.5938 143.94674,2608.8591 144.73901,2600.7048 147.98735,2589.1611 147.98735,2584.6154 147.98735,2580.0697 147.98734,2579.0597 147.98734,2576.0292 147.98734,2572.9988 150.34388,2574.3824 141.42136,2583.1002 131.65692,2592.6407 121.52728,2605.5698 111.11678,2615.9302 105.09662,2621.9214 98.450775,2627.3294 91.418805,2632.0926 83.620395,2637.375 75.458217,2642.3404 66.670068,2645.7297 60.535847,2648.0955 53.998691,2651.1091 47.477169,2650.2753 44.264888,2649.8646 31.819805,2648.255 38.890873,2645.7297 45.96194,2643.2043 59.535935,2636.561 68.690373,2630.0723 82.199357,2620.4971 93.687557,2608.2713 105.05586,2596.2322 116.4664,2584.1484 126.43742,2570.7794 136.87567,2557.8464 140.64093,2553.1812 144.97515,2548.8877 147.98734,2543.7043 150.45357,2539.4604 153.54319,2532.5926 153.54319,2530.0672 153.54319,2527.5418 125.5902,2534.0758 112.12693,2538.1484 99.557441,2541.9506 82.832508,2547.7449 75.76144,2553.3007 68.690373,2558.8566 67.68022,2561.3819 61.114229,2559.8667 54.548237,2558.3515 46.467017,2554.8159 41.92133,2552.7956 37.375644,2550.7753 36.870568,2549.7652 32.829957,2547.2398 28.789347,2544.7144 32.324881,2542.6941 32.324881,2542.6941 Z"
 id="path948"
 inkscape:connector-curvature="0"
 sodipodi:nodetypes="caaassaaaasaaccaascasscscccaaaaascaaccsccsccccaaccacccaassssaaacaaaasacsssc" />
<path
 style="fill:#000000;stroke:none;stroke-width:1px;stroke-linecap:butt;stroke-linejoin:miter;stroke-opacity:1;fill-opacity:1"
 d="M 274.25641,2422.4859 C 274.25641,2422.4859 283.87422,2439.7347 292.43916,2442.689 301.64964,2445.866 311.56955,2438.9153 321.22851,2437.6382 332.03485,2436.2094 343.97084,2430.3908 354.05847,2433.5976 356.64558,2434.42 353.83176,2441.012 353.55338,2444.7092 353.07039,2451.1241 352.56428,2457.5524 351.53308,2463.9022 349.65379,2475.4742 345.93303,2486.6915 343.95694,2498.2474 341.38391,2513.294 340.16392,2528.5414 338.4011,2543.7043 337.05499,2555.2829 330.77608,2567.9519 330.31988,2578.0494 330.11528,2582.578 339.35522,2583.526 343.45186,2581.585 350.12548,2578.423 350.72271,2568.5388 352.54324,2561.3819 354.74922,2552.7097 353.6716,2543.5167 354.56354,2534.6129 356.18709,2518.4058 358.61779,2502.2897 360.62446,2486.1256 362.15005,2473.8367 363.49392,2461.5243 365.17014,2449.255 366.09192,2442.508 366.68537,2432.0824 368.2006,2429.0519 369.71583,2426.0215 383.70367,2427.489 391.43411,2426.5266 401.05039,2425.3295 410.55159,2423.0867 420.22346,2422.486 431.14702,2421.8075 442.10912,2422.9068 453.05341,2422.991 458.94579,2423.0363 467.19555,2423.4961 470.73108,2422.991 474.26662,2422.4859 487.3986,2424.0012 485.88337,2418.9504 484.36814,2413.8997 474.51717,2405.5294 466.69047,2402.2829 460.14237,2399.5668 458.60925,2396.7271 445.47727,2400.7677 432.34529,2404.8083 425.16123,2407.4708 414.66762,2409.354 405.44229,2411.0096 398.63342,2414.1474 384.86812,2415.92 381.29459,2416.3802 373.25136,2419.9606 378.30213,2407.3337 383.35289,2394.7068 383.83986,2391.6471 385.87827,2383.5951 386.7175,2380.28 388.54527,2376.8489 387.78513,2373.5148 386.8533,2369.4276 383.43411,2366.2012 380.32244,2363.392 371.47084,2355.4011 355.57369,2347.7347 349.51278,2345.2093 343.45186,2342.6839 329.8148,2338.6433 328.80465,2342.1788 327.7945,2345.7144 335.53329,2351.611 338.90618,2356.321 343.61226,2362.8927 350.17914,2368.4623 353.04831,2376.0189 356.53298,2385.1966 357.594,2390.1611 356.07877,2405.3134 355.44574,2411.6437 355.49726,2419.218 353.50739,2421.4345 350.73432,2424.5234 340.74197,2422.1207 334.36049,2422.4859 320.21646,2423.2952 306.08921,2425.5951 291.93408,2425.0113 285.98675,2424.766 274.25641,2422.4859 274.25641,2422.4859 Z"
 id="path950"
 inkscape:connector-curvature="0"
 sodipodi:nodetypes="cassaaassaaaaacaaascassssaaascaassaac" />
<path
 style="fill:#000000;stroke:none;stroke-width:1px;stroke-linecap:butt;stroke-linejoin:miter;stroke-opacity:1;fill-opacity:1"
 d="M 288.90363,2468.4479 C 288.90363,2468.4479 293.95439,2470.9733 308.09652,2467.9428 322.23866,2464.9124 335.53247,2460.6643 349.51278,2458.3464 362.7011,2456.1598 376.12811,2455.7902 389.4138,2454.3058 404.58444,2452.6107 431.33513,2448.2448 434.87067,2448.7499 438.4062,2449.255 445.47727,2449.7601 451.53818,2453.2956 457.5991,2456.8311 464.53937,2460.4841 465.68032,2466.9327 466.95282,2474.1247 459.12961,2479.9922 456.08387,2486.6306 451.64966,2496.2952 447.90138,2506.2652 443.45696,2515.9251 439.61749,2524.2702 434.29279,2531.977 431.33513,2540.6738 427.51859,2551.896 431.24074,2565.9412 424.26406,2575.5241 422.44498,2578.0227 420.22346,2583.6053 416.18285,2580.0697 412.14224,2576.5342 407.24054,2562.7572 406.5864,2553.3007 405.70599,2540.5731 398.82552,2521.2006 405.57624,2526.0266 407.33019,2527.2805 408.09229,2529.5528 409.61685,2531.0774 411.90367,2533.3642 415.40669,2539.8343 417.19299,2537.1383 421.75512,2530.2529 426.66522,2515.2025 431.33513,2504.3083 435.55699,2494.4593 439.31546,2486.4154 442.44681,2478.0443 444.30929,2473.0653 451.03311,2465.4174 445.47727,2462.387 439.92143,2459.3565 445.47727,2454.3058 427.29452,2458.3464 409.11178,2462.387 404.41628,2463.814 392.94934,2466.4276 381.51888,2469.0329 370.00447,2471.2695 358.60415,2474.0037 349.47121,2476.1941 340.49184,2479.0084 331.33003,2481.0748 326.98172,2482.0555 322.65234,2483.7701 318.19805,2483.6002 312.44348,2483.3807 308.09652,2483.6002 301.53053,2479.0545 294.96454,2474.5088 288.90363,2468.4479 288.90363,2468.4479 Z"
 id="path952"
 inkscape:connector-curvature="0"
 sodipodi:nodetypes="ccaassaaaaacssassscsaaaasc" />
<path
 style="fill:#000000;stroke:none;stroke-width:1px;stroke-linecap:butt;stroke-linejoin:miter;stroke-opacity:1;fill-opacity:1"
 d="M 303.55084,2511.8845 C 303.74431,2518.411 309.0605,2522.224 310.62191,2529.5621 311.81787,2535.1827 321.60752,2540.2405 327.7945,2537.1383 338.47153,2531.7847 355.04904,2526.4945 367.69552,2522.4911 375.01583,2520.1738 382.69181,2519.0236 389.91888,2516.4301 393.39425,2515.1829 398.60094,2515.2931 400.02041,2511.8845 401.12639,2509.2286 399.37742,2505.4084 396.98995,2503.8032 387.06626,2497.1309 373.01719,2503.5163 361.12953,2504.8134 353.12043,2505.6873 345.39063,2508.4029 337.39095,2509.3591 330.52888,2510.1793 323.57062,2509.8045 316.68282,2510.3692 312.29119,2510.7293 303.41531,2507.3128 303.55084,2511.8845 Z"
 id="path954"
 inkscape:connector-curvature="0"
 sodipodi:nodetypes="ssssaaaaaas" />
<path
 style="fill:#000000;stroke:none;stroke-width:1px;stroke-linecap:butt;stroke-linejoin:miter;stroke-opacity:1;fill-opacity:1"
 d="M 252.53813,2567.9479 C 253.15443,2565.7784 261.53733,2571.2381 265.16504,2574.5139 269.28853,2578.2374 283.85286,2570.4733 286.37824,2569.4632 288.90363,2568.453 284.61554,2557.0148 283.85286,2550.7753 282.53772,2540.0162 282.96281,2528.9618 280.31733,2518.4504 278.23424,2510.1736 273.75644,2502.6887 270.72088,2494.7119 266.90452,2484.6833 256.14493,2478.732 257.08382,2474.5088 257.73023,2471.6012 260.74899,2467.7718 263.64981,2468.4479 271.39529,2470.2532 277.5932,2478.9963 283.34779,2485.6205 291.97195,2495.5479 291.77076,2510.5358 295.97469,2522.9961 299.89738,2534.6228 295.21599,2548.7611 299.51023,2559.8667 301.22116,2564.2914 307.50224,2567.4444 312.13713,2566.4327 327.02688,2563.1826 341.61968,2559.5549 356.58385,2558.3515 368.00651,2557.4329 379.47343,2556.5361 390.92903,2556.8362 396.17074,2556.9735 403.55594,2557.8464 406.5864,2558.3515 409.61685,2558.8566 420.72853,2558.8566 413.65746,2562.8972 406.5864,2566.9378 400.63193,2566.7541 393.95949,2567.9479 384.29602,2569.6768 374.3714,2569.5091 364.66507,2570.9784 352.78195,2572.7773 341.00443,2575.2784 329.30973,2578.0494 320.64568,2580.1023 311.94459,2582.1498 303.55084,2585.1205 295.23548,2588.0635 288.12233,2595.4121 279.30718,2595.7271 273.77275,2595.9248 268.09064,2593.48 263.64982,2590.1712 259.30234,2586.932 256.1552,2582.0369 254.05336,2577.0393 252.8623,2574.2073 251.61406,2567.9479 252.53813,2567.9479 Z"
 id="path960"
 inkscape:connector-curvature="0"
 sodipodi:nodetypes="cscaassssssssassaaaaaaac" />
<path
 style="fill:#000000;stroke:none;stroke-width:1px;stroke-linecap:butt;stroke-linejoin:miter;stroke-opacity:1;fill-opacity:1"
 d="M 286.37825,2627.0418 C 287.4792,2629.6998 287.3884,2628.5571 289.4087,2635.1231 291.42901,2641.6891 288.11979,2647.5882 287.3884,2653.8109 286.14033,2664.4296 283.74183,2674.9462 283.34779,2685.6307 282.99363,2695.2339 283.34779,2708.3591 284.86302,2714.42 286.37824,2720.481 288.39855,2722.5013 292.43916,2726.0368 296.47977,2729.5723 301.02546,2730.5825 301.02546,2726.0368 301.02546,2721.4911 300.0153,2718.4607 303.04576,2718.9657 306.07622,2719.4708 320.92867,2720.2986 329.8148,2719.4708 338.88869,2718.6255 347.53791,2715.0199 356.58385,2713.915 360.9321,2713.3839 366.1841,2710.8183 369.71583,2713.4099 375.9063,2717.9524 372.24121,2728.0571 375.77674,2735.6332 379.31228,2743.2094 383.85796,2752.8058 385.87827,2745.7348 387.89857,2738.6637 387.45417,2733.856 388.90873,2728.0571 391.49935,2717.7291 396.70972,2708.149 399.01025,2697.7525 401.57304,2686.1708 401.84833,2674.1979 403.05086,2662.3972 404.19899,2651.1304 403.19206,2639.5075 406.08132,2628.5571 407.11929,2624.6232 413.65746,2621.9911 411.13208,2617.4454 408.6067,2612.8997 396.92695,2602.3072 387.3935,2599.7677 383.29717,2598.6765 378.92599,2600.4644 374.76659,2601.2829 369.79711,2602.2608 365.07579,2604.2815 360.11938,2605.3236 346.46547,2608.1945 328.80465,2611.3845 318.70313,2611.3845 308.6016,2611.3845 293.44931,2607.3439 299.51023,2613.4048 305.57114,2619.4657 312.64221,2630.5774 319.71328,2629.5672 326.78435,2628.5571 331.38254,2625.9792 337.39095,2625.0215 342.55573,2624.1983 347.85788,2624.6533 353.04831,2624.0114 361.37248,2622.982 374.76659,2619.4657 377.79705,2619.4657 380.82751,2619.4657 383.35289,2619.4657 382.84781,2625.0215 382.34274,2630.5774 383.71351,2635.8059 383.35289,2641.184 382.87328,2648.3365 379.76464,2655.2288 379.81735,2662.3972 379.84503,2666.1617 381.88969,2669.7446 381.83766,2673.5089 381.79248,2676.7775 380.54046,2679.9174 379.81735,2683.1053 378.3992,2689.3574 380.14319,2697.6256 375.27167,2701.7931 373.73116,2703.111 371.73613,2706.3388 369.21075,2702.2982 366.68537,2698.2576 356.9252,2698.0852 350.52293,2697.7525 340.51237,2697.2323 330.63499,2700.2955 320.72343,2701.7931 315.66046,2702.5581 308.6016,2702.8033 305.57114,2704.3185 302.54069,2705.8337 299.00515,2710.3794 299.51023,2701.7931 300.0153,2693.2068 298.06135,2683.1596 299.51023,2674.0139 300.61821,2667.0201 304.21171,2660.6421 306.07622,2653.8109 307.30234,2649.3186 309.10668,2644.7195 309.10668,2640.1738 309.10668,2635.6281 311.12698,2634.1129 303.55084,2628.052 295.97469,2621.9911 284.35794,2619.4657 283.85286,2621.486 283.34778,2623.5063 285.59976,2625.1624 286.37825,2627.0418 Z"
 id="path962"
 inkscape:connector-curvature="0"
 sodipodi:nodetypes="acaacsscaaaccaaaasaaasscaascaaaaasaaccaasssa" />
<path
 style="fill:#000000;stroke:none;stroke-width:1px;stroke-linecap:butt;stroke-linejoin:miter;stroke-opacity:1;fill-opacity:1"
 d="M 312.64221,2664.9226 C 318.0564,2662.1375 335.9514,2660.025 345.97724,2657.3464 351.0717,2655.9853 359.67098,2656.8247 361.12953,2661.8921 362.11958,2665.3318 357.20137,2668.2604 354.05846,2669.9733 348.97817,2672.742 342.67051,2672.6125 336.88587,2672.4987 331.40556,2672.3909 325.8746,2671.3419 320.72343,2669.4682 317.81897,2668.4117 309.89388,2666.3364 312.64221,2664.9226 Z"
 id="path964"
 inkscape:connector-curvature="0"
 sodipodi:nodetypes="ssaaaas" />
</g>
</svg>
