<?xml version="1.0" encoding="UTF-8" standalone="no"?>
<!-- Created with Inkscape (http://www.inkscape.org/) -->

<svg
 xmlns:dc="http://purl.org/dc/elements/1.1/"
 xmlns:cc="http://creativecommons.org/ns#"
 xmlns:rdf="http://www.w3.org/1999/02/22-rdf-syntax-ns#"
 xmlns:svg="http://www.w3.org/2000/svg"
 xmlns="http://www.w3.org/2000/svg"
 xmlns:sodipodi="http://sodipodi.sourceforge.net/DTD/sodipodi-0.dtd"
 xmlns:inkscape="http://www.inkscape.org/namespaces/inkscape"
 width="512"
 height="512"
 viewBox="0 0 512 512"
 version="1.1"
 id="svg8"
 inkscape:version="0.92.4 (5da689c313, 2019-01-14)"
 sodipodi:docname="U+7CE0.svg">
<defs
 id="defs2" />
<sodipodi:namedview
 id="base"
 pagecolor="#ffffff"
 bordercolor="#666666"
 borderopacity="1.0"
 inkscape:pageopacity="0.0"
 inkscape:pageshadow="2"
 inkscape:zoom="0.9899495"
 inkscape:cx="86.44261"
 inkscape:cy="235.0935"
 inkscape:document-units="px"
 inkscape:current-layer="layer1"
 showgrid="false"
 units="px"
 inkscape:window-width="1366"
 inkscape:window-height="705"
 inkscape:window-x="-8"
 inkscape:window-y="-8"
 inkscape:window-maximized="1" />
<metadata
 id="metadata5">
<rdf:RDF>
<cc:Work
 rdf:about="">
<dc:format>image/svg+xml</dc:format>
<dc:type
 rdf:resource="http://purl.org/dc/dcmitype/StillImage" />
<dc:title></dc:title>
</cc:Work>
</rdf:RDF>
</metadata>
<g
 inkscape:label="圖層 1"
 inkscape:groupmode="layer"
 id="layer1"
 transform="translate(0,-2307.4759)">
<path
 style="fill:#000000;fill-opacity:1;stroke:none;stroke-width:1px;stroke-linecap:butt;stroke-linejoin:miter;stroke-opacity:1"
 d="M 97.984792,2496.2271 C 107.95173,2511.5158 117.42077,2523.844 129.29952,2521.4809 136.44383,2520.0597 140.49121,2510.5229 141.42136,2503.2982 143.19063,2489.5559 129.92484,2477.9909 112.12693,2474.0037 103.81762,2472.1422 91.320434,2464.2217 83.337584,2467.9428 75.493454,2471.5993 91.92453,2486.931 97.984792,2496.2271 Z"
 id="path977"
 inkscape:connector-curvature="0"
 sodipodi:nodetypes="ssssss" />
<path
 style="fill:#000000;fill-opacity:1;stroke:none;stroke-width:1px;stroke-linecap:butt;stroke-linejoin:miter;stroke-opacity:1"
 d="M 28.284271,2545.7246 C 28.284271,2545.7246 43.84164,2545.795 51.517779,2544.7144 70.037418,2542.1074 87.986326,2536.3676 106.06602,2531.5824 121.31293,2527.547 149.50258,2522.4911 151.52288,2518.4504 153.54319,2514.4098 154.55334,2514.4098 156.57364,2492.1865 158.59395,2469.9631 158.10092,2453.0955 159.6041,2433.5976 160.6188,2420.4358 163.64471,2397.2321 163.64471,2394.2017 163.64471,2391.1712 161.62441,2386.1205 156.57364,2376.0189 151.52288,2365.9174 147.48227,2362.887 143.44166,2354.8057 139.40105,2346.7245 141.42136,2347.7347 153.54319,2352.7854 165.66502,2357.8362 175.17205,2362.7304 181.82746,2371.9783 186.93371,2379.0736 193.94929,2391.1712 188.89852,2397.2321 183.84776,2403.2931 179.80715,2407.3337 177.78685,2417.4352 175.76654,2427.5367 170.50037,2450.9319 168.69547,2467.9428 167.62906,2477.9935 161.62441,2502.288 167.68532,2498.2474 173.74624,2494.2068 184.70216,2480.061 191.92898,2469.9631 196.93662,2462.966 199.78849,2454.5396 205.06097,2447.7398 208.56248,2443.224 210.11172,2435.618 217.18279,2435.618 224.25386,2435.618 237.29398,2453.5825 235.36554,2464.9124 232.75371,2480.2574 211.43236,2484.8405 199.00005,2494.2068 190.12107,2500.8961 171.72593,2513.3997 171.72593,2513.3997 171.72593,2513.3997 169.70563,2517.4403 177.78685,2515.42 185.86807,2513.3997 201.13931,2505.898 213.14219,2507.3388 218.37508,2507.9669 227.01278,2509.1463 227.28432,2514.4098 227.51051,2518.7942 220.27222,2519.9099 216.17264,2521.4809 200.87217,2527.344 167.68532,2529.5621 167.68532,2529.5621 167.68532,2529.5621 160.61425,2524.5114 162.63456,2539.6637 164.65486,2554.8159 161.62441,2565.9276 165.66502,2569.9682 169.70563,2574.0088 176.50955,2569.1052 181.82746,2569.9682 189.18478,2571.1621 197.68852,2571.8518 203.04066,2577.0393 207.93643,2581.7845 212.14963,2589.7259 210.11173,2596.2322 208.8832,2600.1545 204.11962,2603.3819 200.0102,2603.3033 187.75573,2603.0688 171.61672,2586.6903 170.71578,2581.0799 169.80977,2575.4379 165.66502,2575.019 160.61425,2575.019 155.56349,2575.019 159.6041,2595.222 156.57364,2606.3337 153.54319,2617.4454 153.33886,2642.8069 150.51273,2660.882 147.75148,2678.5421 148.24642,2692.263 145.46197,2699.2678 143.77024,2703.5237 149.6238,2707.8215 149.50258,2712.3997 149.2178,2723.1551 144.45181,2746.7449 138.3909,2742.7043 132.32998,2738.6637 118.18785,2713.4099 114.14724,2699.2678 110.10663,2685.1256 104.04571,2673.0038 111.11678,2679.0647 118.18785,2685.1256 123.23861,2695.2271 128.28937,2698.2576 133.34013,2701.2881 139.40105,2707.349 138.3909,2686.1358 137.38075,2664.9226 140.4112,2643.7094 143.44166,2625.5266 146.47212,2607.3439 149.50258,2590.1713 149.50258,2590.1713 149.50258,2590.1713 144.45182,2588.151 132.32998,2600.2728 120.20815,2612.3946 92.934033,2632.5977 82.832508,2638.6586 72.730983,2644.7195 61.619305,2653.8109 56.568542,2653.8109 51.517779,2653.8109 36.365491,2662.9023 69.700525,2633.6078 103.03556,2604.3134 125.25891,2580.0697 135.36044,2568.9581 145.46197,2557.8464 153.43169,2556.4271 151.52288,2547.7449 150.13213,2541.4191 163.64471,2528.552 134.35029,2538.6535 105.05586,2548.755 90.010738,2555.117 67.68022,2562.8972 60.641644,2565.3495 53.538084,2577.0393 46.467017,2569.9682 39.395949,2562.8972 29.294424,2557.8464 26.263966,2553.8058 23.233508,2549.7652 28.284271,2545.7246 28.284271,2545.7246 Z"
 id="path979"
 inkscape:connector-curvature="0"
 sodipodi:nodetypes="caacsascccacsasaasaacsaaacssaaaasssssascsssscsssccasacsc" />
<path
 style="fill:#000000;stroke:none;stroke-width:1px;stroke-linecap:butt;stroke-linejoin:miter;stroke-opacity:1;fill-opacity:1"
 d="M 315.16759,2414.4047 C 315.16759,2414.4047 340.82554,2415.7164 353.55339,2414.4047 361.76463,2413.5585 373.75644,2409.354 377.79705,2409.354 381.83766,2409.354 383.85796,2409.354 387.89857,2411.3743 391.93918,2413.3946 387.71932,2416.3649 385.87827,2417.4352 371.00874,2426.08 352.28105,2432.0374 339.41125,2435.6179 335.19409,2436.7912 330.74467,2433.2546 327.28942,2430.5672 321.97363,2426.4327 315.16759,2414.4047 315.16759,2414.4047 Z"
 id="path981"
 inkscape:connector-curvature="0"
 sodipodi:nodetypes="cassssac" />
<path
 style="fill:#000000;stroke:none;stroke-width:1px;stroke-linecap:butt;stroke-linejoin:miter;stroke-opacity:1;fill-opacity:1"
 d="M 267.69042,2464.9124 C 267.69042,2464.9124 281.83256,2468.953 299.00515,2465.9225 316.17774,2462.8921 331.33003,2463.9022 335.37064,2462.8921 339.41125,2461.8819 340.42141,2457.8413 334.36049,2451.7804 328.29957,2445.7195 325.26912,2439.6586 335.37064,2443.6992 345.47217,2447.7398 355.57369,2460.8717 355.57369,2460.8717 355.57369,2460.8717 372.47003,2459.2677 380.82751,2457.8413 396.12816,2455.2298 410.9902,2450.389 426.28437,2447.7398 434.30899,2446.3498 442.57929,2442.9362 450.52803,2444.7093 457.91329,2446.3567 485.88337,2453.8007 469.72093,2456.8311 453.55849,2459.8616 423.30671,2463.9525 400.0204,2466.9327 390.94709,2468.0939 378.8072,2467.9428 372.74629,2469.9631 366.68537,2471.9834 361.63461,2469.9631 358.60415,2483.0951 355.57369,2496.2271 350.19445,2516.517 348.50263,2533.6027 347.44089,2544.3252 352.54324,2555.8261 348.50263,2565.9276 344.46202,2576.0291 344.61614,2596.1835 343.45186,2611.3845 341.6245,2635.2429 339.79069,2659.1853 340.42141,2683.1053 340.79586,2697.3065 342.44171,2712.3997 344.46202,2725.5317 346.48232,2738.6637 347.49247,2750.7855 341.43156,2759.8769 335.37064,2768.9683 312.80258,2769.3203 319.2082,2757.8566 324.48247,2748.4176 314.57158,2733.8213 310.11683,2718.4607 305.06607,2704.3185 300.0153,2695.2271 313.14729,2706.3388 326.27927,2717.4505 331.33003,2729.5723 329.30973,2706.3388 327.28942,2683.1053 328.46794,2674.69 328.29957,2658.8616 328.14556,2644.3836 327.78345,2629.8947 328.29957,2615.4251 328.80497,2601.2559 331.46722,2587.1762 331.33003,2572.9987 331.29404,2569.2797 331.33003,2571.9885 330.31988,2561.887 329.30973,2551.7855 336.3808,2544.7144 335.37064,2539.6637 334.36049,2534.6129 337.50317,2528.234 338.4011,2522.4911 340.71097,2507.7179 343.45186,2487.1357 344.46201,2478.0444 345.47217,2468.953 322.21358,2478.2359 311.12698,2479.0545 299.63092,2479.9033 287.79942,2486.4851 276.7818,2483.0952 270.39368,2481.1296 263.64981,2475.0139 261.62951,2469.9631 259.6092,2464.9124 267.69042,2464.9124 267.69042,2464.9124 Z"
 id="path983"
 inkscape:connector-curvature="0"
 sodipodi:nodetypes="cccsscaaacassasaassscssaaascasaacc" />
<path
 style="fill:#000000;stroke:none;stroke-width:1px;stroke-linecap:butt;stroke-linejoin:miter;stroke-opacity:1;fill-opacity:1"
 d="M 236.37569,2477.0342 C 244.41469,2474.0604 250.80414,2487.5114 254.55844,2495.2169 260.65005,2507.7196 260.34212,2522.7448 259.6092,2536.6332 258.42548,2559.0638 250.59847,2580.6872 244.45691,2602.2931 239.01256,2621.4463 233.86964,2640.9053 225.26402,2658.8616 215.77701,2678.657 204.406,2697.9371 189.90868,2714.42 181.2245,2724.2936 170.71578,2735.6332 159.6041,2739.6739 148.49242,2743.7145 127.27922,2758.8668 153.54319,2732.6028 179.80715,2706.3388 182.36481,2698.4744 194.95944,2680.0749 203.57093,2667.4944 212.29144,2654.7359 218.19295,2640.6789 223.72599,2627.4996 225.6668,2613.0856 229.30463,2599.2626 232.04826,2588.8374 234.91993,2578.4423 237.38585,2567.9479 239.98415,2556.8902 243.03699,2545.8827 244.45691,2534.6129 245.46798,2526.5881 247.16108,2518.2781 245.46707,2510.3692 243.89015,2503.007 236.81292,2497.555 235.36554,2490.1662 234.52158,2485.8578 232.25813,2478.5574 236.37569,2477.0342 Z"
 id="path985"
 inkscape:connector-curvature="0"
 sodipodi:nodetypes="aaaaaacsaaaaaaaa" />
<path
 style="fill:#000000;stroke:none;stroke-width:1px;stroke-linecap:butt;stroke-linejoin:miter;stroke-opacity:1;fill-opacity:1"
 d="M 292.94424,2506.3286 C 292.94424,2506.3286 306.4181,2506.5921 313.14729,2506.3286 330.35943,2505.6547 347.56046,2504.3238 364.66507,2502.288 373.13033,2501.2805 381.83766,2503.2982 389.91888,2498.2474 398.0001,2493.1966 389.91888,2481.0748 402.04071,2486.1256 414.16254,2491.1763 420.22346,2501.2779 423.25391,2507.3388 426.28437,2513.3997 424.26407,2519.4606 417.193,2518.4504 410.12193,2517.4403 414.16254,2521.4809 411.13208,2530.5723 408.10163,2539.6637 404.06102,2541.684 412.14224,2539.6637 420.22346,2537.6433 442.44681,2533.6027 446.48742,2532.5926 450.52803,2531.5824 468.71078,2533.6027 458.60925,2542.6941 448.50773,2551.7855 448.50773,2550.7753 429.31483,2550.7753 410.12193,2550.7753 404.06102,2547.7449 401.03056,2554.8159 398.0001,2561.887 394.96964,2569.9682 392.94934,2574.0088 390.92903,2578.0494 403.53197,2578.2081 409.11178,2579.0596 418.43196,2580.482 430.32498,2577.0393 437.39605,2579.0596 444.46712,2581.0799 447.49757,2581.0799 447.49757,2589.1611 447.49757,2597.2423 435.37411,2591.8694 429.31483,2591.1814 401.08859,2587.9766 374.05342,2587.8925 348.50263,2595.222 330.2923,2600.4458 301.95049,2606.3972 282.8427,2610.3744 273.72497,2612.2722 265.67012,2603.3033 265.67012,2603.3033 265.67012,2603.3033 285.10621,2597.5504 294.96454,2595.2221 318.67939,2589.6212 354.14087,2582.8423 366.68537,2581.0799 379.68963,2579.2529 383.20053,2574.0878 382.84781,2566.9377 382.56238,2561.1517 390.92903,2553.8058 368.70568,2556.8362 346.48232,2559.8667 330.31988,2563.9073 316.17774,2566.9378 302.03561,2569.9682 283.85286,2574.0088 277.79195,2574.0088 271.73103,2574.0088 269.71073,2575.019 266.68027,2568.9581 263.64981,2562.8972 258.59905,2559.8667 272.74119,2559.8667 286.88332,2559.8667 309.10668,2554.8159 319.2082,2554.8159 329.30973,2554.8159 351.53308,2547.7449 367.69552,2546.7347 383.85796,2545.7246 385.87827,2548.755 387.89857,2536.6332 389.91888,2524.5114 393.95949,2521.4809 393.95949,2515.42 393.95949,2509.3591 387.89857,2506.3286 376.7869,2511.3794 365.67522,2516.4301 343.26937,2515.3671 327.28942,2520.4708 321.97997,2522.1665 316.17774,2529.5621 312.13713,2527.5418 308.09652,2525.5215 300.0153,2519.4606 294.96454,2515.42 289.91378,2511.3794 292.94424,2506.3286 292.94424,2506.3286 Z"
 id="path987"
 inkscape:connector-curvature="0"
 sodipodi:nodetypes="caascccsccssccassssscasaccsssscsscassc" />
<path
 style="fill:#000000;stroke:none;stroke-width:1px;stroke-linecap:butt;stroke-linejoin:miter;stroke-opacity:1;fill-opacity:1"
 d="M 268.70057,2638.6586 C 268.70057,2638.6586 288.90363,2633.6078 301.02546,2632.5977 313.14729,2631.5875 323.24881,2629.5672 319.2082,2636.6383 315.16759,2643.7094 287.89347,2652.8007 285.87317,2656.8413 283.85286,2660.882 284.86302,2663.9124 276.7818,2655.8312 268.70057,2647.75 268.70057,2638.6586 268.70057,2638.6586 Z"
 id="path989"
 inkscape:connector-curvature="0" />
<path
 style="fill:#000000;fill-opacity:1;stroke:none;stroke-width:1px;stroke-linecap:butt;stroke-linejoin:miter;stroke-opacity:1"
 d="M 246.47722,2682.0951 C 246.47722,2682.0951 261.12756,2692.1733 268.70057,2690.1764 284.26091,2686.0733 296.43597,2680.0392 311.12698,2675.0241 315.46124,2673.5445 329.74621,2663.1921 324.25896,2670.9835 318.56762,2679.0647 302.49278,2693.0109 294.96454,2700.2779 283.96568,2710.8951 270.6186,2722.9487 264.65996,2725.5317 258.4044,2728.2434 250.83874,2720.3575 247.48737,2714.42 242.18839,2705.032 246.47722,2682.0951 246.47722,2682.0951 Z"
 id="path991"
 inkscape:connector-curvature="0"
 sodipodi:nodetypes="csssssac" />
<path
 style="fill:#000000;stroke:none;stroke-width:1px;stroke-linecap:butt;stroke-linejoin:miter;stroke-opacity:1;fill-opacity:1"
 d="M 369.71583,2617.4454 C 369.71583,2617.4454 377.79705,2625.5266 378.8072,2630.5774 379.81735,2635.6281 373.75644,2645.7297 373.75644,2645.7297 373.75644,2645.7297 384.86811,2642.6992 400.0204,2636.6382 415.17269,2630.5773 425.27422,2629.5672 425.27422,2624.5165 425.27422,2619.4657 411.91057,2614.8551 404.06102,2613.4048 392.72553,2611.3104 373.75644,2611.3845 369.71583,2617.4454 Z"
 id="path993"
 inkscape:connector-curvature="0"
 sodipodi:nodetypes="ccccsac" />
<path
 style="fill:#000000;stroke:none;stroke-width:1px;stroke-linecap:butt;stroke-linejoin:miter;stroke-opacity:1;fill-opacity:1"
 d="M 364.66506,2677.0444 C 368.2985,2670.9689 380.82751,2678.0545 385.87827,2678.0545 390.92903,2678.0545 398.0001,2675.0241 403.05086,2674.0139 408.10163,2673.0038 426.37667,2671.955 431.33514,2678.0545 438.41575,2686.7645 440.56361,2686.4384 443.45697,2695.2271 445.10171,2700.223 437.11279,2704.1689 432.34529,2706.3388 423.43664,2710.3936 412.60933,2710.4664 403.05086,2708.3591 395.54537,2706.7044 388.99354,2701.8626 382.84781,2697.2474 377.13619,2692.9582 372.0913,2687.7252 367.69552,2682.0952 366.48722,2680.5476 363.65732,2678.7294 364.66506,2677.0444 Z"
 id="path995"
 inkscape:connector-curvature="0"
 sodipodi:nodetypes="ascssaaaaa" />
</g>
</svg>
