<?xml version="1.0" encoding="UTF-8" standalone="no"?>
<!-- Created with Inkscape (http://www.inkscape.org/) -->

<svg
 xmlns:dc="http://purl.org/dc/elements/1.1/"
 xmlns:cc="http://creativecommons.org/ns#"
 xmlns:rdf="http://www.w3.org/1999/02/22-rdf-syntax-ns#"
 xmlns:svg="http://www.w3.org/2000/svg"
 xmlns="http://www.w3.org/2000/svg"
 xmlns:sodipodi="http://sodipodi.sourceforge.net/DTD/sodipodi-0.dtd"
 xmlns:inkscape="http://www.inkscape.org/namespaces/inkscape"
 width="512"
 height="512"
 viewBox="0 0 512.00001 512.00001"
 version="1.1"
 id="svg8"
 inkscape:version="0.92.4 (5da689c313, 2019-01-14)"
 sodipodi:docname="U+81B3.svg">
<defs
 id="defs2" />
<sodipodi:namedview
 id="base"
 pagecolor="#ffffff"
 bordercolor="#666666"
 borderopacity="1.0"
 inkscape:pageopacity="0.0"
 inkscape:pageshadow="2"
 inkscape:zoom="1.979899"
 inkscape:cx="274.88362"
 inkscape:cy="380.75362"
 inkscape:document-units="px"
 inkscape:current-layer="layer1"
 showgrid="false"
 units="px"
 fit-margin-top="0"
 fit-margin-left="0"
 fit-margin-right="-2.7755576e-17"
 fit-margin-bottom="0"
 inkscape:pagecheckerboard="false"
 inkscape:window-width="1366"
 inkscape:window-height="705"
 inkscape:window-x="-8"
 inkscape:window-y="-8"
 inkscape:window-maximized="1" />
<metadata
 id="metadata5">
<rdf:RDF>
<cc:Work
 rdf:about="">
<dc:format>image/svg+xml</dc:format>
<dc:type
 rdf:resource="http://purl.org/dc/dcmitype/StillImage" />
<dc:title></dc:title>
</cc:Work>
</rdf:RDF>
</metadata>
<g
 inkscape:label="圖層 1"
 inkscape:groupmode="layer"
 id="layer1"
 transform="translate(0,-1208.1182)">
<path
 style="fill:#000000;stroke:none;stroke-width:1px;stroke-linecap:butt;stroke-linejoin:miter;stroke-opacity:1;fill-opacity:1"
 d="M 55.55839,1297.8744 C 55.55839,1297.8744 66.376719,1303.1403 72.225907,1303.4303 81.363548,1303.8834 90.033732,1299.2129 98.994949,1297.3694 108.05126,1295.5064 117.2981,1294.5568 126.26907,1292.3186 129.52383,1291.5066 132.62901,1288.4061 135.86552,1289.2881 142.42156,1291.0747 147.62268,1297.9105 149.50258,1304.4404 150.58994,1308.2174 150.00765,1316.0572 147.48227,1316.0572 144.95689,1316.0572 140.22134,1331.2436 137.88582,1339.2907 134.07462,1352.4222 131.70468,1366.0524 130.81475,1379.6968 129.79475,1395.3354 132.83506,1420.1029 132.83506,1426.6689 132.83506,1433.2349 136.37059,1477.6816 137.38075,1486.2679 138.3909,1494.8542 145.46197,1545.3618 147.48227,1556.9786 149.50258,1568.5953 151.83963,1569.9605 153.03811,1576.6765 154.55114,1585.1552 154.82152,1593.826 155.05842,1602.4354 155.2576,1609.6741 156.57364,1620.6182 154.55334,1624.1537 152.53303,1627.6892 146.30891,1623.2778 142.93658,1621.1233 136.68762,1617.1309 133.19559,1609.9188 128.79445,1603.9507 124.24933,1597.7873 120.03977,1591.3647 116.16754,1584.7578 113.57842,1580.3402 103.03556,1569.1004 109.09647,1571.1207 115.15739,1573.141 122.73353,1586.7781 122.22846,1578.1918 121.72338,1569.6055 106.06602,1551.9278 113.13709,1554.4532 120.20815,1556.9786 131.31983,1574.1512 136.37059,1574.1512 141.42136,1574.1512 139.90613,1572.6359 139.90613,1559.5039 139.90613,1559.5039 137.66491,1548.0902 136.87567,1542.3314 134.53281,1525.2363 133.34014,1513.0369 131.82491,1490.8136 130.30968,1468.5902 125.31538,1427.5862 125.25892,1395.8592 125.22229,1375.2754 128.4353,1354.8056 129.29953,1334.2399 129.6813,1325.155 137.38075,1311.5115 129.8046,1306.9658 122.22846,1302.4201 106.47152,1307.7556 94.954339,1309.4912 88.291012,1310.4953 81.895931,1315.1877 75.256364,1314.0369 67.571728,1312.705 55.55839,1301.41 55.55839,1301.41 Z"
 id="path5177"
 inkscape:connector-curvature="0"
 sodipodi:nodetypes="caaaaasaasccaacaaascsssasaasaacc" />
<path
 style="fill:#000000;stroke:none;stroke-width:1px;stroke-linecap:butt;stroke-linejoin:miter;stroke-opacity:1;fill-opacity:1"
 d="M 77.781746,1468.0851 C 78.328932,1465.0997 82.840757,1464.7303 85.35789,1463.0344 93.296956,1457.6856 101.34297,1452.4863 109.09647,1446.8719 113.56949,1443.6329 117.83069,1440.1108 122.22846,1436.7704 128.26155,1432.1878 134.46871,1427.8328 140.4112,1423.1333 147.63088,1417.4238 160.61425,1407.476 161.6244,1405.4557 162.63456,1403.4353 157.11183,1416.1906 154.04826,1421.1131 149.42159,1428.5472 143.40063,1435.0198 137.88582,1441.8212 129.9843,1451.5661 122.81331,1462.0497 113.64216,1470.6105 109.67892,1474.31 105.84764,1479.2556 100.51018,1480.207 94.476915,1481.2824 87.840018,1478.6891 82.832509,1475.1562 80.465714,1473.4864 77.25954,1470.9342 77.781746,1468.0851 Z"
 id="path5185"
 inkscape:connector-curvature="0"
 sodipodi:nodetypes="aaaaacaaaaaa" />
<path
 style="fill:#000000;stroke:none;stroke-width:1px;stroke-linecap:butt;stroke-linejoin:miter;stroke-opacity:1;fill-opacity:1"
 d="M 78.286822,1392.3237 C 77.028717,1389.4957 79.844993,1386.1187 81.822356,1383.7374 86.565732,1378.0251 93.3904,1373.7225 100.51018,1371.6156 107.2906,1369.6091 115.23817,1368.7974 121.72338,1371.6156 124.8916,1372.9923 129.22607,1375.7643 128.79445,1379.1917 128.17007,1384.1497 120.46816,1384.7281 116.16755,1387.273 110.72111,1390.4959 105.70706,1395.1299 99.500026,1396.3643 94.850058,1397.289 89.979539,1395.9063 85.35789,1394.8491 82.918074,1394.291 79.304136,1394.6105 78.286822,1392.3237 Z"
 id="path5189"
 inkscape:connector-curvature="0"
 sodipodi:nodetypes="aaaaaaaaa" />
<path
 style="fill:#000000;stroke:none;stroke-width:1px;stroke-linecap:butt;stroke-linejoin:miter;stroke-opacity:1;fill-opacity:1"
 d="M 42.426407,1336.7653 C 44.951788,1330.7044 46.467017,1330.7044 50.507627,1334.2399 50.507627,1334.2399 53.371712,1336.4269 54.548237,1337.7755 60.380612,1344.461 65.225365,1352.0646 69.195449,1359.9988 76.320743,1374.2387 83.128698,1389.1844 85.35789,1404.9506 89.396669,1433.5153 82.354124,1462.5829 79.802051,1491.3186 78.348112,1507.6897 78.382193,1524.4045 74.246212,1540.311 71.169674,1552.143 65.515046,1563.1884 60.104076,1574.1512 55.464343,1583.5515 51.443466,1593.619 44.446712,1601.4253 39.299749,1607.1677 29.294424,1618.5979 25.75889,1615.0623 22.223356,1611.5268 32.791804,1600.2284 36.365492,1592.839 44.528141,1575.9608 55.580874,1560.2446 61.114229,1542.3314 69.44837,1515.3511 72.505661,1486.7174 73.23606,1458.4887 73.568419,1445.6436 70.678565,1432.9151 69.700526,1420.1029 68.853204,1409.0031 71.484833,1397.2296 67.680221,1386.7679 64.101146,1376.9263 53.530447,1370.9518 48.992398,1361.514 45.29382,1353.822 42.426407,1336.7653 42.426407,1336.7653 Z"
 id="path5193"
 inkscape:connector-curvature="0"
 sodipodi:nodetypes="ccaaaaaaacaaaaaac" />
<path
 style="fill:#000000;stroke:none;stroke-width:1px;stroke-linecap:butt;stroke-linejoin:miter;stroke-opacity:1;fill-opacity:1"
 d="M 213.64726,1268.0749 C 213.64726,1268.0749 224.28497,1283.8285 231.83001,1289.2881 236.84522,1292.9171 242.91562,1297.4864 249.0026,1296.3592 253.10128,1295.6002 258.21679,1291.9395 258.09398,1287.7729 257.89329,1280.9641 248.53708,1277.6715 242.43661,1274.6409 233.62156,1270.2618 213.64726,1268.0749 213.64726,1268.0749 Z"
 id="path5195"
 inkscape:connector-curvature="0"
 sodipodi:nodetypes="caaaac" />
<path
 style="fill:#000000;stroke:none;stroke-width:1px;stroke-linecap:butt;stroke-linejoin:miter;stroke-opacity:1;fill-opacity:1"
 d="M 191.92898,1325.6536 C 191.92898,1325.6536 202.53829,1329.6523 208.09142,1329.6942 224.34433,1329.8167 237.38585,1323.6333 255.56859,1318.5826 273.75134,1313.5318 279.30718,1310.5013 288.39855,1300.3998 297.48992,1290.2983 307.31578,1277.2198 314.15744,1264.0344 316.70806,1259.1187 319.4817,1253.9101 319.71328,1248.377 319.8516,1245.0722 317.85511,1242.0202 317.1879,1238.7805 316.5011,1235.4457 313.13063,1230.9442 315.67267,1228.679 320.49029,1224.3861 328.8199,1230.4221 334.36049,1233.7297 341.92745,1238.247 352.09098,1244.1215 352.54324,1252.9226 352.82665,1258.4379 346.21866,1262.0255 342.44171,1266.0546 334.93535,1274.0621 326.30131,1280.964 317.69298,1287.7729 310.40169,1293.5401 294.96454,1303.9354 294.96454,1303.9354 294.96454,1303.9354 285.36809,1309.9963 292.94424,1309.9963 300.52038,1309.9963 323.5957,1303.6469 338.90618,1300.3998 349.85688,1298.0773 360.59044,1292.287 371.73614,1293.3287 378.64764,1293.9747 386.53816,1296.0335 390.92904,1301.41 392.01506,1302.7398 392.86544,1305.0151 391.93918,1306.4607 388.0178,1312.5809 377.96587,1310.8646 370.72599,1311.5115 361.65673,1312.322 352.5446,1309.5163 343.45187,1309.9963 323.52361,1311.0484 288.39855,1318.5826 284.35794,1319.5927 280.31733,1320.6029 270.21581,1322.6232 275.26657,1324.6435 280.31733,1326.6638 288.31437,1331.8667 292.43916,1337.7755 295.36536,1341.9673 297.48992,1347.3719 296.98485,1352.4227 296.47977,1357.4734 302.0778,1356.0885 305.06607,1356.4633 308.99795,1356.9565 312.79674,1354.7133 316.68282,1353.9379 320.37465,1353.2012 324.03651,1351.6944 327.7945,1351.9176 332.36629,1352.1891 340.23855,1351.4303 340.92648,1355.9582 341.50867,1359.7901 334.82836,1360.8556 331.33003,1362.5242 320.70497,1367.5923 300.52038,1371.6156 297.48992,1372.6257 294.45947,1373.6359 293.47301,1381.8701 292.43916,1386.7679 291.0097,1393.5398 280.31733,1412.0217 290.92393,1407.476 301.53053,1402.9303 315.50627,1399.0729 328.29958,1397.3745 333.97399,1396.6212 339.98403,1395.7476 345.47217,1397.3745 349.32252,1398.5159 356.02438,1399.9498 355.5737,1403.9404 354.96999,1409.286 345.65036,1408.2322 340.4214,1409.4963 325.74625,1413.0442 310.26977,1412.0683 295.46962,1415.0521 282.0944,1417.7487 269.22477,1422.5284 256.07367,1426.1638 248.00396,1428.3945 240.19248,1433.1368 231.83001,1432.7298 225.17759,1432.4061 203.04066,1428.1841 213.14219,1425.6587 223.24371,1423.1333 238.96181,1420.8143 251.52798,1417.0724 258.42114,1415.0198 271.73103,1415.5572 271.73103,1409.4963 271.73103,1403.4354 271.73103,1386.2628 269.71073,1385.2526 267.69042,1384.2425 258.14152,1389.81 252.03306,1390.3034 246.2881,1390.7674 240.26964,1390.2733 234.86047,1388.2831 228.02419,1385.7679 211.12188,1376.6663 216.67772,1376.1613 222.23356,1375.6562 231.93456,1376.4498 239.40615,1375.1511 248.95495,1373.4914 266.17519,1373.1308 267.18534,1366.5648 268.1955,1359.9988 269.95531,1345.487 264.15489,1337.7755 260.65936,1333.1283 253.80605,1331.0779 247.99245,1331.2095 238.72897,1331.4191 231.99926,1342.5151 222.73864,1342.8262 215.17612,1343.0802 207.93169,1338.7719 201.52543,1334.745 197.79487,1332.4 191.92898,1325.6536 191.92898,1325.6536 Z"
 id="path5199"
 inkscape:connector-curvature="0"
 sodipodi:nodetypes="aacsaaaaaaaacsaaaaaacsacaaaaacasaaaaaaasascaacacaaaaca" />
<path
 style="fill:#000000;stroke:none;stroke-width:1px;stroke-linecap:butt;stroke-linejoin:miter;stroke-opacity:1;fill-opacity:1"
 d="M 205.06097,1440.3059 C 205.06097,1440.3059 231.9346,1440.3 241.93153,1447.8821 246.91105,1451.6588 248.77644,1458.5474 250.51783,1464.5496 253.15528,1473.6403 252.89191,1483.3695 253.04321,1492.8339 253.13755,1498.7353 252.03306,1510.5116 252.03306,1510.5116 252.03306,1510.5116 243.92389,1495.7112 239.91123,1488.2882 234.82497,1478.8792 230.56446,1468.987 224.75894,1460.0039 221.76136,1455.3656 218.6696,1450.6668 214.65742,1446.8719 211.84156,1444.2085 205.06097,1440.3059 205.06097,1440.3059 Z"
 id="path5203"
 inkscape:connector-curvature="0"
 sodipodi:nodetypes="caaacaaac" />
<path
 style="fill:#000000;stroke:none;stroke-width:1px;stroke-linecap:butt;stroke-linejoin:miter;stroke-opacity:1;fill-opacity:1"
 d="M 297.995,1425.6587 C 297.995,1425.6587 303.48656,1431.2509 305.06607,1434.7501 307.67437,1440.5284 308.40861,1447.1011 308.6016,1453.4379 308.96839,1465.4814 305.77309,1477.3722 304.05592,1489.2983 303.30251,1494.5309 301.53053,1504.9557 301.53053,1504.9557 301.53053,1504.9557 311.60253,1493.2838 315.67267,1486.773 321.14063,1478.0262 326.63193,1468.9555 329.30973,1458.9938 330.58019,1454.2676 331.4223,1449.1148 330.31988,1444.3466 329.18151,1439.4229 326.39652,1434.7068 322.74374,1431.2145 319.04265,1427.6761 314.15209,1425.0168 309.10669,1424.1434 305.42329,1423.5058 297.995,1425.6587 297.995,1425.6587 Z"
 id="path5205"
 inkscape:connector-curvature="0"
 sodipodi:nodetypes="caaacaaaaac" />
<path
 style="fill:none;stroke:#000000;stroke-width:1px;stroke-linecap:butt;stroke-linejoin:miter;stroke-opacity:1"
 d="M 368.70568,1478.1867 Z"
 id="path5207"
 inkscape:connector-curvature="0" />
<path
 style="fill:#000000;stroke:none;stroke-width:1px;stroke-linecap:butt;stroke-linejoin:miter;stroke-opacity:1;fill-opacity:1"
 d="M 150.51273,1482.7323 C 150.51273,1482.7323 165.46318,1499.7162 175.76654,1500.9151 191.51197,1502.7473 204.79281,1488.0996 219.70818,1482.7324 236.94553,1476.5296 254.39936,1470.7474 272.23611,1466.5699 302.7962,1459.4125 333.84451,1453.3802 365.17015,1451.4176 388.20549,1449.9744 411.35226,1452.1834 434.36559,1453.943 444.50603,1454.7183 454.51349,1457.9996 464.67017,1457.4785 469.32062,1457.2399 477.15891,1458.9609 478.30723,1454.4481 480.45535,1446.0063 466.2008,1441.5472 458.60926,1437.2755 451.83441,1433.4634 443.65102,1427.4387 436.3859,1430.2044 424.74553,1434.6356 413.10065,1432.5091 401.53564,1434.245 390.53068,1435.8969 379.64617,1438.2703 368.70568,1440.3059 357.92791,1442.3112 347.17024,1444.4254 336.3808,1446.3669 321.75243,1448.9992 307.02422,1451.0804 292.43916,1453.943 282.45815,1455.9019 272.53853,1458.1701 262.63966,1460.509 244.55847,1464.7812 226.76077,1470.2421 208.5965,1474.1461 196.39166,1476.7692 184.09489,1479.0245 171.72593,1480.712 164.68806,1481.6722 150.51273,1482.7323 150.51273,1482.7323 Z"
 id="path5209"
 inkscape:connector-curvature="0"
 sodipodi:nodetypes="caaaaaaaasaaaaaaac" />
<path
 style="fill:#000000;stroke:none;stroke-width:1px;stroke-linecap:butt;stroke-linejoin:miter;stroke-opacity:1;fill-opacity:1"
 d="M 211.62695,1513.0369 C 216.24268,1519.173 220.02228,1526.1274 225.76909,1531.2197 230.17752,1535.126 237.04799,1535.8736 240.92138,1540.311 243.4509,1543.2089 244.22527,1547.277 245.46707,1550.9176 247.20718,1556.0191 248.18059,1561.3508 249.50768,1566.575 250.70404,1571.2846 248.49753,1579.707 253.04321,1580.7172 257.5889,1581.7273 271.22596,1576.1715 279.81226,1576.1715 288.39855,1576.1715 293.44931,1572.6359 306.07622,1572.6359 H 319.2082 C 319.2082,1572.6359 325.7742,1571.6258 325.7742,1567.5852 325.7742,1563.5446 335.37065,1529.7045 335.37065,1525.1588 335.37065,1520.6131 337.89603,1514.5522 337.89603,1512.0268 337.89603,1509.5014 330.31988,1506.976 321.73359,1508.4912 313.14729,1510.0065 300.52038,1513.542 292.43916,1514.5522 284.35794,1515.5623 275.77165,1519.6029 270.72088,1521.6232 265.67012,1523.6435 262.63966,1525.6638 260.11428,1524.6537 257.5889,1523.6435 245.46707,1520.6131 242.43661,1516.0674 239.40615,1511.5217 258.34028,1514.1493 266.1752,1512.5318 274.53389,1510.8061 282.58048,1507.7638 290.92393,1505.9659 302.93722,1503.3772 315.99127,1504.7394 327.28942,1499.9049 331.15901,1498.2491 331.33004,1493.844 337.39095,1492.3288 343.45187,1490.8136 347.21545,1495.1789 352.03816,1496.8745 357.67151,1498.8552 363.93972,1499.8428 368.70568,1503.4405 371.58137,1505.6113 379.31228,1508.4912 375.27167,1512.0268 371.23106,1515.5623 364.15999,1517.0775 360.11938,1518.5928 356.07877,1520.108 353.71549,1532.0585 350.52293,1538.7958 346.137,1548.0515 336.88587,1561.5243 337.39095,1566.5751 337.89603,1571.6258 344.21367,1566.7481 347.49248,1567.5852 352.09774,1568.7609 361.12954,1569.1004 360.62446,1573.141 360.11938,1577.1816 356.07877,1583.7476 354.05847,1584.7578 352.03816,1585.7679 345.66719,1583.4157 341.43156,1583.2425 332.50965,1582.8778 323.5559,1583.4518 314.66252,1584.2527 305.17709,1585.1069 295.74923,1586.594 286.37824,1588.2933 276.37003,1590.1081 264.00762,1587.9116 256.57875,1594.8593 253.50466,1597.7342 254.55844,1603.4456 253.04321,1606.9811 251.52798,1610.5167 242.28521,1598.9506 238.90108,1593.3441 236.09265,1588.6914 235.87974,1582.9032 234.35539,1577.6867 231.84503,1569.096 230.61877,1560.0124 226.77925,1551.9278 222.05138,1541.9727 212.61386,1534.7038 208.09142,1524.6537 206.38229,1520.8555 204.60649,1516.6719 205.06097,1512.5318 205.26636,1510.6607 205.71047,1507.6363 207.58635,1507.4811 209.86847,1507.2922 210.25041,1511.2069 211.62695,1513.0369 Z"
 id="path5211"
 inkscape:connector-curvature="0"
 sodipodi:nodetypes="aaaaacsscsssccscsaaasaaccacascaaaacaaaaaaa" />
</g>
</svg>
