<?xml version="1.0" encoding="UTF-8" standalone="no"?>
<!-- Created with Inkscape (http://www.inkscape.org/) -->

<svg
   xmlns:dc="http://purl.org/dc/elements/1.1/"
   xmlns:cc="http://creativecommons.org/ns#"
   xmlns:rdf="http://www.w3.org/1999/02/22-rdf-syntax-ns#"
   xmlns:svg="http://www.w3.org/2000/svg"
   xmlns="http://www.w3.org/2000/svg"
   xmlns:sodipodi="http://sodipodi.sourceforge.net/DTD/sodipodi-0.dtd"
   xmlns:inkscape="http://www.inkscape.org/namespaces/inkscape"
   width="512"
   height="512"
   viewBox="0 0 512 512.00002"
   version="1.1"
   id="svg8"
   inkscape:version="0.92.3 (2405546, 2018-03-11)"
   sodipodi:docname="U+8178.svg">
  <defs
     id="defs2" />
  <sodipodi:namedview
     id="base"
     pagecolor="#ffffff"
     bordercolor="#666666"
     borderopacity="1.0"
     inkscape:pageopacity="0.0"
     inkscape:pageshadow="2"
     inkscape:zoom="1.4"
     inkscape:cx="54.926557"
     inkscape:cy="198.06742"
     inkscape:document-units="px"
     inkscape:current-layer="layer1"
     showgrid="false"
     units="px"
     inkscape:window-width="1920"
     inkscape:window-height="1017"
     inkscape:window-x="-8"
     inkscape:window-y="-8"
     inkscape:window-maximized="1" />
  <metadata
     id="metadata5">
    <rdf:RDF>
      <cc:Work
         rdf:about="">
        <dc:format>image/svg+xml</dc:format>
        <dc:type
           rdf:resource="http://purl.org/dc/dcmitype/StillImage" />
        <dc:title></dc:title>
      </cc:Work>
    </rdf:RDF>
  </metadata>
  <g
     inkscape:label="圖層 1"
     inkscape:groupmode="layer"
     id="layer1"
     transform="translate(0,-610.51965)">
    <path
       style="fill:#000000;stroke:none;stroke-width:1px;stroke-linecap:butt;stroke-linejoin:miter;stroke-opacity:1;fill-opacity:1"
       d="m 23.233509,1051.809 c 0,0 12.753345,-5.4145 18.182745,-9.5965 4.530987,-3.49 8.125871,-8.0966 11.616755,-12.6269 3.050149,-3.9583 5.613505,-8.2816 8.08122,-12.6269 4.275817,-7.5292 8.303246,-15.234 11.616754,-23.2335 4.074794,-9.83742 7.217543,-20.05464 10.101526,-30.30458 3.041884,-10.81114 5.666797,-21.76251 7.576144,-32.82995 2.247354,-13.02668 3.643441,-26.20767 4.545686,-39.39595 0.528711,-7.72827 0.31028,-15.48963 0.505077,-23.23351 0.296482,-11.78619 1.593196,-23.57984 1.010152,-35.35534 -0.327364,-6.61164 -0.798799,-13.30738 -2.525381,-19.69798 -1.239685,-4.58845 -1.010153,-8.58629 -5.555839,-13.13198 -4.545687,-4.54568 -12.154827,-10.6283 -15.657365,-17.67767 -1.527933,-3.07519 -2.740918,-6.74413 -2.020305,-10.10152 0.607857,-2.83206 1.515229,-10.10153 5.050763,-7.07107 3.535534,3.03046 11.111678,11.61675 14.142136,16.66752 3.030457,5.05076 8.586296,12.12183 9.596449,17.17259 1.010154,5.05076 2.525384,17.67767 3.030454,20.70813 0.50508,3.03045 0.50508,6.56599 4.54569,4.54568 4.04061,-2.0203 11.90177,-5.6699 17.93021,-8.33375 2.5883,-1.14372 4.79822,-3.283 7.82868,-3.283 3.03046,0 13.63706,2.52538 16.66752,3.53553 3.03045,1.01015 7.57614,2.52538 3.53553,5.05077 -4.04061,2.52538 -24.24366,15.15228 -27.27412,17.17259 -3.03046,2.0203 -7.57614,2.52538 -11.11168,0.50507 -3.53553,-2.0203 -11.11167,-6.06091 -11.11167,-3.53553 v 19.1929 20.70813 c 0,5.05076 0.50507,13.63706 3.03045,14.64721 2.52538,1.01015 6.58527,0.58741 9.59645,-0.50508 10.28718,-3.73231 17.54951,-13.07872 26.26397,-19.69797 4.39778,-3.34042 8.68302,-6.82959 13.13198,-10.10153 6.13337,-4.51072 12.40532,-8.8314 18.68782,-13.13198 4.50817,-3.08599 13.63707,-9.09138 13.63707,-9.09138 0,0 -3.84902,6.19779 -6.06092,9.09138 -6.377,8.34234 -13.80851,15.82303 -20.70813,23.73858 -4.54772,5.21735 -9.01931,10.5019 -13.63706,15.65737 -5.80312,6.47887 -10.60118,14.1357 -17.67767,19.1929 -3.74122,2.67365 -8.10421,4.72497 -12.6269,5.55584 -3.0431,0.55905 -6.3016,0.39843 -9.26995,-0.47444 -2.15272,-0.63303 -3.97744,-3.71452 -5.83892,-3.34982 -1.47776,0.28953 -2.568804,4.05642 -2.568804,5.84456 0,4.04061 -2.077289,30.76572 -4.545687,45.96194 -1.827007,11.24762 -4.105157,22.4815 -7.576144,33.33504 -2.528645,7.9069 -5.658812,15.6729 -9.596449,22.981 -4.573766,8.4887 -9.276737,17.2409 -16.162441,23.9911 -4.435308,4.348 -8.08122,8.0812 -15.657364,10.1015 -7.576144,2.0203 -22.728432,3.0305 -22.728432,3.0305 z"
       id="path3726"
       inkscape:connector-curvature="0"
       sodipodi:nodetypes="caaaaaaaaaacaasssccassccsscssaaaacaaaaaassaaaasc" />
    <path
       style="fill:#000000;stroke:none;stroke-width:1px;stroke-linecap:butt;stroke-linejoin:miter;stroke-opacity:1;fill-opacity:1"
       d="m 98.742411,748.25813 c 2.432039,-0.94603 5.257769,0.44747 7.828679,0 10.30936,-1.79434 20.48736,-5.3696 29.54697,-10.6066 3.15407,-1.82324 5.11313,-5.36813 8.33375,-7.07107 4.47739,-2.36747 9.09138,-2.77792 14.64722,-4.04061 5.55584,-1.26269 8.42107,-1.43255 12.37436,-0.25254 7.13717,2.13035 17.1726,11.11168 18.43529,12.62691 1.26269,1.51523 4.29315,4.29315 2.0203,7.32361 l -2.27284,3.03045 c 0,0 -6.06091,5.05077 -9.59645,9.09138 -3.53553,4.04061 -4.29315,7.57614 -6.31345,12.6269 -2.02031,5.05077 -4.04061,25.50636 -4.04061,33.0825 0,7.57614 -2.02031,37.12311 -2.02031,41.41625 0,4.29315 -1.62102,23.05104 -1.76776,34.59773 -0.12519,9.85143 0.44201,19.69979 0.75761,29.54696 0.42097,13.13495 1.05745,26.26223 1.51523,39.39595 0.37552,10.77368 0.75761,27.7792 1.01015,32.32489 0.25254,4.54568 3.09537,13.05504 3.03046,19.69796 -0.0576,5.8953 -1.51523,12.1218 -3.03046,17.4251 -1.51523,5.3033 -2.27284,7.3236 -2.77792,9.0914 -0.50507,1.7678 -4.04061,5.8084 -6.81853,0.5051 -2.77792,-5.3033 -6.85192,-14.3353 -10.35406,-21.4658 -3.07027,-6.2512 -6.01302,-12.57143 -9.34391,-18.68778 -3.0864,-5.66741 -6.80497,-10.97723 -9.84899,-16.66751 -2.37979,-4.44861 -6.56599,-13.63707 -6.56599,-13.63707 0,0 4.94099,2.59263 7.3236,4.04062 5.96555,3.62544 11.41151,8.07163 17.42514,11.61675 2.36764,1.39576 6.31345,3.03046 7.3236,3.78807 1.01015,0.75762 3.53554,0 3.283,-3.28299 -0.25254,-3.283 -1.82884,-41.2378 -2.02031,-61.87185 -0.11092,-11.95414 0.38615,-23.90635 0.50508,-35.86041 0.14405,-14.47838 0.40092,-28.95822 0.25254,-43.43656 -0.13117,-12.79902 -1.26269,-32.32488 -1.01016,-38.3858 0.25254,-6.06091 -0.16149,-20.43342 1.01016,-30.55711 0.39478,-3.41109 2.27284,-8.5863 2.0203,-10.10153 -0.25254,-1.51523 0.25254,-4.54568 -4.04061,-2.52538 -4.29315,2.02031 -22.22335,8.08122 -25.75889,9.59645 -3.53553,1.51523 -7.57614,4.04061 -11.11168,3.78807 -3.53553,-0.25254 -15.9099,-5.55584 -19.192894,-6.81853 -3.282996,-1.26269 -4.172627,-4.06864 -3.788072,-6.56599 0.208554,-1.35438 1.753334,-2.28114 3.030457,-2.77792 z"
       id="path4533"
       inkscape:connector-curvature="0"
       sodipodi:nodetypes="aaaasasscccssaaasascsaaacaacsaaacasccssaa" />
    <path
       style="fill:#000000;stroke:none;stroke-width:1px;stroke-linecap:butt;stroke-linejoin:miter;stroke-opacity:1;fill-opacity:1"
       d="m 256.07367,683.60837 c 0,0 6.56599,4.54568 10.10153,8.08122 3.53553,3.53553 9.3437,8.93552 10.6066,14.89975 0.87207,4.11849 -0.58893,8.63637 -2.52538,12.37437 -3.56109,6.87411 -12.62691,14.14213 -15.90991,16.92005 -3.28299,2.77792 -13.76286,9.91905 -20.96066,14.39468 -7.45723,4.63695 -14.9496,9.32856 -22.98097,12.87944 -4.38236,1.93756 -10.10153,3.03046 -13.63706,4.54569 -3.53554,1.51523 -5.3033,2.52538 -2.77792,3.28299 2.52538,0.75762 11.77835,2.285 17.67767,1.76777 6.18561,-0.54233 12.22319,-2.60418 17.93021,-5.05076 5.30757,-2.27534 9.62261,-6.49379 14.89975,-8.83884 2.33581,-1.03799 4.29314,-3.78807 7.3236,-2.27284 3.03046,1.51523 5.80838,5.3033 8.83884,8.5863 3.03045,3.28299 4.79822,8.83883 6.56599,12.6269 1.76777,3.78808 3.28299,12.37437 3.28299,15.90991 0,3.53553 -0.0316,7.57627 0,11.36421 0.0421,5.05129 0.31563,10.10122 0.25254,15.15229 -0.0505,4.0438 -1.26269,9.09137 -0.50507,12.12183 0.75761,3.03046 1.76776,4.54569 2.52538,6.31345 0.75761,1.76777 -0.91889,7.08532 -1.51523,10.60661 -0.73049,4.31348 -3.283,11.36421 -2.52538,12.87944 0.75761,1.51523 2.0203,2.02031 1.26269,4.79823 -0.75762,2.77792 -9.59645,11.11167 -11.61676,14.39467 -2.0203,3.283 -10.11897,12.10279 -15.9099,17.42513 -4.06609,3.73708 -8.71242,6.78998 -13.13198,10.10152 -3.08564,2.31206 -6.1302,4.68808 -9.34391,6.81854 -2.45468,1.62728 -13.38452,5.05076 -7.57615,4.54568 5.80838,-0.50507 10.48749,-0.61109 15.40483,-2.27284 4.28348,-1.44754 8.14497,-4.0022 11.86929,-6.56599 4.62545,-3.18413 8.5759,-7.2518 12.87945,-10.85914 4.0309,-3.37879 8.20467,-6.59151 12.12183,-10.10153 2.34993,-2.10568 4.55,-4.37285 6.81853,-6.56599 2.86757,-2.77227 7.40203,-4.52509 8.58629,-8.33376 0.63724,-2.04937 0.25254,-4.29315 -1.26269,-6.31345 -1.51523,-2.02031 -2.27284,-3.53553 -3.28299,-5.3033 -1.01016,-1.76777 2.52538,-16.92006 2.52538,-18.94036 0,-2.02031 1.26269,-5.05076 2.0203,-7.07107 0.75762,-2.02031 0.75762,-12.62691 0.75762,-14.89975 0,-2.27284 0.50507,-7.07107 0.25254,-11.86929 -0.25254,-4.79823 1.76776,-11.8693 2.27284,-12.87945 0.50507,-1.01015 3.0157,1.87655 4.54569,2.77792 3.08567,1.81786 6.1553,3.67273 9.34391,5.3033 4.86298,2.4868 9.54745,5.72964 14.89975,6.81853 2.97077,0.60438 7.07106,-0.50507 9.09137,-0.25254 2.02031,0.25254 7.82868,4.29315 5.3033,-0.25253 -2.52538,-4.54569 -4.29315,-4.79823 -5.80838,-5.3033 -1.51523,-0.50508 -0.4374,-8.85396 -2.77792,-12.37437 -2.57347,-3.87078 -7.11386,-6.19967 -11.36421,-8.08122 -5.04285,-2.23238 -10.2831,-2.4614 -16.16244,-3.53554 -2.51853,-0.46013 -6.56599,-2.27284 -5.55584,-5.3033 1.01015,-3.03046 1.01823,-6.82074 -0.25254,-9.84899 -1.40518,-3.34855 -4.66805,-5.65374 -7.57614,-7.82868 -3.19619,-2.39041 -7.10871,-3.63375 -10.60661,-5.55584 -2.80926,-1.54369 -7.3236,-3.28299 -8.33375,-4.79822 -1.01016,-1.51523 1.76776,-2.27284 5.3033,-5.05076 3.53553,-2.77792 9.84898,-8.83884 15.65736,-12.37437 5.80838,-3.53554 11.36422,-8.83884 11.86929,-10.85914 0.50508,-2.02031 0.75762,-6.81853 -1.01015,-9.59645 -1.76777,-2.77792 -3.53553,-5.05076 0.75762,-8.5863 4.29314,-3.53553 2.77791,-5.05076 6.31345,-2.27284 3.53553,2.77792 8.33567,9.00365 13.63706,11.86929 3.00075,1.62204 6.31345,2.52538 9.84899,2.77792 3.53553,0.25254 4.25786,-2.33532 6.56599,-3.03046 7.42119,-2.23503 15.30763,-2.44499 22.98097,-3.53553 9.6655,-1.37367 19.32143,-2.88154 29.04188,-3.78807 5.96035,-0.55586 12.01689,-0.0788 17.93021,-1.01016 3.61028,-0.56861 8.8658,0.43566 10.60659,-2.77792 1.39471,-2.57469 -0.74793,-6.22343 -2.7779,-8.33376 -3.80444,-3.95506 -9.94069,-5.29903 -15.40483,-5.80837 -13.022,-1.21385 -25.7879,4.38703 -38.63834,6.81853 -8.35389,1.58068 -16.53603,4.25972 -25.00127,5.05076 -6.45424,0.60312 -13.12853,1.20265 -19.44544,-0.25254 -3.08244,-0.71008 -5.42431,-3.95413 -8.5863,-4.04061 -3.3596,-0.0919 -6.06091,0.75762 -9.34391,3.78808 -3.28299,3.03045 -3.28299,3.78807 -4.79822,-2.02031 -1.51523,-5.80838 -0.75762,-8.33376 -12.37437,-10.35406 -11.61676,-2.02031 -19.1929,-3.03046 -19.1929,-3.03046 z"
       id="path4535"
       inkscape:connector-curvature="0"
       sodipodi:nodetypes="csaacaaccaaasscsaaccacccaaacaaaaaaccscsccaaacscaassaaaccccsscasaaaaaaaaaaasssc" />
    <path
       style="fill:#000000;stroke:none;stroke-width:1px;stroke-linecap:butt;stroke-linejoin:miter;stroke-opacity:1;fill-opacity:1"
       d="m 197.9899,884.62873 c 4.04061,4.04061 7.02035,2.73414 10.6066,2.27284 3.63623,-0.46773 6.50661,-3.26994 9.7604,-4.95274 6.86992,-3.55302 13.70249,-7.35535 20.79672,-10.45209 7.07927,-3.09021 14.35673,-5.74174 21.71828,-8.08122 10.95572,-3.48169 22.1437,-6.2113 33.33503,-8.83883 20.82942,-4.89039 41.73069,-9.65412 62.882,-12.87945 17.39722,-2.65288 35.06696,-3.10892 52.52793,-5.3033 7.8551,-0.98718 16.41833,0.0316 23.48605,-3.53553 2.4444,-1.23372 5.83948,-3.07046 5.80837,-5.80838 -0.0595,-5.23911 -6.4568,-9.02364 -11.36421,-10.85914 -10.10322,-3.77887 -21.66749,-0.15052 -32.32489,1.51523 -12.14532,1.89831 -23.69607,6.55977 -35.60787,9.59645 -21.98064,5.60353 -44.09347,10.67582 -66.165,15.9099 -16.90756,4.00949 -33.89188,7.69763 -50.76016,11.86929 -7.76961,1.92148 -15.39983,4.42007 -23.23351,6.06092 -3.67081,0.76889 -7.36621,1.57419 -11.11168,1.76777 -4.63056,0.23933 -9.44226,0.55413 -13.88959,-0.75762 -3.90571,-1.15199 -10.60661,-6.06091 -10.60661,-6.06091 0,0 10.10153,24.4962 14.14214,28.53681 z"
       id="path4537"
       inkscape:connector-curvature="0"
       sodipodi:nodetypes="ssssaaaaaaaaaaaaaacs" />
    <path
       style="fill:#000000;stroke:none;stroke-width:1px;stroke-linecap:butt;stroke-linejoin:miter;stroke-opacity:1;fill-opacity:1"
       d="m 309.35922,721.23655 c 0,0 5.7609,0.0182 8.5863,0.50508 2.67784,0.46148 5.39486,1.0644 7.82868,2.27284 6.95167,3.45163 17.9302,11.61675 18.68782,13.8896 0.75761,2.27284 0.83041,2.84181 0.75761,4.29315 -0.17089,3.4068 -0.0582,7.79023 -2.77792,9.84898 -1.0739,0.8129 -3.00063,-0.85586 -4.04061,0 -3.37806,2.78002 -2.08779,8.52649 -2.52538,12.87945 -1.24615,12.39635 -0.42035,24.91794 -0.25254,37.37564 0.10097,7.49554 0.54618,14.98266 0.75762,22.4759 0.31349,11.11012 0.74246,22.22049 0.75761,33.33503 0.006,4.20981 0.30874,8.45468 -0.25254,12.62691 -1.09972,8.17465 -1.26719,17.27885 -6.06091,23.99112 -1.34338,1.88104 -3.61991,4.5321 -5.80838,3.78807 -4.81439,-1.63679 -3.06798,-9.71215 -5.05076,-14.39467 -1.39453,-3.2933 -2.92707,-6.54861 -4.79822,-9.59645 -1.47985,-2.41046 -3.45268,-4.48478 -5.05077,-6.81853 -1.06881,-1.56082 -3.03046,-4.79823 -3.03046,-4.79823 0,0 7.99978,4.65331 11.8693,3.283 3.413,-1.20864 5.11455,-5.42239 6.31345,-8.83883 4.07568,-11.61426 1.98835,-24.56198 2.02031,-36.87057 0.0265,-10.19819 -1.07219,-20.36853 -1.51523,-30.55712 -0.39157,-9.00498 -0.84177,-18.00967 -1.01016,-27.02158 -0.11166,-5.97569 -0.33052,-11.96261 0,-17.9302 0.12646,-2.28333 1.387,-4.62001 0.75762,-6.81853 -1.12166,-3.91815 -4.74945,-6.66051 -7.57615,-9.59645 -2.60909,-2.70993 -8.58629,-7.32361 -8.58629,-7.32361 z"
       id="path4539"
       inkscape:connector-curvature="0"
       sodipodi:nodetypes="caacaaaaaaaaaaaaacaaaaaaaac" />
    <path
       style="fill:#000000;stroke:none;stroke-width:1px;stroke-linecap:butt;stroke-linejoin:miter;stroke-opacity:1;fill-opacity:1"
       d="m 225.51656,972.76453 c 0,0 13.31209,-7.92462 19.44543,-12.6269 8.89336,-6.81831 16.91395,-14.71857 25.00128,-22.4759 7.47501,-7.17 16.19604,-13.4604 21.71828,-22.22335 1.95936,-3.1092 4.96737,-6.87334 3.78807,-10.35407 -0.3522,-1.03952 -1.90118,-1.10748 -2.77792,-1.76776 -2.33421,-1.75792 -7.34157,-2.99106 -6.56599,-5.80838 0.84134,-3.0562 6.17673,-1.63689 9.34391,-1.76777 8.87963,-0.36693 17.67478,1.87995 26.5165,2.77792 5.13332,0.52134 10.24895,1.31607 15.40483,1.51523 8.07695,0.31199 16.18228,0.0854 24.24366,-0.50507 10.06964,-0.7375 19.9559,-3.88613 30.05204,-3.78808 4.08316,0.0397 8.05289,2.11055 12.12183,1.76777 2.99755,-0.25252 5.58511,-2.57323 8.5863,-2.77792 2.38876,-0.16292 4.89165,0.27129 7.07106,1.26269 5.01404,2.28087 11.11168,7.82868 12.87945,10.35407 1.76777,2.52538 0.75761,6.06091 -3.283,6.81852 -4.04061,0.75762 -12.54138,12.22037 -18.43528,18.68783 -10.74464,11.79025 -20.60425,24.35805 -30.80965,36.61803 -4.74416,5.69927 -9.33782,11.52394 -14.14214,17.17259 -8.34738,9.81438 -16.56396,19.76642 -25.50635,29.04192 -5.8688,6.0874 -12.76483,11.1525 -18.43528,17.4251 -4.3471,4.8087 -7.20329,10.9049 -11.8693,15.4048 -3.64866,3.5188 -7.34474,8.2085 -12.37437,8.8389 -4.83946,0.6065 -11.57615,-0.8828 -13.63705,-5.3033 -1.99096,-4.2705 5.15791,-8.7127 4.54568,-13.3846 -0.59155,-4.5141 -4.80854,-7.7493 -7.57614,-11.3642 -4.3518,-5.6841 -10.79677,-9.8335 -14.14214,-16.1624 -1.09726,-2.0759 -1.76776,-6.8186 -1.76776,-6.8186 0,0 -13.62125,14.9155 -21.46575,21.2133 -7.50164,6.0225 -15.68485,11.2651 -24.24366,15.6573 -4.90936,2.5194 -9.94359,5.2708 -15.40482,6.0609 -4.76702,0.6897 -12.51987,3.1742 -14.39468,-1.2626 -1.14117,-2.7006 3.33648,-4.9029 5.55584,-6.8186 3.7154,-3.2071 8.44792,-4.9995 12.65101,-7.534 8.18471,-4.9356 16.60632,-9.8968 24.4721,-14.9419 9.59059,-6.1514 19.71137,-11.688 28.28427,-19.19288 4.755,-4.16264 8.2686,-9.56581 12.62691,-14.14214 5.29567,-5.56057 10.84203,-10.8798 16.41497,-16.16244 6.61649,-6.27183 14.09567,-11.66672 20.20306,-18.43528 3.50772,-3.88745 7.10881,-7.89186 9.34391,-12.62691 1.62973,-3.45257 2.50078,-7.30387 2.77792,-11.11168 0.12282,-1.68752 -1.88674,-4.07412 -0.50508,-5.05076 2.58303,-1.82583 6.18175,1.98542 8.5863,4.04061 2.16531,1.8507 4.85467,4.22318 4.79822,7.07107 -0.0871,4.39343 -4.93317,7.30118 -7.82868,10.6066 -6.70795,7.65759 -14.92479,13.86551 -21.97082,21.21321 -6.9336,7.23046 -13.16202,15.10903 -19.95051,22.47589 -3.63116,3.94053 -9.19665,6.61217 -11.11168,11.61675 -0.9331,2.43848 -1.11626,5.60536 0.25254,7.82866 2.12208,2.0336 5.60446,2.2585 8.25657,3.6922 2.93076,1.5844 5.50186,3.7754 8.41095,5.3992 6.11499,3.4132 11.98605,9.9164 18.94036,9.0913 2.91138,-0.3454 4.61729,-3.6193 6.81853,-5.5558 4.7396,-4.1696 7.14005,-6.1541 13.736,-13.0371 9.3582,-9.76559 20.20389,-19.47105 29.44802,-29.13674 5.89482,-6.16364 11.45682,-12.64365 16.92005,-19.19289 6.18137,-7.41013 12.27902,-14.90646 17.93021,-22.72844 2.95333,-4.0878 6.70379,-7.85454 8.33376,-12.6269 0.8739,-2.55867 1.59008,-5.79374 0.60674,-8.08867 -1.43988,-3.36037 -5.31136,-5.8809 -8.9405,-6.81108 -12.61634,-3.23369 -25.61924,5.44548 -38.63834,5.80837 -8.1135,0.22615 -16.22176,-1.0362 -24.24366,-2.27284 -4.3406,-0.66914 -8.61332,-1.7345 -12.87944,-2.77792 -2.84747,-0.69644 -5.64989,-1.56593 -8.48186,-2.32294 -1.54754,-0.41366 -3.3459,-2.14264 -4.65012,-1.21259 -1.78725,1.2745 -0.187,4.39403 -0.50508,6.56599 -0.57421,3.92087 -0.60396,8.15105 -2.52538,11.61675 -4.44508,8.01768 -12.9251,13.0147 -19.69798,19.1929 -6.70515,6.11642 -13.60725,12.02549 -20.70812,17.67767 -4.7553,3.78515 -9.22354,8.11616 -14.64722,10.85914 -4.08692,2.06692 -8.63629,3.16666 -13.13198,4.04061 -2.90274,0.56428 -8.83883,0.75761 -8.83883,0.75761 z"
       id="path4541"
       inkscape:connector-curvature="0"
       sodipodi:nodetypes="caaaaaaaaaaaaaaccaaaaaaaaaaacaaaaaasaaaaaaaaaaaaacaaaassaaasaaaaaaaaaaaac" />
  </g>
</svg>
