<?xml version="1.0" encoding="UTF-8" standalone="no"?>
<!-- Created with Inkscape (http://www.inkscape.org/) -->

<svg
 xmlns:dc="http://purl.org/dc/elements/1.1/"
 xmlns:cc="http://creativecommons.org/ns#"
 xmlns:rdf="http://www.w3.org/1999/02/22-rdf-syntax-ns#"
 xmlns:svg="http://www.w3.org/2000/svg"
 xmlns="http://www.w3.org/2000/svg"
 xmlns:sodipodi="http://sodipodi.sourceforge.net/DTD/sodipodi-0.dtd"
 xmlns:inkscape="http://www.inkscape.org/namespaces/inkscape"
 width="512"
 height="512"
 viewBox="0 0 512 512"
 version="1.1"
 id="svg8"
 inkscape:version="0.92.4 (5da689c313, 2019-01-14)"
 sodipodi:docname="U+98EB.svg">
<defs
 id="defs2" />
<sodipodi:namedview
 id="base"
 pagecolor="#ffffff"
 bordercolor="#666666"
 borderopacity="1.0"
 inkscape:pageopacity="0.0"
 inkscape:pageshadow="2"
 inkscape:zoom="1.4"
 inkscape:cx="250.33434"
 inkscape:cy="239.41016"
 inkscape:document-units="px"
 inkscape:current-layer="layer1"
 showgrid="false"
 units="px"
 inkscape:window-width="1366"
 inkscape:window-height="705"
 inkscape:window-x="-8"
 inkscape:window-y="-8"
 inkscape:window-maximized="1" />
<metadata
 id="metadata5">
<rdf:RDF>
<cc:Work
 rdf:about="">
<dc:format>image/svg+xml</dc:format>
<dc:type
 rdf:resource="http://purl.org/dc/dcmitype/StillImage" />
<dc:title></dc:title>
</cc:Work>
</rdf:RDF>
</metadata>
<g
 inkscape:label="圖層 1"
 inkscape:groupmode="layer"
 id="layer1"
 transform="translate(0,-2307.4759)">
<path
 style="fill:#000000;stroke:none;stroke-width:1px;stroke-linecap:butt;stroke-linejoin:miter;stroke-opacity:1;fill-opacity:1"
 d="M 132.83506,2382.5849 C 135.02794,2386.8386 139.20648,2389.759 141.92643,2393.6966 144.79865,2397.8546 149.08889,2401.792 149.50258,2406.8286 149.73807,2409.6957 147.54657,2412.2409 146.46739,2414.9076 144.88339,2418.8217 143.53272,2422.8699 141.42136,2426.5266 135.76409,2436.3245 128.25662,2444.9426 121.21831,2453.8007 111.03961,2466.6112 100.04691,2478.7535 89.3985,2491.1763 78.833264,2503.5021 69.367129,2516.8853 57.578695,2528.0469 48.775591,2536.3819 38.380555,2542.8557 28.789348,2550.2703 23.567369,2554.3072 17.728639,2557.6554 13.131983,2562.3921 9.9424882,2565.6788 2.3856573,2569.7792 5.0507627,2573.5038 8.2101238,2577.9191 15.732991,2571.0732 20.61012,2568.6878 28.39343,2564.8811 35.103598,2559.1527 41.921331,2553.8058 49.149505,2548.137 55.826435,2541.7956 62.629458,2535.623 65.363994,2533.1419 67.024679,2527.8296 70.710678,2528.0469 74.885365,2528.293 76.911255,2533.9081 78.791899,2537.6433 83.382951,2546.7617 84.295435,2557.3549 85.862966,2567.4428 88.610914,2585.1274 89.047237,2603.1046 89.903577,2620.9809 90.693207,2637.4646 90.93075,2653.9758 90.913729,2670.4784 90.898271,2685.4661 92.316459,2700.638 89.903577,2715.4302 89.080574,2720.4756 88.745738,2726.2491 85.35789,2730.0774 82.910904,2732.8426 78.295208,2732.5257 75.256365,2734.6231 72.513045,2736.5166 68.669347,2738.3961 68.185297,2741.6941 67.463345,2746.613 71.246639,2751.8869 75.256365,2754.8261 78.159144,2756.9539 82.292536,2757.2998 85.862967,2756.8464 90.539928,2756.2525 94.53686,2753.1078 98.654406,2750.8116 106.49015,2746.4419 113.93047,2741.3709 121.21831,2736.1383 132.02573,2728.3787 142.77647,2720.4351 152.53303,2711.3896 154.96156,2709.1381 157.4218,2706.8342 159.26438,2704.0825 161.36368,2700.9473 165.70727,2692.1544 164.04117,2693.8205 164.04117,2693.8205 157.371,2696.0595 154.19275,2697.5497 150.43175,2699.3132 146.98896,2701.689 143.3469,2703.6866 133.51587,2709.0787 123.0854,2715.3635 113.64216,2719.4708 109.58967,2721.2334 104.41588,2726.3337 101.01525,2723.5114 94.748302,2718.3103 103.43811,2707.3892 104.04571,2699.2678 104.54829,2692.5501 103.36341,2685.6957 104.55079,2679.0647 105.29501,2674.9085 105.66622,2670.0683 108.64793,2667.0788 112.02936,2663.6886 117.60431,2663.6401 122.22845,2662.3972 129.84928,2660.3487 137.83077,2659.861 145.46197,2657.8515 153.18467,2655.8179 160.20479,2650.3506 168.1904,2650.2753 171.01248,2650.2487 173.51714,2653.4153 176.27162,2652.8007 178.94652,2652.2039 181.12841,2649.7069 182.33253,2647.2449 185.07836,2641.6307 183.65284,2634.8038 183.84776,2628.5571 184.13136,2619.4686 182.6447,2610.349 183.34269,2601.2829 183.94609,2593.4453 185.03723,2585.5519 187.3833,2578.0494 189.6539,2570.7883 192.62348,2563.5785 196.97975,2557.3413 198.20675,2555.5845 199.9722,2554.2719 201.52543,2552.7956 206.62313,2547.9505 212.85373,2544.1961 217.1828,2538.6535 218.94456,2536.3979 221.7264,2533.8949 221.22341,2531.0773 220.07172,2524.626 212.18875,2521.3269 206.54091,2518.0031 202.09409,2515.3861 196.90711,2511.5377 191.92898,2512.8946 189.16284,2513.6485 187.03612,2516.6712 186.37314,2519.4606 185.37221,2523.6718 189.8962,2527.7871 189.4036,2532.0875 188.58959,2539.1938 182.28878,2544.5719 179.80715,2551.2804 176.67627,2559.744 174.60133,2568.6234 173.24116,2577.5444 171.91941,2586.2134 173.26597,2595.1754 171.72593,2603.8083 170.30425,2611.7777 165.56017,2618.9973 164.65486,2627.0418 164.3906,2629.39 166.77024,2632.3835 165.15994,2634.1129 162.86537,2636.5772 158.40574,2633.7478 155.05842,2634.1129 145.91541,2635.1102 136.6879,2636.5908 127.62231,2638.481 124.10179,2639.215 120.77282,2641.2732 117.17769,2641.184 114.35636,2641.1139 110.87526,2640.8497 109.09648,2638.6586 106.00708,2634.8531 107.82142,2628.9211 107.68818,2624.0213 107.49113,2616.775 108.703,2609.5412 108.5914,2602.2931 108.41209,2590.6473 106.48719,2579.0824 106.06602,2567.4428 105.91382,2563.2366 107.1087,2558.8937 106.06602,2554.8159 103.54628,2544.9615 97.479721,2532.0875 91.418805,2528.0469 85.35789,2524.0063 83.777093,2525.3596 82.832509,2521.986 81.694033,2517.9199 85.616,2513.9313 87.883271,2510.3692 95.120493,2498.9989 105.97059,2490.3742 114.65231,2480.0646 125.91495,2466.6901 135.67354,2452.0484 147.48227,2439.1535 151.26195,2435.0262 156.15994,2431.9479 159.6041,2427.5367 162.94541,2423.2572 167.90114,2418.8197 167.68532,2413.3946 167.48066,2408.25 161.3649,2405.1983 158.98085,2400.6349 155.74905,2394.4487 154.21334,2384.4506 151.52288,2381.0697 148.80914,2377.6595 144.78784,2375.154 140.72528,2373.4516 137.31328,2372.0218 132.33295,2371.2037 129.8046,2371.4733 126.49005,2371.8267 131.07588,2379.1725 132.83506,2382.5849 Z"
 id="path826"
 inkscape:connector-curvature="0"
 sodipodi:nodetypes="aaaaaaaaaacaaaaaaaaaaaaaaaaaacaasaaaaaaaaaaaaaaaaaaaaaaaaasaaaaaaasaaaaaaasaca" />
<path
 style="fill:#000000;stroke:none;stroke-width:1px;stroke-linecap:butt;stroke-linejoin:miter;stroke-opacity:1;fill-opacity:1"
 d="M 89.3985,2539.6636 C 89.3985,2539.6636 107.44584,2533.7678 116.67262,2531.5824 132.48334,2527.8376 148.48957,2524.6349 164.65486,2522.9961 171.35696,2522.3167 181.82746,2522.4911 184.85792,2522.4911 187.88837,2522.4911 193.44421,2519.9657 197.9899,2523.5012 202.53559,2527.0367 200.51528,2533.6027 196.47467,2533.0976 192.43406,2532.5926 180.93792,2532.7278 173.24116,2533.6027 164.1863,2534.632 154.86442,2535.6062 146.47212,2539.1586 141.22587,2541.3793 137.50535,2546.3738 132.32998,2548.755 127.09841,2551.1621 121.32756,2552.2663 115.66247,2553.3007 112.1687,2553.9386 108.5914,2552.2905 105.05586,2554.3109 101.52033,2556.3312 98.489873,2555.8261 94.449263,2551.2804 90.408653,2546.7347 89.3985,2539.6636 89.3985,2539.6636 Z"
 id="path828"
 inkscape:connector-curvature="0"
 sodipodi:nodetypes="caasscaaaacsc" />
<path
 style="fill:#000000;stroke:none;stroke-width:1px;stroke-linecap:butt;stroke-linejoin:miter;stroke-opacity:1;fill-opacity:1"
 d="M 116.16754,2591.1814 C 116.71951,2595.6651 123.80139,2596.7263 128.28937,2597.2423 136.20011,2598.1518 144.27659,2594.9878 151.52288,2591.6865 155.47672,2589.8852 162.52411,2588.4373 162.12948,2584.1104 161.58905,2578.185 151.90953,2576.8332 145.96704,2576.5342 142.02665,2576.3359 138.49139,2579.0646 134.79978,2580.4567 130.91158,2581.9229 126.78985,2582.9626 123.23861,2585.1205 120.58563,2586.7326 115.78824,2588.1003 116.16754,2591.1814 Z"
 id="path836"
 inkscape:connector-curvature="0"
 sodipodi:nodetypes="aaaaaaaa" />
<path
 style="fill:#000000;stroke:none;stroke-width:1px;stroke-linecap:butt;stroke-linejoin:miter;stroke-opacity:1;fill-opacity:1"
 d="M 129.29953,2483.0951 C 127.0851,2489.1114 133.37961,2496.4962 138.89598,2499.7626 145.85111,2503.8809 155.17535,2501.6477 163.13964,2500.2677 166.86748,2499.6218 172.64532,2499.8468 173.74624,2496.2271 175.18709,2491.4898 169.27599,2486.8578 165.15994,2484.1053 161.42781,2481.6095 156.48052,2481.6881 152.02833,2481.1088 146.84964,2480.435 141.53088,2479.7671 136.37059,2480.5697 133.89749,2480.9544 130.16405,2480.7463 129.29953,2483.0951 Z"
 id="path838"
 inkscape:connector-curvature="0"
 sodipodi:nodetypes="aaaaaaaa" />
<path
 style="fill:#000000;stroke:none;stroke-width:1px;stroke-linecap:butt;stroke-linejoin:miter;stroke-opacity:1;fill-opacity:1"
 d="M 165.15994,2428.0418 C 165.67681,2422.4692 175.22824,2422.2692 180.81731,2421.9809 190.40249,2421.4864 199.72917,2425.884 208.5965,2429.557 209.85053,2430.0764 211.02865,2430.7868 212.13203,2431.5773 216.88278,2434.9811 223.57621,2437.5989 225.26402,2443.1941 226.01882,2445.6964 225.37898,2449.263 223.24371,2450.7702 218.13783,2454.3742 210.58442,2450.903 204.55589,2449.255 197.87375,2447.4284 192.01954,2443.349 185.86807,2440.1636 182.4556,2438.3965 179.08495,2436.5457 175.76654,2434.6078 172.17586,2432.5108 164.77591,2432.1822 165.15994,2428.0418 Z"
 id="path842"
 inkscape:connector-curvature="0"
 sodipodi:nodetypes="aaaaaaaaaa" />
<path
 style="fill:#000000;stroke:none;stroke-width:1px;stroke-linecap:butt;stroke-linejoin:miter;stroke-opacity:1;fill-opacity:1"
 d="M 170.2107,2660.3769 C 170.2107,2660.3769 182.65784,2664.0056 188.39345,2666.9429 191.84329,2668.7096 195.13181,2670.8909 197.9899,2673.5089 202.48841,2677.6296 207.11166,2682.084 209.60665,2687.651 211.83674,2692.627 215.37509,2699.4298 212.13203,2703.8134 209.2999,2707.6416 202.39187,2707.6498 197.9899,2705.8337 186.87765,2701.2491 182.00873,2687.6078 176.27162,2677.0444 173.45016,2671.8494 170.2107,2660.3769 170.2107,2660.3769 Z"
 id="path846"
 inkscape:connector-curvature="0"
 sodipodi:nodetypes="caaaaaac" />
<path
 style="fill:#000000;stroke:none;stroke-width:1px;stroke-linecap:butt;stroke-linejoin:miter;stroke-opacity:1;fill-opacity:1"
 d="M 263.64981,2500.2677 C 263.64981,2500.2677 283.71012,2495.8843 293.44931,2492.6916 300.69809,2490.3153 307.30397,2486.1161 314.66252,2484.1053 321.23137,2482.3103 328.08448,2481.6982 334.86557,2481.0748 339.73036,2480.6275 345.03224,2482.5167 349.51278,2480.5697 353.88014,2478.6719 359.35097,2475.2228 359.61431,2470.4682 359.85277,2466.1627 354.92792,2463.0254 351.53309,2460.3667 347.50614,2457.2129 342.29973,2455.3064 337.89603,2451.2753 332.95041,2446.7481 327.28943,2439.1534 319.71328,2437.6382 312.13714,2436.123 300.01531,2435.1129 297.48992,2436.123 294.96454,2437.1332 291.03315,2441.5938 291.42901,2445.2144 292.06315,2451.0144 302.40973,2451.7387 304.05592,2457.3362 305.08134,2460.8229 303.48955,2464.8816 301.53053,2467.9428 299.91477,2470.4676 296.80835,2471.6364 294.45947,2473.4987 287.70158,2478.8566 277.79195,2486.1256 274.25642,2489.6611 270.72088,2493.1966 263.64981,2500.2677 263.64981,2500.2677 Z"
 id="path850"
 inkscape:connector-curvature="0"
 sodipodi:nodetypes="caaaaassscaaaacc" />
<path
 style="fill:none;stroke:#000000;stroke-width:1px;stroke-linecap:butt;stroke-linejoin:miter;stroke-opacity:1"
 d="M 263.64981,2500.2677 Z"
 id="path856"
 inkscape:connector-curvature="0" />
<path
 style="fill:none;stroke:#000000;stroke-width:1px;stroke-linecap:butt;stroke-linejoin:miter;stroke-opacity:1"
 d="M 263.64981,2500.2677 Z"
 id="path862"
 inkscape:connector-curvature="0" />
<path
 style="fill:none;stroke:#000000;stroke-width:1px;stroke-linecap:butt;stroke-linejoin:miter;stroke-opacity:1"
 d="M 263.64981,2500.2677 Z"
 id="path866"
 inkscape:connector-curvature="0" />
<path
 style="fill:#000000;stroke:none;stroke-width:1px;stroke-linecap:butt;stroke-linejoin:miter;stroke-opacity:1;fill-opacity:1"
 d="M 394.46457,2553.8058 C 396.20975,2557.0947 395.51569,2562.2828 392.82307,2564.8543 388.61609,2568.872 381.27833,2566.6208 375.46107,2566.6221 368.36646,2566.6237 361.33715,2563.6944 354.28571,2564.4759 353.53737,2564.5588 352.86727,2564.9849 352.14286,2565.1902 336.84851,2569.5237 309.46428,2575.1902 305.71428,2576.083 301.96428,2576.9759 298.03571,2579.833 296.42857,2580.1902 294.82143,2580.5473 294.64286,2589.2973 291.78571,2596.7973 288.92857,2604.2973 287.32143,2606.9759 289.46428,2608.4045 291.60714,2609.833 299.5843,2613.8366 304.10714,2617.333 310.06859,2621.9416 314.96776,2627.7811 320.35714,2633.0473 325.08358,2637.6657 329.4847,2642.6317 334.46428,2646.9759 336.67124,2648.9013 338.60222,2653.1008 341.42857,2652.333 344.03127,2651.626 343.75431,2647.4349 344.46428,2644.833 346.58721,2637.0529 347.88101,2628.9675 348.03571,2620.9045 348.1816,2613.3006 347.62249,2605.5393 345.53571,2598.2259 344.28652,2593.8479 337.37766,2589.8537 339.64286,2585.9045 341.06936,2583.4175 345.36486,2584.8728 348.21429,2585.1902 351.56338,2585.5632 354.96902,2586.4897 357.85714,2588.2259 362.43862,2590.98 366.94469,2594.6703 369.28571,2599.476 372.51272,2606.1005 371.86662,2614.072 371.78571,2621.4402 371.65973,2632.9134 368.98373,2644.2221 367.14286,2655.5473 366.42362,2659.9721 362.84521,2664.6549 364.64286,2668.7616 367.11985,2674.4202 374.90908,2675.672 380.35714,2678.583 387.26556,2682.2743 394.60144,2685.1053 401.78571,2688.2259 410.54623,2692.0312 419.28521,2695.9063 428.21428,2699.2973 437.68165,2702.8927 447.41606,2705.7439 456.96428,2709.1188 463.1783,2711.3152 469.29976,2713.7712 475.53571,2715.9045 481.0928,2717.8056 486.73068,2719.4619 492.32143,2721.2616 496.90848,2722.7382 503.92857,2724.6545 506.07143,2725.7259 508.21428,2726.7973 516.25,2726.7973 508.21428,2730.5473 500.17857,2734.2973 493.47965,2738.7624 485.35714,2740.5473 479.60043,2741.8123 473.56953,2741.0956 467.67857,2740.9045 459.97618,2740.6546 452.34504,2738.6843 444.64285,2738.9402 436.75923,2739.2022 429.11915,2741.9671 421.25,2742.5116 416.79597,2742.8198 412.07252,2743.804 407.85714,2742.333 400.96628,2739.9283 392.32143,2730.5473 390.53571,2728.9402 388.75,2727.333 378.24264,2717.2516 372.85714,2710.7259 367.95923,2704.791 361.25,2693.0473 359.64286,2691.7973 358.03571,2690.5473 354.46428,2686.7973 351.25,2691.6188 348.03571,2696.4402 343.96629,2702.9262 339.28571,2707.6902 333.96219,2713.1086 327.6554,2717.5359 321.25,2721.6188 316.33354,2724.7526 310.98847,2727.1695 305.71428,2729.6545 301.32358,2731.7232 297.12975,2734.707 292.32143,2735.3688 289.58593,2735.7453 285.17857,2735.1902 284.10714,2734.2973 283.03571,2733.4045 285,2732.1545 288.57143,2730.3688 292.14286,2728.583 299.93424,2722.0257 305,2717.1545 310.2915,2712.0662 314.83177,2706.2421 319.46428,2700.5473 323.37832,2695.7358 327.46859,2691.0114 330.71428,2685.7259 333.13824,2681.7786 335.98966,2677.7891 336.78571,2673.2259 337.07377,2671.5746 336.92765,2669.759 336.25,2668.2259 332.26117,2659.2015 323.56689,2653.0767 316.60714,2646.083 311.19553,2640.645 305.17505,2635.8489 299.46428,2630.7259 295.95021,2627.5735 293.62984,2621.6906 288.92857,2621.2616 286.77328,2621.0649 284.28571,2622.333 283.39286,2624.6545 282.5,2626.9759 272.61553,2662.9946 266.60714,2681.9759 263.98836,2690.249 262.37477,2699.0036 258.21428,2706.6188 255.18798,2712.1581 250.87293,2716.9581 246.42857,2721.4402 240.49832,2727.4208 229.64286,2735.9045 226.78571,2737.333 223.92857,2738.7616 213.75,2745.3688 211.60714,2746.2616 209.46428,2747.1545 206.60714,2747.5116 212.5,2740.3688 218.39286,2733.2259 227.5,2722.1545 229.64286,2719.2973 231.78571,2716.4402 241.96938,2701.8981 246.96428,2692.5116 251.16092,2684.6252 254.43218,2676.259 257.5,2667.8688 260.64244,2659.2745 262.8027,2650.352 265.53571,2641.6188 269.21262,2629.8695 275.17857,2610.9045 276.78571,2606.4402 278.39286,2601.9759 280.71428,2595.0116 281.07143,2591.9759 281.42857,2588.9402 285.89286,2583.4045 277.14286,2586.6188 268.39286,2589.833 254.17081,2597.3345 242.32143,2601.7973 236.64891,2603.9337 231.05825,2607.5315 225,2607.333 221.10022,2607.2052 214.82143,2603.583 214.10714,2603.0473 213.39286,2602.5116 213.56488,2602.4825 213.21428,2602.333 210.28709,2601.0849 206.60714,2601.7973 203.75,2601.083 200.89286,2600.3688 195.71428,2596.6188 196.60714,2594.4759 197.5,2592.333 196.96428,2594.4759 203.39286,2593.7616 209.82143,2593.0473 226.38134,2586.4187 237.85714,2582.6902 250.37068,2578.6245 270.71428,2571.4402 275.35714,2570.3688 280,2569.2973 279.64286,2573.9402 281.07143,2569.1188 282.5,2564.2973 282.436,2559.4887 281.42857,2554.833 280.07165,2548.5623 276.18633,2543.1006 273.03571,2537.5116 270.45749,2532.938 267.0205,2528.8833 264.46428,2524.2973 262.70122,2521.1343 261.02065,2517.8927 259.82143,2514.4759 258.99726,2512.1277 258.09397,2507.2125 258.09397,2507.2125 V 2507.2125 2507.2125 C 258.09397,2507.2125 271.69047,2520.2069 278.21428,2526.9759 281.40129,2530.2827 284.6776,2533.5315 287.5,2537.1545 290.08715,2540.4755 292.83987,2543.8064 294.46428,2547.6902 296.13101,2551.6752 296.43841,2556.1071 297.14286,2560.3688 297.38728,2561.8475 295.71428,2564.6545 297.67857,2564.833 299.64286,2565.0116 306.74173,2563.6231 311.25,2562.8688 318.48082,2561.6589 325.69996,2560.3501 332.85714,2558.7616 336.39469,2557.9765 339.97833,2557.2961 343.39286,2556.083 350.75642,2553.4669 357.12516,2548.2829 364.66507,2546.2296 366.90854,2545.6187 369.28794,2545.3807 371.60714,2545.5473 375.58144,2545.8327 379.46383,2547.0588 383.21428,2548.4044 387.1298,2549.8093 392.51471,2550.1312 394.46457,2553.8058 Z"
 id="path827"
 inkscape:connector-curvature="0"
 sodipodi:nodetypes="aaaaaccccaaaaaaaaaaaaaaaaaaaacsaaaaacaccaaaaccaaaaaaaacaaaccccaaacccaacaccsaccaaaacccaaaacaaaaaaa" />
<path
 style="fill:#000000;stroke:none;stroke-width:1px;stroke-linecap:butt;stroke-linejoin:miter;stroke-opacity:1;fill-opacity:1"
 d="M 383.57143,2510.9045 C 383.57143,2510.9045 397.1296,2520.3612 404.28571,2524.4759 412.13191,2528.9874 419.57471,2535.6312 428.57143,2536.6188 433.45059,2537.1544 441.50819,2537.7668 442.85714,2533.0473 445.67989,2523.1715 430.88544,2514.9128 421.42857,2510.9045 409.81006,2505.98 383.57143,2510.9045 383.57143,2510.9045 Z"
 id="path829"
 inkscape:connector-curvature="0"
 sodipodi:nodetypes="caaaac" />
</g>
</svg>
