<?xml version="1.0" encoding="UTF-8" standalone="no"?>
<!-- Created with Inkscape (http://www.inkscape.org/) -->

<svg
   xmlns:dc="http://purl.org/dc/elements/1.1/"
   xmlns:cc="http://creativecommons.org/ns#"
   xmlns:rdf="http://www.w3.org/1999/02/22-rdf-syntax-ns#"
   xmlns:svg="http://www.w3.org/2000/svg"
   xmlns="http://www.w3.org/2000/svg"
   xmlns:sodipodi="http://sodipodi.sourceforge.net/DTD/sodipodi-0.dtd"
   xmlns:inkscape="http://www.inkscape.org/namespaces/inkscape"
   width="512"
   height="512"
   viewBox="0 0 512 512.00002"
   version="1.1"
   id="svg8"
   inkscape:version="0.92.3 (2405546, 2018-03-11)"
   sodipodi:docname="U+98FD.svg">
  <defs
     id="defs2" />
  <sodipodi:namedview
     id="base"
     pagecolor="#ffffff"
     bordercolor="#666666"
     borderopacity="1.0"
     inkscape:pageopacity="0.0"
     inkscape:pageshadow="2"
     inkscape:zoom="0.98994949"
     inkscape:cx="134.11464"
     inkscape:cy="177.77616"
     inkscape:document-units="px"
     inkscape:current-layer="layer1"
     showgrid="false"
     units="px"
     inkscape:window-width="1920"
     inkscape:window-height="1017"
     inkscape:window-x="-8"
     inkscape:window-y="-8"
     inkscape:window-maximized="1"
     showguides="false" />
  <metadata
     id="metadata5">
    <rdf:RDF>
      <cc:Work
         rdf:about="">
        <dc:format>image/svg+xml</dc:format>
        <dc:type
           rdf:resource="http://purl.org/dc/dcmitype/StillImage" />
        <dc:title></dc:title>
      </cc:Work>
    </rdf:RDF>
  </metadata>
  <g
     inkscape:label="圖層 1"
     inkscape:groupmode="layer"
     id="layer1"
     transform="translate(0,-610.51965)">
    <path
       style="fill:#000000;stroke:none;stroke-width:1px;stroke-linecap:butt;stroke-linejoin:miter;stroke-opacity:1;fill-opacity:1"
       d="m 160,689.66251 c 0,0 4.33375,13.27092 3.57143,20 -1.36899,12.08422 -7.57247,23.43068 -14.28572,33.57143 -10.22457,15.44481 -24.7036,27.72126 -38.57142,40 -15.401877,13.63701 -32.360555,25.44991 -49.285719,37.14285 -8.804277,6.08253 -17.902506,11.74579 -27.142857,17.14286 -3.035575,1.77301 -9.285714,5 -9.285714,5 0,0 15.209989,0.51829 22.647933,-0.80094 6.210803,-1.10158 12.310218,-3.12772 17.987848,-5.87582 8.30278,-4.01873 15.959956,-9.40944 23.0582,-15.30022 12.835169,-10.65181 23.294189,-23.87889 34.877449,-35.88016 5.49645,-5.6948 10.81987,-11.55857 16.42857,-17.14286 9.309,-9.26849 18.48403,-18.72818 28.57143,-27.14286 3.59707,-3.00059 7.26953,-5.9853 11.34919,-8.2872 1.82358,-1.02893 4.74493,-0.61482 5.79367,-2.42708 2.58153,-4.46099 -0.24391,-10.46997 -1.92593,-15.34188 -1.40609,-4.07273 -3.98276,-7.69937 -6.6455,-11.0867 -2.69896,-3.4334 -5.83729,-6.57603 -9.32904,-9.19905 C 165.42747,692.24225 160,689.66251 160,689.66251 Z"
       id="path4554"
       inkscape:connector-curvature="0"
       sodipodi:nodetypes="caaaaacaaaaaaaaaaac" />
    <path
       style="fill:none;stroke:#000000;stroke-width:1px;stroke-linecap:butt;stroke-linejoin:miter;stroke-opacity:1"
       d="M 235,676.09108 Z"
       id="path4556"
       inkscape:connector-curvature="0" />
    <path
       style="fill:#000000;fill-opacity:1;stroke:none;stroke-width:1px;stroke-linecap:butt;stroke-linejoin:miter;stroke-opacity:1"
       d="m 191.67645,723.76193 c 0,0 16.41497,-4.29315 27.52665,-3.03046 11.11168,1.2627 15.15229,4.04061 19.95052,6.566 4.79822,2.52538 6.8698,6.72603 7.07106,11.11167 0.15188,3.30959 -1.46352,7.62361 -4.54568,8.83884 -5.29903,2.0893 -10.86684,-3.48572 -16.08319,-5.77363 -3.68145,-1.61469 -7.10694,-3.75985 -10.68586,-5.59059 -5.53009,-2.82883 -13.13198,-6.56599 -16.66751,-8.33376 -3.53554,-1.76776 -6.56599,-3.78807 -6.56599,-3.78807 z"
       id="path4558"
       inkscape:connector-curvature="0"
       sodipodi:nodetypes="cssaaaacc" />
    <path
       style="fill:#000000;stroke:none;stroke-width:1px;stroke-linecap:butt;stroke-linejoin:miter;stroke-opacity:1;fill-opacity:1"
       d="m 162.12948,776.28986 c 3.5998,-4.92524 10.11399,-7.79081 16.16244,-8.58629 4.45402,-0.58578 9.91611,-0.10635 13.13199,3.03046 2.17771,2.12417 3.76808,6.18953 2.27284,8.83883 -2.59182,4.59223 -10.14361,2.89669 -15.15229,4.54569 -3.31317,1.09079 -6.40253,4.07305 -9.84898,3.53553 -3.14415,-0.49037 -6.43009,-2.83976 -7.57615,-5.80838 -0.67792,-1.75599 -0.10056,-4.03617 1.01015,-5.55584 z"
       id="path4560"
       inkscape:connector-curvature="0"
       sodipodi:nodetypes="aaaaaaaa" />
    <path
       style="fill:#000000;stroke:none;stroke-width:1px;stroke-linecap:butt;stroke-linejoin:miter;stroke-opacity:1;fill-opacity:1"
       d="m 133.0876,817.20104 c 4.58295,-2.97975 10.80423,-1.69536 16.16244,-2.77792 10.92811,-2.20789 21.64375,-5.39592 32.57742,-7.57614 5.02157,-1.00132 10.37616,-0.67946 15.15229,-2.52538 4.20352,-1.62461 9.09137,-6.06092 11.36421,-7.32361 2.27285,-1.26269 6.81853,-2.27284 10.85914,0 4.04061,2.27285 12.12183,10.35407 12.37437,13.8896 0.25254,3.53553 -0.75761,6.31345 -4.29315,8.5863 -3.53553,2.27284 -8.02242,5.81747 -10.10152,10.10152 -3.73822,7.70273 -2.1883,16.98595 -3.03046,25.50635 -0.94686,9.57963 -1.2658,19.21586 -2.27284,28.78935 -0.33752,3.20868 -1.18043,6.37111 -1.26269,9.59645 -0.10765,4.22104 2.59591,8.71358 1.01015,12.62691 -1.38887,3.42744 -4.64858,7.63297 -8.33376,7.3236 -5.18796,-0.43553 -4.97364,-10.29549 -9.84899,-12.12183 -6.00039,-2.24779 -13.38452,1.26269 -18.94036,3.283 -5.55584,2.0203 -20.20305,8.83883 -25.25381,10.6066 -5.05076,1.76777 -9.09137,6.31345 -11.61676,5.80838 -2.52538,-0.50508 -8.33375,-3.53554 -9.59644,-5.55584 -1.2627,-2.02031 -7.07107,-1.76777 -1.51523,-3.78807 5.55584,-2.02031 8.32082,-1.66242 10.6066,-4.79823 1.74679,-2.39638 -2.77792,-7.32361 1.01015,-8.83883 3.78807,-1.51523 6.81853,-1.01016 9.84899,0 3.03046,1.01015 6.31345,0.25253 9.34391,-1.26269 3.03046,-1.51523 19.9053,-7.1415 30.30458,-8.5863 3.41852,-0.47494 6.96188,0.63638 10.35406,0 1.5979,-0.29977 3.59307,-0.45032 4.54569,-1.76777 1.77339,-2.45257 0.4567,-6.04079 0.47364,-9.06729 0.033,-5.90546 -0.8704,-11.79797 -0.72618,-17.70175 0.22912,-9.37895 1.77024,-18.68042 2.52538,-28.03173 0.2853,-3.53304 2.60213,-7.57981 0.75761,-10.60661 -2.33529,-3.83214 -7.90798,-4.8671 -12.37437,-5.3033 -6.42495,-0.62748 -12.67977,2.46621 -18.94036,4.04061 -5.27052,1.32542 -10.46894,2.92847 -15.65736,4.54569 -4.06623,1.26743 -7.89456,3.52021 -12.12183,4.04061 -3.26802,0.40231 -6.88563,0.67778 -9.84899,-0.75761 -2.68065,-1.29846 -5.82671,-3.59665 -6.06091,-6.566 -0.11932,-1.51287 1.25309,-2.96085 2.52538,-3.78807 z"
       id="path4562"
       inkscape:connector-curvature="0"
       sodipodi:nodetypes="aaaaccssaaaaaaacscccacccaaaaaaaaaaaaaa" />
    <path
       style="fill:#000000;stroke:none;stroke-width:1px;stroke-linecap:butt;stroke-linejoin:miter;stroke-opacity:1;fill-opacity:1"
       d="m 138.64344,861.64775 c 1.97265,-0.9481 4.39337,0.26454 6.56599,0 7.66088,-0.93281 9.84899,-2.77791 22.47589,-5.55583 12.62691,-2.77792 7.86992,-1.03611 11.61675,-2.27285 1.8593,-0.6137 3.34799,-2.42357 5.30331,-2.52538 2.53936,-0.13221 4.34859,0.41528 6.96624,1.3573 1.79507,0.646 4.90677,1.20997 5.15559,2.93585 0.43008,2.9832 -4.60777,3.99612 -7.32361,5.3033 -7.94986,3.8264 -17.15788,4.21718 -25.50635,7.07106 -2.68227,0.91692 -5.43296,1.77357 -7.87075,3.22011 -1.29078,0.76591 -2.00734,2.63073 -3.49347,2.84081 -3.62264,0.51209 -6.81852,-1.76776 -10.10152,-4.29314 -3.28299,-2.52538 -6.56599,-4.04061 -5.80838,-5.55584 0.75762,-1.51523 1.04868,-2.0584 2.02031,-2.52539 z"
       id="path4564"
       inkscape:connector-curvature="0"
       sodipodi:nodetypes="aasasssaaaacca" />
    <path
       style="fill:#000000;stroke:none;stroke-width:1px;stroke-linecap:butt;stroke-linejoin:miter;stroke-opacity:1;fill-opacity:1"
       d="m 112.37947,821.49419 c 0,0 15.92595,18.23055 20.20305,29.29443 2.72587,7.05121 3.27559,14.92011 3.03046,22.47589 -0.35919,11.07168 -5.23334,21.58037 -6.56599,32.57742 -1.91571,15.8085 -2.78202,31.82379 -2.02031,47.72971 0.14635,3.05604 -2.06763,10.54898 1.26269,9.09137 6.02933,-2.6389 8.53729,-4.31204 12.87945,-6.31345 15.99106,-7.37068 33.65331,-11.47419 48.48732,-20.96067 1.80805,-1.15627 4.10407,-2.26235 4.79823,-4.29315 1.05204,-3.0778 -0.94343,-6.45001 -1.76777,-9.59645 -0.78937,-3.01295 -3.283,-6.81853 -3.03046,-8.83883 0.25254,-2.02031 4.13457,1.30084 6.06091,2.27285 2.379,1.2004 4.42815,2.96855 6.70489,4.35313 1.85736,1.12954 3.77722,2.15296 5.66948,3.22301 4.03545,2.282 8.5739,3.83448 12.12184,6.81853 4.07496,3.42731 8.13967,7.42432 10.10152,12.37436 1.77224,4.47163 2.59288,9.85251 1.01015,14.39468 -1.31359,3.76978 -4.16439,8.06732 -8.08122,8.83883 -3.28817,0.64768 -6.48153,-2.19069 -9.09137,-4.29315 -4.30065,-3.46456 -7.05566,-7.20032 -10.10152,-13.13197 -1.24005,-2.41494 -2.08491,-6.98455 -4.79823,-7.07107 -2.42633,-0.0774 -7.86537,3.77158 -11.42873,6.25365 -3.18149,2.21608 -5.69936,5.27426 -8.77432,7.63594 -6.44375,4.94903 -13.47532,9.08158 -20.20305,13.63706 -8.93182,6.04792 -17.78866,12.20716 -26.76904,18.18274 -4.20047,2.79502 -8.69567,5.17018 -12.68075,8.26454 -2.77924,2.15805 -4.51316,5.82011 -7.77484,7.14031 -2.96617,1.2006 -6.71781,1.65 -9.59645,0.2525 -5.194921,-2.52195 -9.931027,-8.13037 -10.354066,-13.88957 -0.364203,-4.95822 3.591868,-9.58069 7.071067,-13.13199 4.669169,-4.76593 14.022249,-4.11002 17.425129,-9.84899 3.04859,-5.14145 0.13481,-11.95403 0.25254,-17.9302 0.39307,-19.95303 0.5515,-39.91792 1.51523,-59.85154 0.34234,-7.08081 1.91561,-14.13544 1.51523,-21.21321 -0.28534,-5.0441 -1.26618,-10.07906 -2.77792,-14.89975 -1.96165,-6.25536 -7.82868,-13.8896 -8.08122,-17.93021 -0.25254,-4.04061 -0.50508,-4.79822 1.01015,-7.3236 1.51523,-2.52538 2.77792,-4.29315 2.77792,-4.29315 z"
       id="path4566"
       inkscape:connector-curvature="0"
       sodipodi:nodetypes="caaaasaaaasaaaaaaaassaaaaaaaaaaaaaassc" />
    <path
       style="fill:#000000;stroke:none;stroke-width:1px;stroke-linecap:butt;stroke-linejoin:miter;stroke-opacity:1;fill-opacity:1"
       d="m 292.6917,685.88121 c 0,0 2.99799,5.83027 5.3033,8.08123 3.76036,3.67171 8.81607,5.73545 13.38452,8.33375 2.38906,1.35877 6.22391,1.26924 7.32361,3.78807 2.27172,5.20329 -2.67415,11.05473 -4.54569,16.41498 -3.40675,9.75725 -7.26241,19.41563 -12.12183,28.53681 -5.14885,9.66444 -11.62973,18.57032 -17.93021,27.52666 -5.53121,7.86279 -11.17347,15.67792 -17.42513,22.98097 -2.12933,2.48743 -4.78965,4.50103 -6.81852,7.07106 -1.54819,1.96113 -13.8896,12.12184 -4.04062,6.31346 9.84899,-5.80838 19.87595,-14.03435 28.28427,-22.72843 7.90035,-8.16884 13.86949,-18.01298 20.45559,-27.27412 5.58828,-7.85804 10.61382,-16.10503 16.16244,-23.99112 3.84631,-5.46665 7.36382,-11.22494 11.8693,-16.16245 2.65291,-2.9073 5.80837,-6.31345 8.83883,-7.82868 3.03046,-1.51523 3.03046,-8.58629 0.25254,-10.35406 -2.77792,-1.76777 -6.53969,-8.82211 -11.11168,-11.61676 -7.79449,-4.76442 -17.30891,-6.0229 -26.26396,-7.82868 -3.81821,-0.76994 -11.61676,-1.26269 -11.61676,-1.26269 z"
       id="path4568"
       inkscape:connector-curvature="0"
       sodipodi:nodetypes="caaaaaaaasaaaassaac" />
    <path
       style="fill:#000000;stroke:none;stroke-width:1px;stroke-linecap:butt;stroke-linejoin:miter;stroke-opacity:1;fill-opacity:1"
       d="m 327.7945,751.54113 c 3.44436,-3.00901 8.87086,-2.24468 13.35176,-3.16083 6.53887,-1.33692 13.15836,-2.24415 19.73074,-3.40516 9.46688,-1.67232 19.03079,-2.81216 28.47598,-4.61598 4.50765,-0.86085 9.36696,-0.86149 13.44535,-2.96017 3.86406,-1.98838 7.07107,-6.31345 9.34391,-9.09137 2.27284,-2.77792 5.05076,-6.81853 10.85914,-5.80838 5.80838,1.01015 15.04748,6.19747 20.20305,12.12183 2.40178,2.75993 4.83632,6.48342 4.29315,10.10153 -0.62085,4.1356 -5.28615,6.48578 -8.08122,9.59645 -3.74051,4.16287 -8.62395,7.39277 -11.61676,12.12183 -5.68505,8.98318 -7.84883,19.76658 -11.36421,29.7995 -2.92263,8.34123 -5.61445,16.76659 -8.08122,25.25381 -3.61855,12.45007 -6.26466,25.16822 -9.84899,37.62818 -2.56608,8.92027 -4.2939,21.01376 -7.71177,31.14973 -0.99582,2.95319 -1.92306,6.02811 -3.70771,8.58311 -1.44733,2.07206 -3.00007,5.5873 -5.50058,5.21895 -2.68572,-0.39564 -3.19021,-4.493 -4.04061,-7.07107 -3.13344,-9.49938 -2.69603,-19.83195 -3.53553,-29.79949 -0.5659,-6.71898 -1.51523,-17.67767 -1.01015,-20.20305 0.50507,-2.52539 3.98829,1.53102 6.06091,2.0203 2.89658,0.68379 5.97524,2.87707 8.83884,1.26269 3.94138,-2.22199 3.69599,-6.92888 4.99116,-10.61955 2.17721,-6.2041 3.1067,-12.77798 4.60529,-19.17995 2.24339,-9.5838 3.99938,-19.287 6.56599,-28.78935 2.6451,-9.79294 6.657,-19.19444 9.09137,-29.04188 1.23231,-4.98489 6.10791,-11.24348 2.77792,-15.1523 -2.51173,-2.94832 -7.76791,-0.18087 -11.61675,0.25255 -9.56438,1.07706 -18.90228,3.65996 -28.28427,5.80837 -7.36354,1.68619 -14.59882,3.90702 -21.97082,5.55584 -6.44444,1.44136 -12.90732,4.71612 -19.44544,3.78807 -3.46655,-0.49206 -8.0954,-1.52709 -9.34391,-4.79822 -0.83618,-2.19081 0.75939,-5.02321 2.52538,-6.56599 z"
       id="path4570"
       inkscape:connector-curvature="0"
       sodipodi:nodetypes="aasasssaaaaaasaaaaacasaaaaaaaaaaa" />
    <path
       style="fill:#000000;stroke:none;stroke-width:1px;stroke-linecap:butt;stroke-linejoin:miter;stroke-opacity:1;fill-opacity:1"
       d="m 284.1054,819.97896 c 4.39267,0.56475 8.71021,2.27009 13.13199,2.02031 9.9291,-0.5609 19.48779,-4.30978 28.78935,-7.82868 6.05634,-2.29119 12.75688,-4.09895 17.42513,-8.5863 2.41687,-2.32323 2.27284,-8.5863 4.79822,-8.83884 2.52538,-0.25253 7.26432,2.57638 10.10153,5.05077 2.92108,2.54754 7.3236,7.07106 6.56599,9.59645 -0.75762,2.52538 -4.29315,5.80837 -6.81853,9.34391 -2.52538,3.53553 -6.31346,10.85914 -9.84899,19.44543 -3.53553,8.5863 -5.89357,14.01538 -6.81853,21.46574 -0.34288,2.76181 -1.39499,6.30031 0.50508,8.33376 1.79641,1.92252 6.84328,-1.42955 7.82868,1.01016 0.60559,1.49935 -1.73816,2.81608 -3.03046,3.78807 -4.75642,3.57749 -10.87495,4.87322 -16.48907,6.849 -8.49357,2.98915 -17.16396,5.51992 -25.93734,7.54567 -4.82743,1.11464 -9.73798,1.85757 -14.64721,2.52538 -1.67654,0.22806 -3.85646,-0.69344 -5.05076,0.50508 -1.96901,1.97597 -0.61869,5.54652 -0.80335,8.32993 -0.2789,4.20379 -0.3629,8.41881 -0.45934,12.63073 -0.20426,8.92108 -1.94644,18.00789 -0.25254,26.76905 1.08907,5.63286 2.73876,11.63584 6.56599,15.9099 3.97079,4.43438 10.02601,6.65791 15.65737,8.5863 7.58081,2.59596 15.77298,2.91807 23.73858,3.78807 8.46676,0.92473 16.99053,1.36725 25.50635,1.51523 10.27144,0.17849 20.54315,-0.39268 30.80966,-0.75762 10.86402,-0.38618 21.73075,-0.79011 32.57742,-1.51523 12.56233,-0.83982 25.44306,-0.11435 37.62818,-3.28299 6.96508,-1.81121 13.87175,-4.61415 19.69797,-8.83883 4.05242,-2.93847 7.73134,-6.70273 10.10153,-11.11168 2.59084,-4.8194 2.74366,-10.59418 4.04061,-15.90991 0.96313,-3.94754 1.01015,-10.35406 2.77792,-11.86928 1.76776,-1.51523 5.65462,5.55801 7.82868,8.83883 3.45256,5.21017 6.62776,10.84111 8.08122,16.92005 2.46719,10.31876 7.66497,23.76673 0.75761,31.81981 -3.09878,3.61278 -9.41883,1.42178 -14.16031,1.8378 -6.79357,0.59606 -13.63318,0.48142 -20.43741,0.94012 -11.38319,0.76738 -22.71235,2.22144 -34.09265,3.03045 -25.22604,1.79329 -50.47272,4.26396 -75.76144,4.04061 -16.62451,-0.14683 -33.49472,-0.0482 -49.75001,-3.53553 -9.55643,-2.05018 -19.59874,-4.38517 -27.52666,-10.10153 -5.80098,-4.18275 -10.34623,-10.2971 -13.37525,-16.77566 -2.6773,-5.72629 -3.04907,-12.30287 -3.79734,-18.57968 -1.39594,-11.70971 -1.17631,-23.56302 -1.26269,-35.35533 -0.0586,-7.9986 0.64917,-15.99361 0.50507,-23.99113 -0.10633,-5.90121 0.87679,-12.08526 -1.01015,-17.67767 -1.29878,-3.84926 -4.38901,-6.84559 -6.81853,-10.10152 -4.04155,-5.41629 -11.61675,-14.14214 -12.87944,-15.65737 -1.26269,-1.51523 -2.52538,-5.80837 -0.50508,-4.79822 2.02031,1.01015 14.89975,7.07107 17.42513,7.82868 2.52538,0.75761 12.50153,4.40605 18.43529,7.32361 2.81133,1.3823 7.3236,1.26269 8.08122,4.79822 0.75761,3.53554 -1.45197,10.59329 -1.26269,15.9099 0.1,2.80785 -1.5731,6.79496 1.26269,8.33376 1.78105,0.96646 4.6856,0.0828 6.62834,-0.57285 3.57009,-1.20491 7.41188,-2.35205 11.04933,-3.7203 3.07279,-1.15585 6.24857,-2.14595 9.09137,-3.78807 1.55996,-0.9011 3.35664,-1.74403 4.29315,-3.28299 3.51094,-5.76949 2.77186,-13.24004 3.53553,-19.95052 0.37171,-3.26622 0.95893,-6.59315 0.50508,-9.84898 -0.17039,-1.2223 -0.13425,-2.87154 -1.19358,-3.50468 -2.58391,-1.54436 -6.00901,0.67329 -8.90794,1.48438 -4.36555,1.22143 -8.14836,4.34902 -12.62691,5.05076 -3.58477,0.5617 -7.43406,0.44026 -10.85914,-0.75762 -4.34203,-1.51858 -7.86367,-4.84448 -11.36422,-7.82868 -1.94833,-1.66094 -5.30331,-5.55584 -5.30331,-5.55584 0,0 4.88941,0.44465 7.32361,0.75761 z"
       id="path4587"
       inkscape:connector-curvature="0"
       sodipodi:nodetypes="aaaacaccsaaaaaaaaaaaaaaaaaaaaacaaaaaaaaaaaaaaascsacassaaaaaaaaaaca" />
    <path
       style="fill:none;stroke:#000000;stroke-width:1px;stroke-linecap:butt;stroke-linejoin:miter;stroke-opacity:1"
       d="M 486.13591,931.34828 Z"
       id="path4589"
       inkscape:connector-curvature="0" />
  </g>
</svg>
