<?xml version="1.0" encoding="UTF-8" standalone="no"?>
<!-- Created with Inkscape (http://www.inkscape.org/) -->

<svg
 xmlns:dc="http://purl.org/dc/elements/1.1/"
 xmlns:cc="http://creativecommons.org/ns#"
 xmlns:rdf="http://www.w3.org/1999/02/22-rdf-syntax-ns#"
 xmlns:svg="http://www.w3.org/2000/svg"
 xmlns="http://www.w3.org/2000/svg"
 xmlns:sodipodi="http://sodipodi.sourceforge.net/DTD/sodipodi-0.dtd"
 xmlns:inkscape="http://www.inkscape.org/namespaces/inkscape"
 width="512"
 height="512"
 viewBox="0 0 512 512"
 version="1.1"
 id="svg8"
 inkscape:version="0.92.4 (5da689c313, 2019-01-14)"
 sodipodi:docname="U+98E2.svg">
<defs
 id="defs2" />
<sodipodi:namedview
 id="base"
 pagecolor="#ffffff"
 bordercolor="#666666"
 borderopacity="1.0"
 inkscape:pageopacity="0.0"
 inkscape:pageshadow="2"
 inkscape:zoom="1.4"
 inkscape:cx="265.31831"
 inkscape:cy="279.43166"
 inkscape:document-units="px"
 inkscape:current-layer="layer1"
 showgrid="false"
 units="px"
 inkscape:window-width="1366"
 inkscape:window-height="705"
 inkscape:window-x="-8"
 inkscape:window-y="-8"
 inkscape:window-maximized="1" />
<metadata
 id="metadata5">
<rdf:RDF>
<cc:Work
 rdf:about="">
<dc:format>image/svg+xml</dc:format>
<dc:type
 rdf:resource="http://purl.org/dc/dcmitype/StillImage" />
<dc:title></dc:title>
</cc:Work>
</rdf:RDF>
</metadata>
<g
 inkscape:label="圖層 1"
 inkscape:groupmode="layer"
 id="layer1"
 transform="translate(0,-2307.4759)">
<path
 style="fill:#000000;stroke:none;stroke-width:1px;stroke-linecap:butt;stroke-linejoin:miter;stroke-opacity:1;fill-opacity:1"
 d="M 151.42857,2353.0473 C 152.91948,2362.0503 156.85585,2371.2553 155,2380.1902 153.30596,2388.3461 146.7455,2394.6759 142.14286,2401.6188 136.11702,2410.7085 129.94845,2419.7619 122.85714,2428.0473 113.66136,2438.7915 103.44171,2448.6682 92.857142,2458.0473 84.479821,2465.4705 75.143565,2471.7379 66.428571,2478.7616 58.002287,2485.5526 50.94446,2494.3215 41.428571,2499.4759 35.071608,2502.9192 27.822218,2504.5835 20.714286,2505.9045 17.195183,2506.5585 3.5714285,2502.333 9.9999999,2506.6188 16.428571,2510.9045 31.501144,2513.6991 42.142857,2511.6188 48.955518,2510.287 54.363752,2504.9565 60,2500.9045 68.639123,2494.6937 76.18459,2487.0881 84.285714,2480.1902 93.802616,2472.0868 103.46952,2464.1573 112.85714,2455.9045 120.83219,2448.8935 131.06152,2443.6383 136.42857,2434.4759 138.03414,2431.7349 137.05679,2427.9824 138.57142,2425.1901 142.62117,2417.7243 152.29168,2409.7748 156.25869,2406.8487 159.41558,2404.5201 163.30688,2408.6546 165.71429,2406.6188 171.45484,2401.7644 169.24036,2394.3855 170,2384.4759 170.89617,2372.7853 167.69338,2360.518 162.14286,2350.1902 158.87416,2344.1082 147.85714,2335.1902 147.85714,2335.1902 147.85714,2335.1902 150.43684,2347.0586 151.42857,2353.0473 Z"
 id="path894"
 inkscape:connector-curvature="0"
 sodipodi:nodetypes="aaaaaaaacaaaaaasasaca" />
<path
 style="fill:#000000;stroke:none;stroke-width:1px;stroke-linecap:butt;stroke-linejoin:miter;stroke-opacity:1;fill-opacity:1"
 d="M 179.28571,2394.4759 C 180.85029,2388.7338 190.10886,2392.7157 197.85714,2390.9045 203.90293,2389.4913 210.52634,2390.4062 216.42857,2392.333 222.01878,2394.1579 227.92361,2396.8969 231.42857,2401.6188 233.63161,2404.5867 236.63386,2409.4785 234.28571,2412.333 229.73788,2417.8615 219.89299,2412.2251 212.85714,2410.9045 204.27185,2409.2931 195.32706,2407.5755 187.85714,2403.0473 184.40181,2400.9527 178.22346,2398.3744 179.28571,2394.4759 Z"
 id="path898"
 inkscape:connector-curvature="0"
 sodipodi:nodetypes="ssaaaaas" />
<path
 style="fill:#000000;stroke:none;stroke-width:1px;stroke-linecap:butt;stroke-linejoin:miter;stroke-opacity:1;fill-opacity:1"
 d="M 150.71428,2439.4759 C 150.71428,2439.4759 160.41835,2440.7233 165,2442.333 171.83197,2444.7334 179.37369,2447.0123 184.28571,2452.333 187.61526,2455.9396 190.71428,2461.6188 190,2465.9045 189.28571,2470.1902 183.57106,2471.5634 181.42857,2475.1902 180.2797,2477.135 179.28571,2481.6188 179.28571,2481.6188 179.28571,2481.6188 189.75504,2479.6755 195,2478.7616 197.85356,2478.2644 200,2480.9045 203.57143,2477.333 207.14286,2473.7616 205.71428,2467.333 212.14286,2470.9045 218.57143,2474.4759 224.28571,2482.333 227.85714,2486.6188 231.42857,2490.9045 232.14286,2494.4759 228.57143,2499.4759 225,2504.4759 223.57143,2500.9045 221.42857,2505.9045 219.28571,2510.9045 211.25083,2533.7947 207.14286,2548.0473 202.60057,2563.8067 197.14286,2592.333 195.71428,2595.9045 194.28571,2599.4759 195,2608.0473 190.71428,2603.0473 186.42857,2598.0473 188.57143,2592.333 182.85714,2590.9045 177.14286,2589.4759 155.27292,2597.2547 141.42857,2600.1902 135.49034,2601.4493 129.61215,2603.1635 123.57143,2603.7616 118.59576,2604.2543 109.28571,2600.9045 108.57143,2603.7616 107.85714,2606.6188 105,2642.333 105,2647.333 105,2652.333 108.57143,2653.0473 111.42857,2651.6188 114.28571,2650.1902 135.8522,2645.9262 147.85714,2642.333 154.85418,2640.2387 161.31239,2635.9971 168.57142,2635.1902 172.85712,2634.7138 188.57142,2628.0474 181.42857,2636.6188 174.28571,2645.1902 148.49734,2654.6662 131.42857,2665.1902 111.69264,2677.3587 97.974805,2683.4639 87.857142,2688.7616 82.57968,2691.5249 73.571428,2694.4759 70,2689.4759 66.428571,2684.4759 67.142857,2671.6188 71.428571,2668.7616 75.714285,2665.9045 89.285714,2660.1902 92.142857,2658.0473 94.999999,2655.9045 96.428571,2653.0473 96.428571,2645.9045 96.428571,2638.7616 97.506396,2611.1246 98.571428,2593.7616 99.288085,2582.0781 102.24365,2570.4387 101.42857,2558.7616 100.59598,2546.8336 98.571428,2529.4759 93.571428,2523.7616 88.571428,2518.0473 79.999999,2508.7616 84.999999,2509.4759 89.999999,2510.1902 100.71429,2516.6188 104.28571,2519.4759 107.85714,2522.333 115,2530.1902 117.14286,2534.4759 119.28571,2538.7616 117.85714,2545.1902 121.42857,2544.4759 125,2543.7616 131.68855,2544.0773 136.42857,2542.333 141.4499,2540.4852 145.25177,2536.2279 150,2533.7616 155.49362,2530.9082 160.96154,2526.9552 167.14286,2526.6188 171.35568,2526.3895 178.90755,2525.9881 179.28571,2530.1902 179.86085,2536.581 168.26088,2541.797 162.14286,2546.6188 156.10077,2551.3808 148.39626,2554.7769 140.71428,2555.1902 134.5419,2555.5223 125.71428,2552.333 122.85714,2550.1902 120,2548.0473 117.14286,2549.4759 116.42857,2562.333 115.71428,2575.1902 112.14286,2583.7616 112.14286,2588.0473 112.14286,2592.333 123.57143,2589.4759 132.85714,2587.333 142.14286,2585.1902 154.51894,2583.4478 165,2580.1902 170.55061,2578.465 180.92036,2585.6023 183.57143,2581.6188 185,2575.1902 182.85714,2570.1902 185.71428,2569.4759 188.57143,2568.7616 187.85714,2577.333 192.14286,2560.9045 196.42857,2544.4759 196.44183,2527.8698 200,2511.6188 201.32209,2505.5805 207.14286,2497.333 205,2493.7616 202.85714,2490.1902 190.71428,2492.333 175.71428,2495.1902 160.71428,2498.0473 150.29781,2503.1162 137.14286,2503.7616 129.23772,2504.1494 121.12659,2503.2627 113.57143,2500.9045 108.6915,2499.3813 102.14286,2498.0473 99.999999,2493.7616 97.857142,2489.4759 106.08583,2491.4027 109.28571,2490.9045 117.82917,2489.5742 129.34985,2488.4407 139.28571,2486.6188 148.13333,2484.9965 155.3354,2486.1253 167.85714,2482.333 170.00689,2481.6819 172.14286,2482.333 171.42857,2476.6188 170.71428,2470.9045 175,2470.1902 165,2460.9045 155,2451.6188 156.42857,2452.333 151.42857,2446.6188 146.42857,2440.9045 150.71428,2439.4759 150.71428,2439.4759 Z"
 id="path902"
 inkscape:connector-curvature="0"
 sodipodi:nodetypes="caacacacccssacccaacscaassssccsaassccsaaassacsscscscascaasssscscc" />
<path
 style="fill:#000000;stroke:none;stroke-width:1px;stroke-linecap:butt;stroke-linejoin:miter;stroke-opacity:1;fill-opacity:1"
 d="M 171.42857,2591.6187 C 171.42857,2591.6187 181.84848,2619.6666 193.57143,2627.333 204.70045,2634.611 204.58138,2648.4991 210,2649.4759 212.67164,2649.9575 215.1395,2646.865 216.42857,2644.4759 219.26407,2639.2207 220.15793,2632.1291 217.85714,2626.6188 215.57839,2621.1613 208.86498,2618.9329 204.28571,2615.1902 197.46211,2609.6132 190.8393,2603.7458 183.57143,2598.7616 179.69865,2596.1057 171.42857,2591.6187 171.42857,2591.6187 Z"
 id="path904"
 inkscape:connector-curvature="0"
 sodipodi:nodetypes="cssaaaac" />
<path
 style="fill:#000000;stroke:none;stroke-width:1px;stroke-linecap:butt;stroke-linejoin:miter;stroke-opacity:1;fill-opacity:1"
 d="M 255.71428,2504.4759 C 255.71428,2504.4759 266.25175,2504.2532 270.71428,2506.6188 280.09621,2511.5921 288.11262,2520.3661 292.14286,2530.1902 296.57457,2540.9929 294.00384,2553.5218 293.57143,2565.1902 292.87911,2583.872 291.90477,2602.8265 287.14286,2620.9045 283.71854,2633.9045 278.76436,2646.7818 271.42857,2658.0473 265.54602,2667.0811 253.57143,2678.0473 249.28571,2681.6188 245,2685.1902 236.75385,2691.1388 229.28571,2692.333 225.22712,2692.982 207.14286,2695.9045 217.14286,2690.1902 227.14286,2684.4759 237.22585,2676.0908 245.71428,2667.333 253.17115,2659.6395 260.23477,2651.2151 265,2641.6188 271.16737,2629.1989 273.83675,2615.2413 276.42857,2601.6188 278.70904,2589.6327 280.06432,2577.3911 280,2565.1902 279.94192,2554.1734 280.83195,2542.4316 276.42857,2532.333 272.65064,2523.6687 261.42857,2515.1902 257.85714,2510.9045 254.28571,2506.6188 255.71428,2504.4759 255.71428,2504.4759 Z"
 id="path906"
 inkscape:connector-curvature="0"
 sodipodi:nodetypes="caaaaacasaaaaasc" />
<path
 style="fill:#000000;stroke:none;stroke-width:1px;stroke-linecap:butt;stroke-linejoin:miter;stroke-opacity:1;fill-opacity:1"
 d="M 286.42857,2475.9045 C 290.26283,2475.5973 293.30412,2479.9453 297.14286,2480.1902 311.37779,2481.0984 332.85714,2471.6188 338.57143,2469.4759 344.28571,2467.333 347.85714,2463.7616 355,2454.4759 362.14285,2445.1902 372.85714,2433.7616 377.14285,2438.0473 381.42857,2442.333 387.85714,2451.6188 390.71428,2458.7616 393.57143,2465.9045 400.71428,2473.0473 387.85714,2483.7616 375,2494.4759 367.85714,2502.333 365,2511.6188 362.14285,2520.9045 353.99189,2552.2641 354.28571,2573.0473 354.65667,2599.2871 358.60503,2626.5509 370,2650.1902 374.99044,2660.5431 383.03982,2669.603 392.14285,2676.6188 402.77243,2684.8111 415.76055,2689.7637 428.57143,2693.7616 435.48403,2695.9188 445,2697.333 450,2697.333 455,2697.333 468.57143,2690.1902 474.28571,2685.1902 480,2680.1902 485,2672.333 487.14285,2668.0473 489.28571,2663.7616 492.85714,2663.0473 496.42857,2670.9045 500,2678.7616 505,2700.9045 505,2705.1902 505,2709.4759 509.28571,2714.4759 494.28571,2715.1902 479.28571,2715.9045 464.19256,2717.5905 449.28571,2715.9045 434.42399,2714.2236 419.24233,2711.5689 405.71428,2705.1902 393.09435,2699.2397 380.74812,2691.1729 372.14285,2680.1902 360.03356,2664.7353 354.21774,2644.9088 349.28571,2625.9045 344.35186,2606.8932 343.12534,2586.9722 342.85714,2567.333 342.619,2549.8951 345,2528.7616 347.14285,2515.1902 349.28571,2501.6188 355,2488.7616 343.57143,2488.7616 332.14285,2488.7616 326.55325,2496.2198 317.85714,2499.4759 312.21621,2501.588 306.61934,2506.3782 300.71428,2505.1902 293.27048,2503.6926 288.03514,2496.3325 283.57143,2490.1902 281.43947,2487.2565 278.16993,2483.6408 279.28571,2480.1902 280.14,2477.5482 283.6608,2476.1263 286.42857,2475.9045 Z"
 id="path908"
 inkscape:connector-curvature="0"
 sodipodi:nodetypes="aassccscaaaassccssaaaaassaaaaa" />
</g>
</svg>
