<?xml version="1.0" encoding="UTF-8" standalone="no"?>
<!-- Created with Inkscape (http://www.inkscape.org/) -->

<svg
 xmlns:osb="http://www.openswatchbook.org/uri/2009/osb"
 xmlns:dc="http://purl.org/dc/elements/1.1/"
 xmlns:cc="http://creativecommons.org/ns#"
 xmlns:rdf="http://www.w3.org/1999/02/22-rdf-syntax-ns#"
 xmlns:svg="http://www.w3.org/2000/svg"
 xmlns="http://www.w3.org/2000/svg"
 xmlns:sodipodi="http://sodipodi.sourceforge.net/DTD/sodipodi-0.dtd"
 xmlns:inkscape="http://www.inkscape.org/namespaces/inkscape"
 width="512"
 height="512"
 viewBox="0 0 512.00001 512.00001"
 version="1.1"
 id="svg8"
 inkscape:version="0.92.4 (5da689c313, 2019-01-14)"
 sodipodi:docname="U+5145.svg">
<defs
 id="defs2">
<linearGradient
 id="linearGradient5248"
 osb:paint="solid">
<stop
 style="stop-color:#000000;stop-opacity:1;"
 offset="0"
 id="stop5246" />
</linearGradient>
</defs>
<sodipodi:namedview
 id="base"
 pagecolor="#ffffff"
 bordercolor="#666666"
 borderopacity="1.0"
 inkscape:pageopacity="0.0"
 inkscape:pageshadow="2"
 inkscape:zoom="1.4"
 inkscape:cx="332.3985"
 inkscape:cy="283.0983"
 inkscape:document-units="px"
 inkscape:current-layer="layer1"
 showgrid="false"
 units="px"
 fit-margin-top="0"
 fit-margin-left="0"
 fit-margin-right="-2.7755576e-17"
 fit-margin-bottom="0"
 inkscape:pagecheckerboard="false"
 inkscape:window-width="1366"
 inkscape:window-height="705"
 inkscape:window-x="-8"
 inkscape:window-y="-8"
 inkscape:window-maximized="1" />
<metadata
 id="metadata5">
<rdf:RDF>
<cc:Work
 rdf:about="">
<dc:format>image/svg+xml</dc:format>
<dc:type
 rdf:resource="http://purl.org/dc/dcmitype/StillImage" />
<dc:title></dc:title>
</cc:Work>
</rdf:RDF>
</metadata>
<g
 inkscape:label="圖層 1"
 inkscape:groupmode="layer"
 id="layer1"
 transform="translate(0,-1208.1182)">
<path
 style="fill:#000000;stroke:none;stroke-width:1px;stroke-linecap:butt;stroke-linejoin:miter;stroke-opacity:1;fill-opacity:1"
 d="M 164.28571,1296.5468 C 171.42857,1296.5468 182.85714,1295.8325 198.57143,1293.6896 198.57143,1293.6896 209.07576,1292.4436 214.28571,1291.5468 225.79047,1289.5665 237.05794,1286.3328 248.57143,1284.4039 261.59085,1282.2227 277.85714,1280.1182 287.85714,1279.4039 297.85714,1278.6896 297.14286,1282.2611 287.14286,1285.8325 277.14286,1289.4039 254.28571,1297.2611 243.57143,1300.8325 232.85714,1304.4039 220.71429,1309.4039 212.14286,1311.5468 203.57143,1313.6896 188.57143,1317.2611 185,1314.4039 181.42857,1311.5468 168.57143,1305.8325 164.28571,1302.2611 160,1298.6896 164.28571,1296.5468 164.28571,1296.5468 Z"
 id="path5397"
 inkscape:connector-curvature="0"
 sodipodi:nodetypes="ccaassscccc" />
<path
 style="fill:#000000;stroke:#000000;stroke-width:1px;stroke-linecap:butt;stroke-linejoin:miter;stroke-opacity:1;fill-opacity:1"
 d="M 122.85714,1385.8325 C 130.87986,1381.2365 141.01648,1382.3054 150,1380.1182 165.60284,1376.3194 185,1372.2611 196.42857,1367.2611 207.85714,1362.2611 208.57143,1361.5468 208.57143,1361.5468 208.57143,1361.5468 230.941,1350.237 242.85714,1346.5468 247.71923,1345.0411 252.96003,1345.0771 257.85715,1343.6896 263.00502,1342.231 269.04262,1341.7273 272.85714,1337.9753 274.68534,1336.1771 273.42064,1331.9793 275.71428,1330.8324 281.44838,1327.9654 288.73561,1332.6237 294.28571,1335.8325 297.49226,1337.6864 301.83736,1339.9983 302.14286,1343.6896 302.3118,1345.7308 298.57143,1348.6896 298.57143,1348.6896 298.57143,1348.6896 286.03079,1351.5149 280,1353.6896 265.4673,1358.9301 250.61541,1364.2639 237.85714,1372.9753 229.37464,1378.7672 222.34246,1386.5575 215.71429,1394.4039 209.19384,1402.1228 202.14286,1414.4039 198.57143,1419.4039 195,1424.4039 185,1434.4039 190.71429,1437.2611 196.42857,1440.1182 220.71429,1433.6896 232.14286,1431.5468 243.57143,1429.4039 255.71429,1429.4039 257.85714,1426.5468 260,1423.6896 266.36855,1405.3511 275,1398.6896 279.53156,1395.1923 285.72652,1394.1927 291.42857,1393.6896 297.40046,1393.1627 306.18445,1390.7019 309.28571,1395.8325 312.05352,1400.4115 306.69992,1406.4919 303.57143,1410.8324 299.61414,1416.3229 293.37665,1419.773 287.85714,1423.6896 283.76101,1426.5963 279.06618,1428.5984 275,1431.5468 266.3862,1437.7927 258.12623,1444.6275 250.71429,1452.2611 237.73684,1465.6266 227.15182,1481.1276 215.71429,1495.8325 200.16078,1515.8292 179.28571,1545.1182 170,1556.5468 160.71429,1567.9753 148.51997,1584.5136 137.14286,1597.9753 130.93984,1605.3149 122.85714,1614.4039 117.85714,1619.4039 112.85714,1624.4039 105,1632.2611 100.71429,1632.9753 96.428572,1633.6896 88.150748,1634.4098 85,1630.1182 82.161671,1626.2522 87.021753,1616.2796 88.10687,1611.1903 89.193299,1606.0949 86.507728,1605.8826 88.571429,1601.5468 91.972923,1594.4003 97.142857,1592.9753 105,1584.4039 112.85714,1575.8325 123.57143,1567.9753 123.57143,1567.9753 127.23229,1567.4652 122.94606,1577.4509 126.42857,1578.6896 134.46064,1581.5464 140,1570.8325 147.14286,1563.6896 154.28571,1556.5468 160.27863,1548.6782 166.42858,1540.8325 170.42431,1535.735 174.15523,1530.4329 177.85714,1525.1182 178.83846,1523.7094 180.71429,1520.8325 180.71429,1520.8325 196.42857,1501.5468 217.33019,1478.5503 233.57143,1455.8325 236.18408,1452.178 243.89487,1445.3428 240.71429,1444.4039 235.98419,1443.0074 217.6432,1446.0657 206.42857,1448.6896 190.22504,1452.4808 167.85714,1458.6896 159.28571,1465.1182 150.71429,1471.5468 142.26432,1483.3301 133.57143,1492.2611 129.10915,1496.8456 126.38968,1505.5138 120,1505.8325 116.62022,1506.0011 114.5997,1501.7309 112.14286,1499.4039 106.75909,1494.3045 101.52136,1488.9601 97.142857,1482.9753 92.922958,1477.2073 81.428572,1469.4039 86.428572,1464.4039 91.428572,1459.4039 99.285714,1462.2611 107.14286,1462.2611 115,1462.2611 131.54089,1458.3618 142.85714,1453.6896 153.42534,1449.3263 166.42857,1441.5468 172.14286,1435.8325 177.85714,1430.1182 179.65576,1417.3951 182.85715,1407.9754 185.01467,1401.6272 193.33139,1393.4116 188.57143,1388.6896 184.896,1385.0434 178.53496,1391.3297 173.7155,1393.2208 166.27493,1396.1404 154.86658,1404.1436 152.14286,1403.6896 147.85714,1402.9753 138.08025,1407.0307 131.42857,1405.1182 125.20386,1403.3285 116.37437,1400.1328 115.71429,1393.6896 115.35356,1390.1685 119.78589,1387.592 122.85714,1385.8325 Z"
 id="path5401"
 inkscape:connector-curvature="0"
 sodipodi:nodetypes="aascaaaaaacaaascccaaaaaaaacascsssssacaacasasaaaassasaaasaaa" />
<path
 style="fill:none;stroke:#000000;stroke-width:1px;stroke-linecap:butt;stroke-linejoin:miter;stroke-opacity:1"
 d="M 362.14286,1405.8325 Z"
 id="path5405"
 inkscape:connector-curvature="0" />
<path
 style="fill:#000000;stroke:none;stroke-width:1px;stroke-linecap:butt;stroke-linejoin:miter;stroke-opacity:1;fill-opacity:1"
 d="M 277.85714,1452.2611 C 281.65188,1451.8499 286.46001,1450.4093 289.28571,1452.9753 293.74833,1457.0278 295.71429,1462.2611 292.14286,1470.8325 288.57143,1479.4039 283.07742,1501.4991 280.71429,1517.2611 278.20388,1534.0055 274.28571,1551.5468 277.85714,1567.9753 281.42857,1584.4039 290,1590.1182 295.71429,1592.2611 301.42857,1594.4039 328.57143,1600.1182 339.28571,1600.1182 350,1600.1182 370.32912,1598.6026 385.71429,1596.5468 402.05276,1594.3636 419.78545,1595.1004 434.28571,1587.2611 443.02491,1582.5364 448.73525,1573.5428 455,1565.8325 460.0805,1559.5797 465.71429,1550.1182 468.57143,1545.8325 471.42857,1541.5468 471.29144,1554.8043 472.14286,1559.404 473.63107,1567.4439 474.30147,1575.6277 474.8049,1583.7887 475.08142,1588.2714 476.32765,1592.9705 474.99999,1597.2611 473.53542,1601.9941 470.67916,1606.8586 466.42857,1609.4039 448.1101,1620.3734 424.13194,1615.4504 402.85714,1617.2611 387.65727,1618.5548 372.37853,1620.1681 357.14286,1619.4039 344.16171,1618.7527 331.31997,1616.2212 318.57143,1613.6896 313.75698,1612.7336 308.71042,1612.243 304.28571,1610.1182 291.87981,1604.1606 278.49119,1596.93 271.42857,1585.1182 263.63437,1572.0829 264.66641,1555.3012 264.28571,1540.1182 263.89553,1524.5574 266.92364,1509.075 269.28571,1493.6896 270.57533,1485.2897 275.41374,1477.1128 274.28571,1468.6896 273.72038,1464.4681 268.57143,1457.2611 268.57143,1457.2611 268.57143,1457.2611 267.50586,1455.7842 267.85714,1455.1182 269.47451,1452.0519 274.4106,1452.6346 277.85714,1452.2611 Z"
 id="path5407"
 inkscape:connector-curvature="0"
 sodipodi:nodetypes="aasaccsaaasaaaaaaaaaaaacaa" />
</g>
</svg>
