<?xml version="1.0" encoding="UTF-8" standalone="no"?>
<!-- Created with Inkscape (http://www.inkscape.org/) -->

<svg
 xmlns:osb="http://www.openswatchbook.org/uri/2009/osb"
 xmlns:dc="http://purl.org/dc/elements/1.1/"
 xmlns:cc="http://creativecommons.org/ns#"
 xmlns:rdf="http://www.w3.org/1999/02/22-rdf-syntax-ns#"
 xmlns:svg="http://www.w3.org/2000/svg"
 xmlns="http://www.w3.org/2000/svg"
 xmlns:sodipodi="http://sodipodi.sourceforge.net/DTD/sodipodi-0.dtd"
 xmlns:inkscape="http://www.inkscape.org/namespaces/inkscape"
 width="512"
 height="512"
 viewBox="0 0 512.00001 512.00001"
 version="1.1"
 id="svg8"
 inkscape:version="0.92.4 (5da689c313, 2019-01-14)"
 sodipodi:docname="U+53E3.svg">
<defs
 id="defs2">
<linearGradient
 id="linearGradient5248"
 osb:paint="solid">
<stop
 style="stop-color:#000000;stop-opacity:1;"
 offset="0"
 id="stop5246" />
</linearGradient>
</defs>
<sodipodi:namedview
 id="base"
 pagecolor="#ffffff"
 bordercolor="#666666"
 borderopacity="1.0"
 inkscape:pageopacity="0.0"
 inkscape:pageshadow="2"
 inkscape:zoom="1.4"
 inkscape:cx="332.75564"
 inkscape:cy="292.69173"
 inkscape:document-units="px"
 inkscape:current-layer="layer1"
 showgrid="false"
 units="px"
 fit-margin-top="0"
 fit-margin-left="0"
 fit-margin-right="-2.7755576e-17"
 fit-margin-bottom="0"
 inkscape:pagecheckerboard="false"
 inkscape:window-width="1366"
 inkscape:window-height="705"
 inkscape:window-x="-8"
 inkscape:window-y="-8"
 inkscape:window-maximized="1" />
<metadata
 id="metadata5">
<rdf:RDF>
<cc:Work
 rdf:about="">
<dc:format>image/svg+xml</dc:format>
<dc:type
 rdf:resource="http://purl.org/dc/dcmitype/StillImage" />
<dc:title></dc:title>
</cc:Work>
</rdf:RDF>
</metadata>
<g
 inkscape:label="圖層 1"
 inkscape:groupmode="layer"
 id="layer1"
 transform="translate(0,-1208.1182)">
<path
 style="fill:#000000;stroke:none;stroke-width:1px;stroke-linecap:butt;stroke-linejoin:miter;stroke-opacity:1;fill-opacity:1"
 d="M 201.42858,1414.4039 C 209.04842,1415.5893 216.69603,1412.1977 224.28571,1410.8325 237.19964,1408.5095 249.9579,1405.3785 262.85714,1402.9753 279.71164,1399.8352 307.85714,1393.6896 313.57143,1394.4039 319.28571,1395.1182 322.34732,1393.3749 325.71429,1390.8325 329.9842,1387.6082 329.13178,1378.6981 334.28571,1377.2611 340.43974,1375.5452 346.49242,1381.7766 351.42857,1385.8325 355.70499,1389.3463 358.81653,1395.1686 362.44934,1399.8842 364.51336,1402.5634 367.99271,1404.2201 368.57143,1407.9753 369.30574,1412.7401 365.73974,1417.2408 363.57143,1421.5467 359.85878,1428.9194 354.08854,1435.09 350,1442.2611 342.7746,1454.9341 336.17194,1468.0181 330.71429,1481.5468 328.40522,1487.2707 327.11453,1493.2 325.05623,1499.1773 323.65596,1503.2437 320.75318,1507.3628 321.42857,1511.5468 322.40774,1517.6128 333.57143,1521.5468 332.14286,1526.5468 330.71429,1531.5468 326.42857,1530.8325 320,1530.1182 313.57143,1529.4039 278.41511,1529.6226 257.85714,1532.2611 245.9974,1533.7833 233.10356,1533.9553 222.85714,1540.1182 217.21388,1543.5124 213.76101,1549.7124 210,1555.1182 207.20001,1559.1426 207.75209,1568.2505 202.85714,1567.9753 196.67641,1567.6279 198.2363,1556.4859 195.71429,1550.8324 193.45814,1545.7749 189.43929,1541.302 188.57143,1535.8325 187.70598,1530.3781 190.90117,1524.9233 190.71428,1519.4039 190.13911,1502.4169 182.14286,1477.2611 180.71429,1469.4039 179.28571,1461.5468 171.42857,1441.5468 162.85714,1435.8325 154.28571,1430.1182 146.42857,1422.9753 146.42857,1422.9753 146.42857,1422.9753 150.71429,1420.1182 156.42857,1421.5468 162.14286,1422.9753 177.14286,1423.6896 185,1435.1182 192.85714,1446.5468 197.85714,1466.5468 197.85714,1472.2611 197.85714,1477.9753 201.42857,1507.2611 203.57143,1513.6896 205.71429,1520.1182 206.42857,1522.2611 217.14286,1520.1182 227.85714,1517.9753 272.85714,1510.8325 280.71429,1510.8325 288.57143,1510.8325 298.57143,1511.5468 302.14286,1509.4039 305.71429,1507.2611 301.13659,1493.1506 302.14286,1485.1182 303.82255,1471.7102 309.33686,1459.0508 312.14286,1445.8325 314.1993,1436.1452 323.6993,1423.9687 317.14286,1416.5468 313.67137,1412.617 306.61499,1416.4893 301.42857,1417.261 290.00485,1418.9607 279.08807,1423.1387 267.85714,1425.8325 256.22989,1428.6213 244.27776,1430.1484 232.85714,1433.6896 227.95849,1435.2085 223.45138,1437.8259 218.57143,1439.4039 214.83514,1440.6121 210.92716,1443.3093 207.14286,1442.2611 202.74609,1441.0433 203.20454,1437.0777 199.8237,1433.8418 194.72085,1428.9578 186.34927,1423.9103 182.85714,1417.9753 180.22005,1413.4935 174.56992,1406.2963 178.57143,1402.9753 185.1264,1397.5352 193.01145,1413.0945 201.42858,1414.4039 Z"
 id="path5384"
 inkscape:connector-curvature="0"
 sodipodi:nodetypes="aaasaasasaaassssaaaaaaacsccsscsscaaaaaaasssaa" />
</g>
</svg>
