<?xml version="1.0" encoding="UTF-8" standalone="no"?>
<!-- Created with Inkscape (http://www.inkscape.org/) -->

<svg
 xmlns:dc="http://purl.org/dc/elements/1.1/"
 xmlns:cc="http://creativecommons.org/ns#"
 xmlns:rdf="http://www.w3.org/1999/02/22-rdf-syntax-ns#"
 xmlns:svg="http://www.w3.org/2000/svg"
 xmlns="http://www.w3.org/2000/svg"
 xmlns:sodipodi="http://sodipodi.sourceforge.net/DTD/sodipodi-0.dtd"
 xmlns:inkscape="http://www.inkscape.org/namespaces/inkscape"
 width="512"
 height="512"
 viewBox="0 0 512.00001 512.00001"
 version="1.1"
 id="svg8"
 inkscape:version="0.92.4 (5da689c313, 2019-01-14)"
 sodipodi:docname="U+7246.svg">
<defs
 id="defs2" />
<sodipodi:namedview
 id="base"
 pagecolor="#ffffff"
 bordercolor="#666666"
 borderopacity="1.0"
 inkscape:pageopacity="0.0"
 inkscape:pageshadow="2"
 inkscape:zoom="0.35"
 inkscape:cx="226.10219"
 inkscape:cy="217.14286"
 inkscape:document-units="px"
 inkscape:current-layer="layer1-2"
 showgrid="false"
 units="px"
 fit-margin-top="0"
 fit-margin-left="0"
 fit-margin-right="-2.7755576e-17"
 fit-margin-bottom="0"
 inkscape:pagecheckerboard="false"
 inkscape:window-width="921"
 inkscape:window-height="407"
 inkscape:window-x="498"
 inkscape:window-y="84"
 inkscape:window-maximized="0" />
<metadata
 id="metadata5">
<rdf:RDF>
<cc:Work
 rdf:about="">
<dc:format>image/svg+xml</dc:format>
<dc:type
 rdf:resource="http://purl.org/dc/dcmitype/StillImage" />
<dc:title></dc:title>
</cc:Work>
</rdf:RDF>
</metadata>
<g
 inkscape:label="圖層 1"
 inkscape:groupmode="layer"
 id="layer1"
 transform="translate(0,-1208.1182)">
<g
 id="layer1-2"
 inkscape:label="圖層 1"
 transform="translate(0,3.59375e-5)">
<path
 sodipodi:nodetypes="acacsssascaaaacaaacassaasscssaascscscassaaaa"
 inkscape:connector-curvature="0"
 id="path837"
 d="M 96.219362,1299.0214 C 99.841874,1298.5794 102.14286,1297.9753 106.42857,1302.9753 110.71429,1307.9753 120.53001,1312.2175 125.71429,1318.6896 129.70845,1323.6759 138.57143,1329.4039 134.28571,1335.8325 130,1342.2611 127.13837,1336.6159 126.42857,1339.4039 123.67874,1350.2049 120,1366.5468 120,1368.6896 120,1370.8325 117.14286,1380.1182 119.28571,1380.1182 121.42857,1380.1182 148.7995,1372.9351 163.86729,1371.5108 169.22101,1371.0048 172.85714,1367.261 180,1371.5468 182.44993,1373.0168 179.28571,1381.5468 174.28571,1383.6896 169.28571,1385.8325 142.0439,1389.5671 126.42857,1394.4039 124.48635,1395.0055 122.08184,1395.12 120.76505,1396.6693 112.89432,1405.9296 114.97281,1420.2934 112.85714,1432.2611 110.64131,1444.7954 110.00315,1457.5718 107.85714,1470.1182 107.07772,1474.675 104.28571,1482.2611 105,1483.6896 105.71429,1485.1182 140.82843,1459.1635 160.71429,1450.8325 164.12344,1449.4043 169.35299,1444.9168 171.42857,1447.9753 177.25794,1456.5651 160.16774,1465.605 152.85714,1472.9753 143.40034,1482.5093 123.57143,1495.1182 120.71429,1497.2611 117.85714,1499.4039 95.132573,1513.3266 83.571429,1522.9753 80.986268,1525.1328 77.142857,1525.8325 76.428572,1530.1182 75.714286,1534.4039 75,1540.1182 72.857143,1540.1182 70.714286,1540.1182 65.501621,1538.2471 62.142857,1536.5468 61.146814,1536.0426 60.309253,1535.2723 59.408266,1534.6131 53.583442,1530.3513 45,1527.2611 42.142857,1521.5468 39.285714,1515.8325 37.857143,1509.4039 39.285714,1509.4039 40.714286,1509.4039 50,1515.8325 52.857143,1512.9753 55.714286,1510.1182 97.561276,1488.8988 96.84699,1485.3274 96.132704,1481.756 98.753524,1456.9297 97.857143,1433.6896 97.647284,1428.2487 99.445599,1422.8958 99.668238,1417.4554 99.846203,1413.1067 102.87652,1406.8634 99.285714,1404.4039 89.283013,1397.5525 70,1415.8325 65,1416.5468 60,1417.2611 55,1416.5468 55,1416.5468 55,1416.5468 29.285714,1406.5468 28.571429,1400.8325 27.857143,1395.1182 26.428571,1392.9753 37.857143,1392.2611 49.285714,1391.5468 59.285714,1397.2611 65,1395.8325 70.714286,1394.4039 97.142857,1392.2611 98.571429,1387.9753 100,1383.6896 102.16465,1361.5571 103.15301,1348.2713 103.46078,1344.1341 103.57143,1335.8325 103.57143,1335.8325 100.83501,1329.128 84.285714,1324.4039 87.857143,1320.8325 91.428572,1317.2611 92.482494,1318.7097 92.857143,1316.5468 93.512386,1312.764 86.642345,1310.3532 87.142857,1306.5468 87.374103,1304.7882 89.532361,1303.9105 90.887601,1302.7662 92.546968,1301.365 94.063532,1299.2844 96.219362,1299.0214 Z"
 style="fill:#000000;fill-opacity:1;stroke:none;stroke-width:1px;stroke-linecap:butt;stroke-linejoin:miter;stroke-opacity:1" />
<path
 sodipodi:nodetypes="caasscaaaaac"
 inkscape:connector-curvature="0"
 id="path839"
 d="M 28.284271,1715.5725 C 28.284271,1715.5725 67.875952,1680.7796 86.368043,1662.0344 101.77412,1646.4175 116.50473,1630.0907 130.30968,1613.042 141.45637,1599.2761 151.56379,1585.5896 161.62441,1570.1105 163.90339,1566.6041 166.67517,1562.0293 171.22086,1562.0293 175.76654,1562.0293 179.80715,1564.0496 180.31223,1567.0801 180.81731,1570.1105 178.19933,1578.8542 175.76654,1584.2527 167.78584,1601.9624 155.60697,1617.5964 143.44166,1632.74 132.18137,1646.757 119.63057,1659.8295 106.06602,1671.6309 96.970414,1679.5443 86.841817,1686.2152 76.771593,1692.8441 68.25822,1698.4482 59.802349,1704.3192 50.507627,1708.5014 43.418485,1711.6912 28.284271,1715.5725 28.284271,1715.5725 Z"
 style="fill:#000000;fill-opacity:1;stroke:none;stroke-width:1px;stroke-linecap:butt;stroke-linejoin:miter;stroke-opacity:1" />
<path
 sodipodi:nodetypes="aaaaaascscccaaasaaasscscssasaassssccccasaaca"
 inkscape:connector-curvature="0"
 id="path849"
 d="M 244.96199,1534.2501 C 242.41788,1527.4829 237.69655,1521.7073 234.86047,1515.0572 233.81622,1512.6086 230.5334,1509.4407 232.33509,1507.4811 236.20433,1503.2727 244.33104,1508.2266 249.0026,1511.5217 253.77239,1514.8861 255.99321,1520.9459 258.59905,1526.1689 260.59615,1530.1717 261.96115,1534.4818 263.14474,1538.7958 265.50352,1547.3932 265.16504,1554.4532 268.1955,1565.0598 271.22596,1575.6664 272.74119,1594.3542 274.76149,1600.9202 276.7818,1607.4862 280.82241,1609.0014 280.82241,1609.0014 286.88887,1608.5681 305.06607,1604.9608 309.61176,1603.4456 314.15744,1601.9303 339.91633,1599.9101 348.50263,1597.8897 357.08892,1595.8694 365.17014,1594.8593 368.70568,1593.3441 372.24121,1591.8288 375.71327,1591.3244 379.31228,1590.8187 382.98394,1590.3029 386.93622,1589.0555 390.42396,1590.3136 392.77831,1591.1629 394.21994,1593.5848 395.9798,1595.3644 397.40529,1596.8059 399.60639,1601.8947 400.02041,1599.9101 404.35284,1579.1427 403.80729,1573.0363 404.56609,1559.5039 404.63207,1558.3272 404.55059,1557.1468 404.56609,1555.9684 404.73446,1543.1698 404.14755,1530.3023 405.57625,1517.5826 406.53446,1509.0516 410.62701,1492.3288 410.62701,1492.3288 410.13992,1486.4685 403.55594,1486.773 393.45442,1488.2882 383.35289,1489.8034 335.37065,1496.8745 330.31988,1497.8846 325.26912,1498.8948 290.41886,1511.5217 286.88332,1511.5217 283.34779,1511.5217 264.65997,1513.542 265.16504,1508.9963 265.67012,1504.4506 274.25642,1503.9456 292.94424,1499.3999 311.63206,1494.8542 351.53309,1486.773 364.66507,1484.2476 377.79705,1481.7222 393.75362,1476.1199 408.6067,1476.6715 412.07511,1476.8003 416.16412,1478.8753 418.70823,1479.1968 418.70823,1479.1968 431.11832,1486.6806 435.37575,1492.3288 437.78454,1495.5245 439.88459,1499.4388 439.92143,1503.4405 440.00288,1512.2882 432.34529,1518.0877 430.32498,1528.1892 428.30468,1538.2907 415.67777,1596.3745 412.14224,1606.9811 408.6067,1617.5877 410.12193,1629.7095 404.56609,1629.7095 399.01026,1629.7095 394.46457,1627.1842 391.93919,1620.6182 389.41381,1614.0522 387.89858,1605.971 383.85797,1606.476 379.81736,1606.9811 349.0077,1609.5065 331.83511,1612.537 314.66252,1615.5674 297.995,1619.1029 291.42901,1622.6385 284.86302,1626.174 281.32748,1630.7197 275.77165,1631.7299 270.21581,1632.74 266.83348,1629.6833 263.64981,1626.6791 258.61153,1621.9248 254.55844,1613.042 254.55844,1607.9913 254.55844,1602.9405 255.70614,1596.5511 255.56859,1590.8187 255.45486,1586.079 254.73584,1581.3682 254.05336,1576.6765 253.11693,1570.239 253.04321,1565.5649 250.51783,1557.4836 247.99245,1549.4024 247.76412,1541.7036 244.96199,1534.2501 Z"
 style="fill:#000000;fill-opacity:1;stroke:none;stroke-width:1px;stroke-linecap:butt;stroke-linejoin:miter;stroke-opacity:1" />
<path
 sodipodi:nodetypes="sacsaaccsscccssssscccsaaccas"
 inkscape:connector-curvature="0"
 id="path855"
 d="M 305.35714,1530.8325 C 318.34723,1526.5583 327.64024,1525.9506 338.92857,1524.4039 347.45009,1523.2363 364.64286,1522.2611 364.64286,1522.2611 364.64286,1522.2611 378.57143,1527.2611 378.21429,1531.1896 377.85714,1535.1182 373.25615,1536.3587 371.42858,1539.4039 369.17606,1543.1572 367.75851,1547.3764 366.42857,1551.5468 365.46345,1554.5732 363.92857,1559.7611 364.28571,1560.8325 364.64286,1561.9039 375,1560.1182 371.42857,1564.0468 367.85714,1567.9753 367.14286,1568.3325 361.07143,1569.4039 355,1570.4753 339.64286,1572.9753 333.57143,1573.6896 327.5,1574.4039 320.71429,1575.1182 320.35714,1577.2611 320,1579.4039 320.35714,1584.4039 318.57143,1585.4753 316.78571,1586.5468 314.64286,1587.6182 310.35714,1580.4753 306.07143,1573.3325 305.35714,1567.2611 302.85714,1560.8325 300.35714,1554.4039 302.14286,1558.3325 294.64286,1551.5468 287.14286,1544.7611 282.5,1540.1182 285.71429,1539.4039 288.92857,1538.6896 290,1540.1182 298.92857,1542.6182 307.85714,1545.1182 306.78571,1544.7611 309.28571,1548.3325 311.78571,1551.9039 313.92857,1559.7611 315.35714,1562.9753 316.78571,1566.1896 315.71429,1568.6896 318.57143,1568.3325 321.42857,1567.9753 331.78571,1565.8325 342.14286,1563.6896 352.5,1561.5468 354.28571,1560.4753 354.28571,1557.2611 354.28571,1554.0468 355.10047,1546.7284 356.07143,1541.5468 356.50221,1539.2479 359.07778,1536.7562 357.85714,1534.7611 355.822,1531.4347 355,1530.1182 346.42857,1532.2611 337.85714,1534.4039 330.35714,1537.6182 327.5,1537.9753 324.64286,1538.3325 319.96864,1539.0181 316.42857,1537.9753 312.2157,1536.7343 300.55941,1532.4111 305.35714,1530.8325 Z"
 style="fill:#000000;fill-opacity:1;stroke:none;stroke-width:1px;stroke-linecap:butt;stroke-linejoin:miter;stroke-opacity:1" />
<path
 sodipodi:nodetypes="caaaaaaaacscccccsasacaaccaccassaacc"
 inkscape:connector-curvature="0"
 id="path857"
 d="M 278.57143,1251.5468 C 278.57143,1251.5468 282.11101,1250.3621 283.92857,1250.4753 285.05578,1250.5455 286.05958,1251.2274 287.14286,1251.5468 291.26943,1252.7635 295.52377,1253.5193 299.64286,1254.7611 305.55447,1256.5434 312.08382,1257.2928 317.14286,1260.8325 320.54006,1263.2095 323.10807,1266.7859 325,1270.4753 327.08203,1274.5354 327.88415,1279.1789 328.57143,1283.6896 329.038,1286.7518 327.01608,1290.5387 328.92857,1292.9753 329.99879,1294.3388 332.19962,1294.2803 333.92857,1294.4039 341.83823,1294.9695 355.35714,1291.5468 357.5,1291.1896 359.64286,1290.8325 370,1289.4039 378.57143,1288.3325 387.14286,1287.2611 396.78571,1286.1896 401.78571,1285.4753 406.78571,1284.7611 408.21429,1280.4753 414.28571,1280.8325 420.35714,1281.1896 432.14286,1286.5468 435.71429,1289.0468 439.28571,1291.5468 441.07143,1294.7611 438.21429,1297.6182 435.35714,1300.4753 433.92857,1304.0468 427.85714,1303.6896 421.78571,1303.3325 409.28571,1299.7611 403.21429,1300.1182 397.14286,1300.4753 386.53484,1299.2846 378.21429,1299.7611 368.02755,1300.3445 351.78571,1302.9753 347.85714,1303.6896 343.92857,1304.4039 329.91486,1306.6182 321.07143,1308.6896 309.14618,1311.4829 292.85714,1317.2611 285.71429,1318.6896 278.57143,1320.1182 267.90837,1322.3165 259.28571,1325.1182 252.43139,1327.3453 246.29997,1331.6767 239.28571,1333.3325 236.14884,1334.073 233.21429,1335.1182 229.64286,1334.0468 226.07143,1332.9753 217.5,1326.9039 214.28571,1321.5468 211.07143,1316.1896 210.79655,1308.6273 215.35714,1306.5468 219.14797,1304.8174 220.35714,1312.6182 225.35714,1314.0468 230.35714,1315.4753 239.64286,1314.7611 249.28571,1312.9753 258.92857,1311.1896 275.65086,1306.2738 288.92857,1303.3325 297.22579,1301.4945 313.92857,1300.8325 313.92857,1298.3325 313.92857,1295.8325 312.85714,1295.4753 307.85714,1291.9039 302.85714,1288.3325 297.92163,1283.7277 292.85714,1279.7611 288.97697,1276.7221 284.75374,1274.1085 281.07143,1270.8325 277.98904,1268.0903 270.71429,1267.2611 272.5,1261.9039 274.28571,1256.5468 278.57143,1251.5468 278.57143,1251.5468 Z"
 style="fill:#000000;fill-opacity:1;stroke:none;stroke-width:1px;stroke-linecap:butt;stroke-linejoin:miter;stroke-opacity:1" />
<path
 sodipodi:nodetypes="acacasaccacsaaasasasa"
 inkscape:connector-curvature="0"
 id="path859"
 d="M 214.28571,1354.0468 C 212.76629,1358.8651 220.71429,1360.8325 222.85714,1366.5468 225,1372.2611 227.89136,1376.2764 227.85714,1381.5468 227.81949,1387.3447 223.21429,1394.4039 222.14286,1397.9753 221.07143,1401.5468 218.3835,1413.8879 216.78571,1421.9039 214.8957,1431.3859 211.78571,1444.4039 211.78571,1450.4753 211.78571,1456.5468 210.60719,1472.5786 208.21429,1483.3325 206.13731,1492.6666 203.21429,1502.9753 198.92857,1510.4753 194.64286,1517.9753 188.92857,1527.6182 186.78571,1532.2611 184.64286,1536.9039 179.03935,1540.546 178.21429,1545.8325 177.70225,1549.1133 177.14286,1558.3325 180.71429,1555.4753 184.28571,1552.6182 193.21429,1542.2611 196.07143,1535.1182 198.92857,1527.9753 210.05912,1513.064 214.28571,1500.8325 218.03807,1489.9734 218.5707,1478.2533 220.35714,1466.9039 222.69225,1452.0686 222.49552,1436.7549 226.42857,1422.2611 228.0498,1416.2867 228.92857,1411.1897 233.57143,1405.1182 236.87586,1400.797 241.29754,1397.3384 242.5,1392.2611 244.05197,1385.708 240.35714,1377.6182 239.64286,1372.2611 238.92857,1366.9039 238.08523,1359.4775 233.92857,1355.1182 231.19768,1352.2542 228.21429,1350.8325 222.85714,1350.8325 217.5,1350.8325 215.20342,1351.1366 214.28571,1354.0468 Z"
 style="fill:#000000;fill-opacity:1;stroke:none;stroke-width:1px;stroke-linecap:butt;stroke-linejoin:miter;stroke-opacity:1" />
<path
 sodipodi:nodetypes="aaaccccsaacscacsscsasccccsaaaacsaascsccscsscsasscscccsasaaccaccaascasa"
 inkscape:connector-curvature="0"
 id="path861"
 d="M 260.35714,1362.9753 C 264.60114,1361.2538 269.35268,1364.9277 273.92857,1365.1182 282.03864,1365.4558 290.1812,1364.4973 298.21429,1363.3325 307.61963,1361.9687 323.21429,1359.4039 326.07143,1357.2611 328.92857,1355.1182 334.64286,1345.1182 330.71429,1341.9039 326.78571,1338.6896 319.28571,1334.0468 315.71429,1331.5468 312.14286,1329.0468 309.64286,1325.4753 315.35714,1324.0468 321.07143,1322.6182 324.64286,1321.5468 334.28571,1325.8325 343.92857,1330.1182 348.95286,1331.1311 354.64286,1336.1896 356.8884,1338.1859 358.84426,1340.793 359.64286,1343.6896 360.27648,1345.9878 357.85714,1351.1896 359.28571,1350.8325 360.71429,1350.4753 365,1350.1182 369.28571,1348.3325 373.57143,1346.5468 381.07143,1344.7611 386.42857,1344.4039 391.78571,1344.0468 396.90865,1345.2269 401.42857,1347.6182 404.62897,1349.3114 410.35714,1353.3325 409.28571,1355.1182 408.21429,1356.9039 405.35714,1360.4753 402.14286,1360.4753 398.92857,1360.4753 380.35714,1357.9753 373.92857,1359.4039 367.5,1360.8325 357.85714,1361.5468 356.07143,1362.6182 354.28571,1363.6896 352.14286,1366.1896 352.14286,1370.1182 352.14286,1374.0468 350.15124,1393.4448 349.28571,1405.1182 348.62404,1414.0421 348.92857,1425.1182 347.5,1431.9039 346.07143,1438.6896 345.35714,1442.9753 344.64286,1446.5468 343.92857,1450.1182 343.92857,1451.9039 346.78571,1452.2611 349.64286,1452.6182 396.42857,1443.6896 403.57143,1443.3325 410.71429,1442.9753 422.85714,1442.6182 426.42857,1441.5468 430,1440.4753 431.78571,1437.6182 436.42857,1436.9039 441.07143,1436.1896 450.25327,1438.2866 456.78572,1440.4753 462.23798,1442.302 468.43024,1443.9415 472.14286,1448.3325 473.67436,1450.1438 475.38005,1453.0137 474.28572,1455.1182 472.09706,1459.3272 465.42682,1458.8583 460.71429,1459.4039 454.42881,1460.1317 447.85714,1459.7611 441.78571,1457.9753 435.71429,1456.1896 428.57143,1454.0468 420.71429,1454.0468 420.71429,1454.0468 402.85133,1453.7247 393.92857,1454.0468 384.02828,1454.4042 374.09575,1454.8089 364.28571,1456.1896 355.13001,1457.4782 342.14286,1460.8325 337.14286,1461.9039 332.14286,1462.9753 287.14286,1475.8325 281.78571,1478.6896 276.42857,1481.5468 265.35714,1485.4753 260,1486.9039 254.64286,1488.3325 247.5,1483.6896 247.5,1483.6896 247.5,1483.6896 229.28571,1470.4753 230.71429,1468.3325 232.14286,1466.1896 232.5,1467.6182 237.85714,1468.3325 243.21429,1469.0468 248.57143,1471.5468 253.21429,1470.4753 257.85714,1469.4039 256.42857,1471.5468 274.28571,1466.5468 292.14286,1461.5468 308.57143,1457.9753 318.57143,1456.1896 328.57143,1454.4039 340.35714,1456.5468 338.57143,1451.9039 336.78571,1447.2611 335.35714,1439.4039 334.64286,1429.0468 333.92857,1418.6896 333.25215,1405.722 332.85714,1394.0468 332.61558,1386.907 336.42857,1375.1182 332.5,1372.6182 328.57143,1370.1182 329.64286,1367.6182 320.71429,1370.8325 311.78571,1374.0468 312.14286,1372.9753 305.71429,1375.8325 299.28571,1378.6896 295.71429,1376.9039 298.21429,1380.8325 300.71429,1384.7611 307.5,1387.9753 306.78571,1391.5468 306.07143,1395.1182 304.64286,1400.1182 298.21429,1410.4753 291.78571,1420.8325 288.57143,1422.2611 292.14286,1422.9753 295.71429,1423.6896 309.28571,1425.8325 314.28571,1426.9039 319.28571,1427.9753 323.33425,1431.4924 323.92857,1435.8325 324.42165,1439.4333 322.14286,1444.7611 318.21429,1445.1182 314.28571,1445.4753 309.53798,1445.7403 305.71429,1444.0468 301.55518,1442.2047 299.12167,1437.7746 295.71429,1434.7611 293.49922,1432.8021 291.42857,1426.9039 288.92857,1429.0468 L 286.42857,1431.1896 C 286.42857,1431.1896 279.51542,1436.9948 275.71429,1439.4039 271.98161,1441.7696 267.5,1443.6896 263.92857,1445.4753 260.35714,1447.2611 250.71429,1447.6182 256.42857,1442.2611 262.14286,1436.9039 267.92131,1428.4439 273.21429,1421.1896 276.25024,1417.0287 279.40971,1412.9025 281.78571,1408.3325 284.96748,1402.2126 291.78571,1392.2611 289.28571,1389.0468 286.78571,1385.8325 282.85714,1385.1182 277.85714,1383.6896 272.85714,1382.2611 267.19781,1381.0897 263.21429,1377.6182 260.19731,1374.989 257.14286,1371.1896 257.14286,1367.2611 257.14286,1363.3325 258.70236,1363.6465 260.35714,1362.9753 Z"
 style="fill:#000000;fill-opacity:1;stroke:none;stroke-width:1px;stroke-linecap:butt;stroke-linejoin:miter;stroke-opacity:1" />
<path
 sodipodi:nodetypes="assccsaaaaacasaccsaa"
 inkscape:connector-curvature="0"
 id="path863"
 d="M 376.78571,1374.7611 C 374.70146,1376.804 377.14286,1375.8325 375,1383.3325 372.85714,1390.8325 372.85714,1396.9039 370.35714,1402.6182 367.85714,1408.3325 367.5,1410.4753 363.21429,1417.2611 358.92857,1424.0468 357.5,1425.4753 354.28572,1429.0467 351.07143,1432.6182 349.652,1439.8724 356.78571,1435.8325 366.39748,1430.3892 371.31443,1425.4281 377.5,1419.0468 380.10181,1416.3627 380.61498,1410.8251 384.28571,1410.1182 388.37553,1409.3306 391.40881,1414.4372 395,1416.5468 399.73625,1419.329 404.17887,1422.738 409.28571,1424.7611 413.60785,1426.4734 418.38467,1429.2441 422.85714,1427.9753 424.63877,1427.4699 426.78571,1424.0468 426.78571,1424.0468 426.78571,1424.0468 429.62781,1420.1371 429.28571,1417.9753 428.79729,1414.8889 429.28571,1413.3325 423.21429,1410.8325 417.14286,1408.3325 411.64592,1406.2574 405.71429,1404.4039 402.54486,1403.4135 399.28571,1403.3325 396.07143,1401.9039 392.85714,1400.4753 395,1401.5468 398.21429,1394.4039 399.28571,1387.2611 400.62539,1381.6572 396.07143,1379.7611 389.15263,1376.8804 387.42162,1374.2713 382.5,1373.6896 380.57544,1373.4621 378.16971,1373.4046 376.78571,1374.7611 Z"
 style="fill:#000000;fill-opacity:1;stroke:none;stroke-width:1px;stroke-linecap:butt;stroke-linejoin:miter;stroke-opacity:1" />
</g>
</g>
</svg>
