<?xml version="1.0" encoding="UTF-8" standalone="no"?>
<!-- Created with Inkscape (http://www.inkscape.org/) -->

<svg
 xmlns:osb="http://www.openswatchbook.org/uri/2009/osb"
 xmlns:dc="http://purl.org/dc/elements/1.1/"
 xmlns:cc="http://creativecommons.org/ns#"
 xmlns:rdf="http://www.w3.org/1999/02/22-rdf-syntax-ns#"
 xmlns:svg="http://www.w3.org/2000/svg"
 xmlns="http://www.w3.org/2000/svg"
 xmlns:sodipodi="http://sodipodi.sourceforge.net/DTD/sodipodi-0.dtd"
 xmlns:inkscape="http://www.inkscape.org/namespaces/inkscape"
 width="512"
 height="512"
 viewBox="0 0 512.00001 512.00001"
 version="1.1"
 id="svg8"
 inkscape:version="0.92.4 (5da689c313, 2019-01-14)"
 sodipodi:docname="U+9069.svg">
<defs
 id="defs2">
<linearGradient
 id="linearGradient5248"
 osb:paint="solid">
<stop
 style="stop-color:#000000;stop-opacity:1;"
 offset="0"
 id="stop5246" />
</linearGradient>
</defs>
<sodipodi:namedview
 id="base"
 pagecolor="#ffffff"
 bordercolor="#666666"
 borderopacity="1.0"
 inkscape:pageopacity="0.0"
 inkscape:pageshadow="2"
 inkscape:zoom="0.98994949"
 inkscape:cx="67.969765"
 inkscape:cy="315.46752"
 inkscape:document-units="px"
 inkscape:current-layer="layer1"
 showgrid="false"
 units="px"
 fit-margin-top="0"
 fit-margin-left="0"
 fit-margin-right="-2.7755576e-17"
 fit-margin-bottom="0"
 inkscape:pagecheckerboard="false"
 inkscape:window-width="1366"
 inkscape:window-height="705"
 inkscape:window-x="-8"
 inkscape:window-y="-8"
 inkscape:window-maximized="1" />
<metadata
 id="metadata5">
<rdf:RDF>
<cc:Work
 rdf:about="">
<dc:format>image/svg+xml</dc:format>
<dc:type
 rdf:resource="http://purl.org/dc/dcmitype/StillImage" />
<dc:title></dc:title>
</cc:Work>
</rdf:RDF>
</metadata>
<g
 inkscape:label="圖層 1"
 inkscape:groupmode="layer"
 id="layer1"
 transform="translate(0,-1208.1182)">
<path
 style="fill:#000000;stroke:none;stroke-width:1px;stroke-linecap:butt;stroke-linejoin:miter;stroke-opacity:1;fill-opacity:1"
 d="M 60.609153,1356.4633 C 62.578257,1354.3629 66.151158,1356.4238 68.911528,1356.6293 73.557066,1356.9752 78.11375,1358.5148 82.771232,1358.4223 92.694844,1358.2253 102.34786,1351.7338 112.12693,1353.4328 115.3118,1353.9861 118.45348,1355.7108 121.35421,1357.3763 123.85092,1358.8098 127.85739,1359.6778 128.28937,1362.5242 128.69767,1365.2145 125.75325,1367.6303 123.47321,1369.1156 113.58756,1375.5554 95.964492,1376.6663 88.893424,1376.6663 81.822356,1376.6663 68.677089,1376.35 62.629458,1369.5953 59.675256,1366.2957 57.580078,1359.6943 60.609153,1356.4633 Z"
 id="path5351"
 inkscape:connector-curvature="0"
 sodipodi:nodetypes="saasaaasas" />
<path
 style="fill:none;stroke:#000000;stroke-width:1px;stroke-linecap:butt;stroke-linejoin:miter;stroke-opacity:1"
 d="M 182.83761,1333.2298 C 178.797,1333.2298 182.83761,1333.2298 182.83761,1333.2298 Z"
 id="path5353"
 inkscape:connector-curvature="0" />
<path
 style="fill:#000000;stroke:none;stroke-width:1px;stroke-linecap:butt;stroke-linejoin:miter;stroke-opacity:1;fill-opacity:1"
 d="M 40.714286,1450.4753 C 42.914564,1447.3654 48.36275,1450.9478 52.142857,1450.4753 59.821192,1449.5155 67.176518,1446.7938 74.642857,1444.7611 84.930339,1441.9604 94.698807,1436.1087 105.35714,1435.8325 109.5139,1435.7248 114.31564,1436.0156 117.5,1438.6896 119.58294,1440.4387 121.37555,1443.5513 120.71429,1446.1896 119.60234,1450.6261 113.9249,1452.413 110,1454.7611 100.1136,1460.6757 82.857143,1466.1896 78.214286,1468.3325 73.571429,1470.4753 65.246318,1471.0415 58.928572,1469.7611 53.814767,1468.7247 48.433125,1466.5474 45,1462.6182 42.175777,1459.3859 38.235146,1453.9793 40.714286,1450.4753 Z"
 id="path5355"
 inkscape:connector-curvature="0"
 sodipodi:nodetypes="aaaaaaacaaa" />
<path
 style="fill:#000000;stroke:none;stroke-width:1px;stroke-linecap:butt;stroke-linejoin:miter;stroke-opacity:1;fill-opacity:1"
 d="M 62.857143,1506.9039 C 67.030501,1506.8742 71.320447,1506.5585 75.357143,1507.6182 82.412152,1509.4702 89.971822,1511.9771 95,1517.2611 100.80814,1523.3647 104.28571,1536.9039 105,1540.4753 105.71429,1544.0468 108.86308,1550.2129 111.42857,1554.7611 114.41374,1560.0533 119.33705,1564.2003 121.78571,1569.7611 124.14825,1575.1264 124.38059,1581.1952 125.71429,1586.9039 126.29894,1589.4064 121.78571,1593.6896 127.5,1594.4039 133.21429,1595.1182 144.99887,1599.2786 153.57143,1602.2611 159.37584,1604.2805 164.87382,1607.1342 170.71429,1609.0468 193.05134,1616.3617 235.35714,1625.8325 238.92857,1626.9039 242.5,1627.9753 260.71429,1632.2611 271.78571,1633.6896 282.85714,1635.1182 289.02438,1638.1562 297.85714,1638.6896 311.6743,1639.524 325.4967,1637.0462 339.28571,1635.8325 352.64371,1634.6567 365.88226,1631.9543 379.28571,1631.5468 389.649,1631.2317 402.85714,1633.6896 410.35714,1632.9753 417.85714,1632.2611 437.51296,1631.7608 451.07143,1630.8325 460.9643,1630.1552 475.35714,1628.6896 480.71429,1628.3325 486.07143,1627.9753 486.78572,1628.6896 486.07143,1630.1182 485.35714,1631.5468 480.71429,1634.7611 474.64286,1636.9039 468.57143,1639.0468 445.71429,1645.8325 441.42857,1647.2611 437.14286,1648.6896 425.71429,1650.1182 420.71429,1650.8325 415.71429,1651.5468 409.70167,1650.7576 404.64286,1652.6182 399.65362,1654.4532 395.46813,1658.0911 391.42857,1661.5468 387.84415,1664.6131 384.42582,1667.9949 381.78571,1671.9039 379.43091,1675.3905 380.18433,1681.4363 376.42857,1683.3324 374.26105,1684.4268 371.56495,1682.741 369.28571,1681.9039 363.63589,1679.8288 358.99581,1675.5903 353.49695,1673.143 343.6309,1668.7521 333.46695,1664.6309 322.85715,1662.6182 316.2126,1661.3577 309.28797,1662.6437 302.58771,1661.7243 295.42151,1660.741 288.47797,1658.5272 281.45253,1656.8054 274.16128,1655.0184 266.37291,1654.5155 259.64286,1651.1896 255.84245,1649.3115 253.71727,1644.5028 249.64285,1643.3325 246.8788,1642.5386 243.93611,1644.4034 241.06438,1644.2503 236.80972,1644.0234 233.05908,1642.5667 228.57143,1641.5468 220.71429,1639.7611 194.06474,1632.1175 177.5,1625.4754 169.00047,1622.0672 161.30624,1616.8638 152.85714,1613.3325 147.16028,1610.9515 141.42197,1608.4193 135.35714,1607.2611 127.28104,1605.7188 116.42857,1604.0468 110.71429,1606.1896 105,1608.3325 95.357143,1612.6182 91.071429,1614.4039 86.785714,1616.1896 84.308639,1620.3352 80.357143,1619.7611 78.129016,1619.4374 77.139313,1616.6057 75.425147,1615.1459 73.340394,1613.3706 69.522349,1612.7913 68.928572,1610.1182 67.912577,1605.5443 71.568434,1600.3748 75.357143,1597.6182 80.722101,1593.7148 84.285714,1593.6896 95,1594.4039 105.71429,1595.1182 108.21429,1595.4753 110.35714,1592.6182 112.5,1589.7611 111.78571,1576.5468 111.07143,1572.6182 110.35714,1568.6896 108.17448,1563.6178 106.07143,1559.4039 102.98902,1553.2276 99.049621,1547.4939 95,1541.9039 91.378316,1536.9046 87.783012,1531.7698 83.214286,1527.6182 79.280026,1524.0431 74.285714,1522.2611 70,1518.6896 65.714286,1515.1182 60.714286,1511.5468 59.285714,1509.7611 57.857143,1507.9753 57.405298,1508.1079 57.857143,1507.2611 58.643765,1505.7869 61.186271,1506.9158 62.857143,1506.9039 Z"
 id="path5357"
 inkscape:connector-curvature="0"
 sodipodi:nodetypes="aaacaaasaascaaacacsccsaaaaaaaaaaaasaaacsaaaasccaaaccaa" />
<path
 style="fill:none;stroke:#000000;stroke-width:1px;stroke-linecap:butt;stroke-linejoin:miter;stroke-opacity:1"
 d="M 137.14286,1549.7611 Z"
 id="path5359"
 inkscape:connector-curvature="0" />
<path
 style="fill:#000000;stroke:none;stroke-width:1px;stroke-linecap:butt;stroke-linejoin:miter;stroke-opacity:1;fill-opacity:1"
 d="M 227.28432,1262.5191 C 227.28432,1262.5191 258.01524,1275.8115 272.74119,1283.7323 275.90845,1285.4359 279.15156,1287.1001 281.93716,1289.3748 284.76235,1291.6818 288.55754,1293.8225 289.40871,1297.3693 290.61487,1302.3953 288.6133,1308.4637 285.11556,1312.2691 281.76182,1315.9178 276.07159,1316.5329 271.22596,1317.5724 265.53726,1318.7928 259.56722,1317.8084 253.80083,1318.5826 248.17188,1319.3384 242.65838,1320.8029 237.13331,1322.1181 225.27493,1324.941 213.78,1329.331 201.77797,1331.462 195.53472,1332.5705 189.14908,1332.6197 182.83761,1333.2298 177.78521,1333.7182 165.91756,1331.9671 167.68532,1334.745 168.79705,1336.492 171.62002,1336.6058 175.68525,1337.7238 178.08419,1338.3835 184.82833,1341.1627 186.80952,1341.8773 194.4221,1344.6231 201.52543,1349.3922 206.5762,1348.6346 211.62696,1347.877 228.48925,1340.3012 239.65869,1336.7653 251.14595,1333.1288 262.82982,1330.1319 274.50895,1327.1689 287.49274,1323.8749 300.41144,1320.104 313.65237,1318.0775 329.09032,1315.7147 352.03816,1314.7945 360.37192,1314.5419 368.70568,1314.2894 380.27297,1313.7122 390.17142,1314.5419 396.72199,1315.091 403.06313,1317.3149 409.61686,1317.825 416.66711,1318.3737 423.94476,1319.1847 430.83006,1317.5724 435.55908,1316.465 443.96205,1311.2589 443.96205,1311.2589 444.87882,1309.2009 438.56546,1306.8125 436.40941,1305.5016 432.70734,1303.2508 428.99745,1301.3573 426.28437,1300.3998 421.99123,1298.8846 414.16254,1296.3592 408.60671,1296.1067 403.05087,1295.8541 395.22218,1296.8643 389.16127,1297.8744 383.10035,1298.8846 373.34656,1300.3079 365.42268,1301.41 353.06434,1303.1288 334.61303,1305.198 328.29958,1306.2082 321.98612,1307.2183 318.95567,1309.4912 320.4709,1303.4303 321.98612,1297.3694 318.5111,1293.0334 315.92521,1288.5305 313.641,1284.5529 310.28304,1281.1375 306.5813,1278.429 297.95018,1272.1138 284.86302,1266.3072 277.53941,1264.7919 270.21581,1263.2767 256.83128,1259.9937 249.76022,1258.9836 242.68915,1257.9734 243.95184,1259.2361 235.61808,1258.9836 227.28432,1258.731 224.5064,1257.9734 224.5064,1260.2463 224.5064,1262.5191 227.28432,1262.5191 227.28432,1262.5191 Z"
 id="path5361"
 inkscape:connector-curvature="0"
 sodipodi:nodetypes="caaaaaaaaacsssaaacaaasssccaccaacccsc" />
<path
 style="fill:#000000;stroke:none;stroke-width:1px;stroke-linecap:butt;stroke-linejoin:miter;stroke-opacity:1;fill-opacity:1"
 d="M 229.64286,1365.8325 C 229.64286,1365.8325 228.90843,1361.5462 230.35714,1360.4753 234.43336,1357.4622 240.45733,1361.6767 245.35714,1362.9753 250.01732,1364.2104 255.33626,1364.76 258.92857,1367.9753 263.88737,1372.4136 266.21675,1379.3828 267.85714,1385.8325 268.70863,1389.1803 271.06499,1394.2385 268.21429,1396.1896 264.47337,1398.7499 259.58773,1393.1876 255.71429,1390.8325 248.34243,1386.3505 241.59329,1380.7182 235.71429,1374.4039 233.32842,1371.8414 229.64286,1365.8325 229.64286,1365.8325 Z"
 id="path5363"
 inkscape:connector-curvature="0"
 sodipodi:nodetypes="caaaaaaac" />
<path
 style="fill:#000000;stroke:none;stroke-width:1px;stroke-linecap:butt;stroke-linejoin:miter;stroke-opacity:1;fill-opacity:1"
 d="M 313.57143,1325.4753 C 313.57143,1325.4753 321.74227,1327.0851 325.51528,1328.7633 329.71731,1330.6323 333.74786,1333.0873 337.14286,1336.1896 343.03167,1341.5706 349.4512,1347.4903 351.78571,1355.1182 352.86798,1358.6544 353.18067,1363.1519 351.07143,1366.1896 349.56102,1368.3648 346.04459,1367.9996 343.82168,1369.4389 340.3817,1371.6663 337.76816,1374.9673 334.64285,1377.6182 327.99297,1383.2586 317.5,1391.5468 314.28571,1394.0468 311.07143,1396.5468 308.21429,1399.4039 307.5,1401.9039 306.78571,1404.4039 308.57143,1405.4753 313.21429,1404.7611 317.85714,1404.0468 334.37582,1401.4528 345,1400.1182 349.51334,1399.5513 354.80719,1401.2434 358.57143,1398.6896 363.02207,1395.6701 360.8548,1385.7125 366.07143,1384.4039 374.30225,1382.3392 380.77696,1393.0785 387.14286,1398.6896 390.11694,1401.3111 394.18597,1403.7382 395,1407.6182 395.56433,1410.3081 396.25231,1412.9317 392.5,1415.4753 392.5,1415.4753 389.68053,1417.9208 388.57143,1419.4039 386.3546,1422.3683 384.65906,1425.729 383.25903,1429.1556 380.93279,1434.8492 379.06321,1440.8123 378.21429,1446.9039 376.53827,1458.9305 378.34625,1471.1904 378.21429,1483.3325 378.03571,1499.764 377.4841,1516.1893 377.14286,1532.6182 376.89312,1544.6418 376.42857,1562.6182 376.42857,1568.6896 376.42857,1574.7611 376.65477,1578.6899 376.78571,1583.6896 377.00398,1592.0235 380,1600.8325 377.5,1608.6896 375,1616.5468 373.91772,1620.3338 370,1624.7611 368.51146,1626.4432 366.49692,1628.7273 364.28571,1628.3325 359.69118,1627.5121 358.21575,1621.2013 355.71429,1617.2611 352.48974,1612.1819 350.49941,1606.405 347.5,1601.1896 345.52444,1597.7545 342.64429,1594.8268 341.07143,1591.1897 340.29211,1589.3875 333.21429,1581.9039 339.64286,1585.4753 346.07143,1589.0468 351.42857,1592.2611 356.07143,1595.1182 360.71429,1597.9753 363.92857,1603.3325 364.28571,1596.1896 364.64286,1589.0468 365.56975,1572.3835 365.35714,1560.4753 365.03342,1542.3438 361.78571,1514.4039 361.78571,1506.1896 361.78571,1497.9753 361.42857,1484.4039 361.42857,1474.0468 361.42857,1463.6896 362.85714,1451.5468 362.85714,1442.2611 362.85714,1432.9753 363.21429,1419.7611 362.85714,1416.1896 362.5,1412.6182 357.02123,1410.3812 353.21429,1409.4039 346.94927,1407.7957 340.3399,1410.6914 333.92857,1411.5468 324.73273,1412.7736 315.54931,1414.1352 306.42857,1415.8325 299.24333,1417.1696 292.18805,1419.1534 285,1420.4753 277.18424,1421.9126 269.33487,1423.2453 261.42857,1424.0468 254.54983,1424.7441 246.07143,1425.8325 240.71429,1425.1182 235.35714,1424.4039 218.21429,1420.1182 218.57143,1416.9039 218.92857,1413.6896 220.35714,1414.4039 230.71429,1413.6896 241.07143,1412.9753 256.78571,1410.1182 267.85714,1409.0468 278.92857,1407.9753 286.42857,1407.2611 288.57143,1404.0468 290.71429,1400.8325 301.42857,1384.0468 303.92857,1379.0468 306.42857,1374.0468 313.14235,1363.4956 316.42857,1355.1182 317.9156,1351.3274 319.77682,1347.4023 319.64286,1343.3325 319.52273,1339.6826 317.14286,1336.1896 316.07143,1332.9753 315,1329.7611 310.93808,1325.5747 313.57143,1325.4753 Z"
 id="path5365"
 inkscape:connector-curvature="0"
 sodipodi:nodetypes="saaaaaacscaaaaasaaaaasacaaaaacscassssaaaaassscssaacs" />
<path
 style="fill:#000000;stroke:none;stroke-width:1px;stroke-linecap:butt;stroke-linejoin:miter;stroke-opacity:1;fill-opacity:1"
 d="M 190,1419.0468 C 197.85714,1420.4753 202.32447,1421.1743 207.5,1424.4039 211.78731,1427.0792 215.71279,1430.8993 217.85714,1435.4753 220.70799,1441.559 220.11844,1448.761 220.35714,1455.4753 220.67481,1464.4109 219.36517,1473.3305 218.92857,1482.2611 218.40488,1492.9732 217.85714,1508.3325 217.5,1514.4039 217.14286,1520.4753 217.14286,1533.6896 217.14286,1542.9753 217.14286,1552.2611 217.60063,1566.071 217.85714,1577.6182 217.96821,1582.6184 218.50943,1587.6255 218.21429,1592.6182 218.01559,1595.9795 219.87156,1601.2708 216.78571,1602.6182 213.33563,1604.1246 210.0893,1598.9224 207.5,1596.1897 203.75041,1592.2324 199.37009,1587.6947 198.92857,1582.2611 198.57922,1577.9617 202.74802,1574.4621 203.84241,1570.2897 206.35275,1560.719 206.64929,1549.3563 207.5,1540.8325 208.87148,1527.0907 208.05012,1513.2126 207.85714,1499.4039 207.72064,1489.6364 207.46724,1479.8628 206.78571,1470.1182 206.05925,1459.7312 207.97394,1448.4827 203.57143,1439.0468 201.25766,1434.0877 196.04484,1431.0978 192.14286,1427.2611 190.28116,1425.4305 185.71429,1424.0468 186.42857,1421.9039 187.14286,1419.7611 190,1419.0468 190,1419.0468 Z"
 id="path5367"
 inkscape:connector-curvature="0"
 sodipodi:nodetypes="caaaassaaaaaasaaaacc" />
<path
 style="fill:#000000;stroke:none;stroke-width:1px;stroke-linecap:butt;stroke-linejoin:miter;stroke-opacity:1;fill-opacity:1"
 d="M 240.35714,1468.6896 C 242.06481,1465.7817 246.60027,1466.5596 249.88663,1465.9427 258.27863,1464.3676 268.384,1465.5282 275.35714,1460.4753 278.39129,1458.2767 280.21519,1454.4894 281.20581,1450.8757 282.18536,1447.3024 281.89884,1443.3727 281.07143,1439.7611 280.13189,1435.6601 270.35714,1428.3325 275.71429,1428.3325 281.07143,1428.3325 283.48406,1429.4834 287.14286,1430.8325 292.58971,1432.8409 302.85714,1435.1182 302.5,1439.0468 302.14286,1442.9753 300,1450.1182 300,1451.9039 300,1453.6896 305,1450.4753 310,1449.4039 315,1448.3325 318.57143,1449.7611 325.35714,1450.4753 332.14286,1451.1896 337.5,1452.6182 336.42857,1455.8325 335.35714,1459.0468 326.07143,1462.2611 321.78571,1462.2611 317.5,1462.2611 303.92857,1465.1182 300.35714,1465.1182 296.78571,1465.1182 292.5,1467.2611 291.42857,1470.8325 290.35714,1474.4039 288.21429,1480.4753 284.64286,1486.9039 281.07143,1493.3325 275.71429,1497.2611 280,1498.6896 284.28571,1500.1182 300.18758,1495.5573 309.64286,1491.9039 313.71995,1490.3286 316.71077,1485.177 321.07143,1485.4753 325.39473,1485.7711 328.37282,1490.2599 331.42857,1493.3325 334.36674,1496.2869 338.72195,1499.171 338.92857,1503.3325 339.1908,1508.6139 333.29141,1512.2865 330.71429,1516.9039 328.17135,1521.4601 325.97966,1526.2037 323.57143,1530.8325 321.33479,1535.1315 316.24648,1538.8738 316.78572,1543.6897 317.02998,1545.8712 319.35706,1547.3187 321.07143,1548.6896 322.85986,1550.1197 328.21429,1548.6896 327.14286,1551.9039 326.07143,1555.1182 324.64286,1553.3325 315,1555.4753 L 305.35714,1557.6182 C 305.35714,1557.6182 288.92857,1561.1896 280.71429,1561.5468 272.5,1561.9039 267.14286,1560.4753 265.35714,1561.9039 263.57143,1563.3325 265.09978,1568.119 264.64286,1571.1896 264.31977,1573.3608 265.36098,1577.1596 263.21428,1577.6182 260.77067,1578.1402 260.09806,1573.7012 258.73998,1571.6037 257.61634,1569.8683 256.30968,1568.8689 255.71429,1566.1896 253.57143,1556.5467 250.06615,1549.5775 247.5,1541.1896 245.07455,1533.2616 242.14286,1521.9039 240.71429,1517.2611 239.28571,1512.6182 237.14286,1508.6896 240.35714,1510.4753 243.57143,1512.2611 247.5,1514.4039 251.07143,1517.6182 254.64286,1520.8325 255.05196,1526.7666 256.42857,1531.5468 258.14076,1537.4922 260,1546.9039 260,1549.7611 260,1552.6182 263.92857,1554.0468 270.35714,1552.2611 276.78571,1550.4753 288.92857,1548.3325 291.78571,1547.9753 294.64286,1547.6182 300,1547.9753 300.71429,1545.4753 301.42857,1542.9753 303.37608,1534.7713 304.64286,1529.4039 305.79083,1524.5399 307.16772,1519.7177 307.97035,1514.785 308.4904,1511.589 311.21557,1507.4105 308.92857,1505.1182 306.30987,1502.4934 301.49862,1505.4919 297.85714,1506.1896 289.45752,1507.7989 281.72926,1512.5333 273.21428,1513.3325 268.21364,1513.8019 262.03865,1515.1598 258.21429,1511.9039 256.05965,1510.0695 247.85714,1505.1182 256.07143,1503.6896 259.94844,1503.0154 263.18721,1503.7549 265.9584,1501.8709 267.68909,1500.6943 268.31267,1498.3996 269.28571,1496.5468 270.52317,1494.1905 271.56256,1491.7259 272.45809,1489.2196 273.93611,1485.0831 278.4495,1480.24 276.07143,1476.5468 273.4646,1472.4983 276.42857,1471.5468 261.78571,1474.4039 247.14286,1477.2611 250.35678,1476.2843 245.35714,1474.0467 243.12758,1473.0489 239.47939,1470.1843 240.35714,1468.6896 Z"
 id="path5369"
 inkscape:connector-curvature="0"
 sodipodi:nodetypes="sssaasacsscssssscaaaaaaaasccccaaacaccsascccaaaaaacaaaacas" />
</g>
</svg>
