<?xml version="1.0" encoding="UTF-8" standalone="no"?>
<!-- Created with Inkscape (http://www.inkscape.org/) -->

<svg
 xmlns:osb="http://www.openswatchbook.org/uri/2009/osb"
 xmlns:dc="http://purl.org/dc/elements/1.1/"
 xmlns:cc="http://creativecommons.org/ns#"
 xmlns:rdf="http://www.w3.org/1999/02/22-rdf-syntax-ns#"
 xmlns:svg="http://www.w3.org/2000/svg"
 xmlns="http://www.w3.org/2000/svg"
 xmlns:sodipodi="http://sodipodi.sourceforge.net/DTD/sodipodi-0.dtd"
 xmlns:inkscape="http://www.inkscape.org/namespaces/inkscape"
 width="512"
 height="512"
 viewBox="0 0 512.00001 512.00001"
 version="1.1"
 id="svg8"
 inkscape:version="0.92.4 (5da689c313, 2019-01-14)"
 sodipodi:docname="U+98EF.svg">
<defs
 id="defs2">
<linearGradient
 id="linearGradient5248"
 osb:paint="solid">
<stop
 style="stop-color:#000000;stop-opacity:1;"
 offset="0"
 id="stop5246" />
</linearGradient>
</defs>
<sodipodi:namedview
 id="base"
 pagecolor="#ffffff"
 bordercolor="#666666"
 borderopacity="1.0"
 inkscape:pageopacity="0.0"
 inkscape:pageshadow="2"
 inkscape:zoom="1.979899"
 inkscape:cx="295.6556"
 inkscape:cy="233.28456"
 inkscape:document-units="px"
 inkscape:current-layer="layer1"
 showgrid="false"
 units="px"
 fit-margin-top="0"
 fit-margin-left="0"
 fit-margin-right="-2.7755576e-17"
 fit-margin-bottom="0"
 inkscape:pagecheckerboard="false"
 inkscape:window-width="1366"
 inkscape:window-height="705"
 inkscape:window-x="-8"
 inkscape:window-y="-8"
 inkscape:window-maximized="1" />
<metadata
 id="metadata5">
<rdf:RDF>
<cc:Work
 rdf:about="">
<dc:format>image/svg+xml</dc:format>
<dc:type
 rdf:resource="http://purl.org/dc/dcmitype/StillImage" />
<dc:title></dc:title>
</cc:Work>
</rdf:RDF>
</metadata>
<g
 inkscape:label="圖層 1"
 inkscape:groupmode="layer"
 id="layer1"
 transform="translate(0,-1208.1182)">
<path
 style="fill:#000000;fill-opacity:1;stroke:none;stroke-width:1px;stroke-linecap:butt;stroke-linejoin:miter;stroke-opacity:1"
 d="M 140,1256.9039 C 141.91299,1266.1796 150,1271.5468 147.14286,1284.4039 144.28571,1297.2611 127.14286,1325.8325 120,1341.5468 112.85714,1357.2611 94.285714,1395.8325 87.142857,1404.4039 80,1412.9753 45.714286,1447.2611 38.571429,1450.1182 31.428571,1452.9753 26.104709,1452.2769 20,1451.1896 17.060555,1450.6661 15,1446.5468 11.785714,1447.6182 8.5714286,1448.6896 9.2857143,1449.4039 7.5,1455.8325 5.7142857,1462.2611 -1.4285714,1466.5468 5,1468.3325 11.428571,1470.1182 17.142857,1473.3325 20.714286,1471.9039 24.285714,1470.4753 28.571429,1468.6896 39.642857,1460.8325 50.714286,1452.9753 77.857143,1430.4753 78.214286,1427.6182 78.571429,1424.7611 86.785714,1415.4753 89.642857,1414.4039 92.5,1413.3325 93.723332,1412.8461 95.714286,1415.8325 95.714286,1415.8325 99.642858,1419.7611 96.428572,1419.7611 93.214286,1419.7611 80.714286,1422.6182 86.785714,1424.4039 92.857143,1426.1896 97.142857,1425.8325 97.5,1429.4039 97.857143,1432.9753 100.35714,1446.5468 100.35714,1462.9753 100.35714,1479.4039 105.35714,1499.7611 105,1510.8325 104.64286,1521.9039 101.42857,1539.4039 99.285714,1546.1896 97.142857,1552.9753 96.785714,1559.7611 94.285714,1564.0468 91.785714,1568.3325 87.5,1574.4039 84.285714,1575.8325 81.071429,1577.2611 71.428572,1581.5468 68.571429,1584.7611 65.714286,1587.9753 66.93129,1591.5501 67.857143,1594.7611 69.084143,1599.0165 72.5,1603.6896 75.714286,1605.4753 78.928572,1607.2611 85,1606.5468 88.214286,1604.7611 91.428572,1602.9753 101.78571,1595.1182 106.78571,1591.5468 111.78571,1587.9753 125.35714,1576.9039 135.71429,1570.4753 146.07143,1564.0468 154.21509,1557.6084 163.21429,1550.8325 166.7344,1548.182 169.53512,1544.3858 173.57143,1542.6182 177.10336,1541.0715 181.32454,1539.6673 185,1540.8325 189.89551,1542.3845 192.2509,1548.1148 196.07143,1551.5468 198.8382,1554.0322 202.5,1559.4039 204.64286,1558.6896 206.78571,1557.9753 208.92857,1557.2611 209.64286,1549.0468 210.35714,1540.8325 214.28571,1536.1896 210,1534.7611 205.71429,1533.3325 185.35714,1521.1896 182.85714,1518.6896 180.35714,1516.1896 174.28571,1511.5468 172.14286,1512.2611 170,1512.9753 169.64286,1518.3325 170.71429,1521.1896 171.78571,1524.0468 176.78571,1527.9753 177.14286,1529.7611 177.5,1531.5468 177.5,1533.3325 174.28571,1534.4039 171.07143,1535.4753 151.42857,1545.4753 146.78571,1546.9039 142.14286,1548.3325 130,1555.1182 123.92857,1556.1896 117.85714,1557.2611 116.07143,1559.4039 113.92857,1559.4039 111.78571,1559.4039 103.92857,1565.8325 107.5,1553.3325 111.07143,1540.8325 108.58457,1535.2836 110.71429,1526.5467 111.19606,1524.5703 111.21887,1522.0385 112.85714,1520.8325 116.21818,1518.3584 121.31722,1521.1655 125.35714,1520.1182 133.03671,1518.1274 139.22487,1512.1638 146.78571,1509.7611 150.23636,1508.6645 153.99889,1508.8982 157.5,1507.9753 163.87307,1506.2954 169.65201,1502.6827 176.07143,1501.1896 182.60194,1499.6707 191.42857,1497.2611 196.07143,1499.0468 200.71429,1500.8325 202.5,1507.6182 205,1504.0468 207.5,1500.4753 202.01812,1495.3061 198.57143,1492.6182 194.29001,1489.2794 192.5,1488.6896 182.85714,1488.3325 173.21429,1487.9753 164.17825,1491.6777 155,1494.0468 147.27092,1496.0418 139.8504,1499.1129 132.14286,1501.1896 126.95614,1502.5871 118.92857,1504.7611 116.42857,1504.7611 113.92857,1504.7611 107.85714,1505.1182 110.71429,1498.6896 113.57143,1492.2611 112.85714,1486.9039 113.21429,1484.4039 113.57143,1481.9039 113.92857,1476.1896 113.57143,1470.8325 113.21429,1465.4753 113.48155,1453.213 113.57143,1444.4039 113.63096,1438.5697 114.39846,1432.7195 113.92857,1426.9039 113.45093,1420.9922 112.5,1414.0468 110.71429,1409.4039 108.92857,1404.7611 102.7726,1404.5669 101.78571,1400.4753 100.87649,1396.7057 100,1395.1182 105.35714,1389.4039 110.71429,1383.6896 117.16068,1376.9353 121.78571,1369.7611 127.58469,1360.7659 130.85229,1350.3668 135.71429,1340.8325 139.30125,1333.7986 143.70517,1327.1782 146.95458,1319.9821 148.86714,1315.7466 148.93701,1313.7496 151.78572,1306.9039 152.7473,1304.5931 156.07143,1311.1897 158.57143,1310.1182 161.07143,1309.0468 159.64286,1303.6896 162.14286,1301.9039 164.64286,1300.1182 170.34402,1299.4395 174.28572,1300.4753 177.99346,1301.4497 180.26932,1305.3136 183.57143,1307.2611 189.90249,1310.9951 197.18441,1312.9093 203.57143,1316.5468 210.34314,1320.4033 215.54882,1327.0561 222.85714,1329.7611 228.02308,1331.6732 235.35714,1334.4039 239.28571,1331.5468 243.21429,1328.6896 241.07143,1321.5468 237.5,1317.9753 233.92857,1314.4039 226.10713,1307.296 219.28571,1303.6896 209.89948,1298.7272 199.22129,1296.6519 188.92857,1294.0468 183.99426,1292.7979 179.28571,1291.9039 173.92857,1291.1896 168.57143,1290.4753 162.85714,1283.6896 162.5,1281.1896 162.14286,1278.6896 159.47204,1267.9915 156.07143,1262.2611 154.00756,1258.7833 150.97783,1255.9047 147.85715,1253.3325 145.05265,1251.0209 141.78571,1244.4039 138.57143,1247.6182 135.35714,1250.8325 139.36745,1253.8368 140,1256.9039 Z"
 id="path5269"
 inkscape:connector-curvature="0"
 sodipodi:nodetypes="assssasssscssssssssssscaccccaaaacccscccsscssaaaaaascacaascccaacasaaascsaaaaccaassaaca" />
<path
 style="fill:none;stroke:#000000;stroke-width:1px;stroke-linecap:butt;stroke-linejoin:miter;stroke-opacity:1"
 d="M 187.85714,1267.6182 Z"
 id="path5271"
 inkscape:connector-curvature="0" />
<path
 style="fill:#000000;fill-opacity:1;stroke:none;stroke-width:1px;stroke-linecap:butt;stroke-linejoin:miter;stroke-opacity:1"
 d="M 107.85714,1417.6182 C 105,1425.8325 97.142857,1425.4754 107.5,1426.904 117.85715,1428.3325 124.47709,1424.9557 132.85714,1423.3325 145.49967,1420.8836 157.85174,1417.1202 170.35714,1414.0468 175.236,1412.8478 180.12441,1409.263 185,1410.4753 187.78233,1411.1671 191.42857,1413.3325 191.42857,1416.1896 191.42857,1419.0468 190.53583,1426.18 190.35714,1431.1896 190.06009,1439.5176 190.02013,1447.8631 190.35714,1456.1896 190.71458,1465.0208 191.14555,1473.8842 192.5,1482.6182 193.2302,1487.3268 195.71429,1494.0468 195.71429,1496.5468 195.71429,1499.0468 202.09915,1510.5279 205,1504.4039 208.21428,1497.6182 202.62024,1491.1213 202.14285,1484.4039 201.71245,1478.3478 202.10128,1472.2609 202.14286,1466.1896 202.20239,1457.4985 200.89991,1448.6609 202.5,1440.1182 203.69282,1433.7499 205.35714,1424.4039 209.28571,1421.9039 213.21429,1419.4039 218.69512,1417.4374 220,1412.9753 221.43721,1408.0607 218.92857,1400.4753 215.35714,1398.3325 211.78571,1396.1896 206.25147,1390.9129 200.71429,1389.7611 197.77956,1389.1507 192.85714,1387.6182 191.78571,1390.8325 190.71429,1394.0468 191.07143,1396.5468 185,1397.6182 178.92857,1398.6896 167.5,1402.9753 161.42857,1404.4039 155.35714,1405.8325 144.52039,1408.915 136.07143,1411.1896 130.35482,1412.7286 123.51219,1415.0932 118.92857,1415.8325 Z"
 id="path5273"
 inkscape:connector-curvature="0"
 sodipodi:nodetypes="ccaaasaaassaaacacacssasc" />
<path
 style="fill:#000000;stroke:none;stroke-width:1px;stroke-linecap:butt;stroke-linejoin:miter;stroke-opacity:1;fill-opacity:1"
 d="M 128.21429,1365.8325 C 140.35714,1362.9753 141.42857,1361.9039 152.14286,1359.7611 162.85714,1357.6182 167.14286,1356.9039 171.07143,1355.4753 175,1354.0468 177.2683,1354.8864 180.35714,1355.1182 182.89496,1355.3086 185.65171,1355.2768 187.85715,1356.5468 189.90492,1357.726 195,1359.4039 192.5,1361.9039 190,1364.4039 183.04616,1365.6744 178.21429,1367.2611 171.98425,1369.3069 166.07143,1370.8325 159.28571,1372.6182 152.5,1374.4039 150.35714,1375.4753 145,1375.4753 139.64286,1375.4753 128.92857,1371.5468 127.5,1369.7611 126.07143,1367.9753 128.21429,1365.8325 128.21429,1365.8325 Z"
 id="path5283"
 inkscape:connector-curvature="0"
 sodipodi:nodetypes="cccaasasscc" />
<g
 id="layer1-8"
 inkscape:label="圖層 1"
 transform="translate(-713.85714,-355.78568)">
<path
 style="fill:#000000;stroke:none;stroke-width:1px;stroke-linecap:butt;stroke-linejoin:miter;stroke-opacity:1;fill-opacity:1"
 d="M 835.07545,1810.7389 C 837.05456,1808.102 841.4047,1809.1514 844.54296,1808.261 850.68383,1806.5186 856.7518,1804.3996 862.85464,1802.6576 871.26057,1800.2582 884.06784,1793.5663 888.10845,1795.5866 892.14906,1797.6069 895.74842,1799.3732 895.17952,1802.6576 894.57543,1806.1452 888.8612,1805.8683 885.58307,1807.2033 880.30692,1809.352 874.76072,1810.7747 869.42064,1812.7591 862.62179,1815.2857 853.76327,1819.8302 849.21758,1820.8404 844.67189,1821.8505 838.02782,1820.7138 835.07545,1816.7998 833.85883,1815.1869 833.86272,1812.3547 835.07545,1810.7389 Z"
 id="path5330"
 inkscape:connector-curvature="0"
 sodipodi:nodetypes="sassaaacas" />
</g>
<path
 style="fill:#000000;stroke:none;stroke-width:1px;stroke-linecap:butt;stroke-linejoin:miter;stroke-opacity:1;fill-opacity:1"
 d="M 269.20565,1362.0191 C 287.3884,1355.9582 311.02971,1351.5125 331.83511,1345.8567 337.74885,1344.2491 349.51278,1340.8059 349.51278,1340.8059 349.51278,1340.8059 366.53041,1336.2965 374.76659,1333.2298 379.78082,1331.3628 383.85797,1327.6739 389.41381,1326.6638 394.96965,1325.6536 401.03056,1328.6841 405.57625,1330.1993 410.12193,1331.7146 415.67947,1331.7959 416.18285,1335.7552 416.78418,1340.485 408.6067,1345.3516 405.57625,1345.3516 402.54579,1345.3516 391.08857,1347.3106 383.85797,1348.3821 375.26057,1349.6561 366.65263,1350.8815 358.09908,1352.4227 348.96805,1354.068 339.98695,1356.5154 330.82496,1357.9785 323.62795,1359.1278 316.35264,1359.7204 309.10668,1360.5039 300.69579,1361.4134 292.31179,1362.899 283.85287,1363.0293 278.95945,1363.1047 269.20565,1362.0191 269.20565,1362.0191 Z"
 id="path5332"
 inkscape:connector-curvature="0"
 sodipodi:nodetypes="cacaccasaaaaac" />
<path
 style="fill:#000000;stroke:none;stroke-width:1px;stroke-linecap:butt;stroke-linejoin:miter;stroke-opacity:1;fill-opacity:1"
 d="M 274.25641,1376.6663 C 279.49046,1384.9459 282.53806,1394.4243 286.37825,1403.4353 288.51093,1408.4397 293.91496,1414.2521 292.43916,1418.5877 289.04331,1428.564 282.43723,1436.8367 278.29703,1446.3669 274.37107,1455.4039 271.22596,1465.5598 268.1955,1474.1461 265.16504,1482.7323 255.06352,1513.542 253.04321,1522.1283 251.02291,1530.7146 243.87123,1546.8265 236.37569,1557.4836 226.10257,1572.0898 205.06097,1590.3136 198.49498,1595.3644 191.92898,1600.4151 175.84165,1614.4487 164.65486,1624.1537 160.24032,1627.9835 157.35773,1635.4389 151.52288,1635.7705 145.36757,1636.1203 136.87567,1629.2045 136.37059,1625.1639 135.86552,1621.1232 141.59819,1624.7055 143.94674,1623.6487 156.65911,1617.9279 167.05461,1607.8677 177.28177,1598.3948 194.60647,1582.3478 210.74803,1564.733 224.25387,1545.3618 236.05777,1528.4316 244.63547,1509.4288 253.54829,1490.8136 257.65339,1482.2397 261.75155,1473.5997 264.65997,1464.5496 268.40895,1452.884 272.74119,1431.2146 272.74119,1428.6892 272.74119,1426.1638 274.28401,1422.6699 274.25642,1419.5978 274.2149,1414.975 270.21581,1407.9811 271.73103,1405.9608 273.24626,1403.9404 270.30649,1391.4887 269.71073,1384.2425 269.32348,1379.5323 268.70058,1370.1004 268.70058,1370.1004 268.70058,1370.1004 272.72443,1374.2429 274.25641,1376.6663 Z"
 id="path5334"
 inkscape:connector-curvature="0"
 sodipodi:nodetypes="aasaccacaacaaaaasacaca" />
<path
 style="fill:none;stroke:#000000;stroke-width:1px;stroke-linecap:butt;stroke-linejoin:miter;stroke-opacity:1"
 d="M 300.01531,1389.2932 Z"
 id="path5336"
 inkscape:connector-curvature="0" />
<path
 style="fill:#000000;fill-opacity:1;stroke:none;stroke-width:1px;stroke-linecap:butt;stroke-linejoin:miter;stroke-opacity:1"
 d="M 251.52798,1444.3466 C 259.32098,1446.3907 265.16504,1449.9024 273.24626,1454.9532 281.32748,1460.0039 295.9747,1473.641 300.52038,1478.1867 305.06607,1482.7323 331.33004,1504.4506 334.86557,1507.9862 338.4011,1511.5217 344.46202,1489.8034 346.9874,1481.7222 349.51278,1473.641 358.09908,1449.3973 359.10923,1444.8516 360.11938,1440.3059 364.15999,1434.7501 357.594,1434.7501 351.02801,1434.7501 344.65962,1441.9014 337.89603,1444.8516 332.47731,1447.2152 323.75389,1450.9126 321.22851,1450.9126 318.70313,1450.9126 312.28589,1450.5727 309.10668,1447.8821 303.63925,1443.2549 295.9747,1425.1537 300.52038,1428.1841 305.06607,1431.2146 310.57066,1436.3534 316.68282,1437.2755 322.98474,1438.2262 330.31988,1434.7501 335.37065,1433.2349 340.42141,1431.7197 355.06862,1426.6689 355.06862,1424.1435 355.06862,1421.6181 357.53846,1415.6306 361.12954,1414.042 364.26985,1412.6528 366.1803,1413.5369 371.23106,1416.0623 376.28182,1418.5877 390.92904,1422.1232 389.91888,1425.1537 388.90873,1428.1841 382.84781,1432.2247 381.33259,1435.7603 379.81736,1439.2958 375.77675,1455.9633 373.75644,1464.5496 371.73614,1473.1359 364.15999,1496.8745 362.64476,1502.4303 361.12954,1507.9862 352.54324,1523.1385 352.54324,1526.1689 352.54324,1529.1994 359.61431,1534.7552 364.15999,1537.2806 368.70568,1539.806 375.72425,1544.1706 381.33259,1547.8872 386.66736,1551.4225 391.02207,1556.6875 396.98995,1558.9989 404.74015,1562.0006 416.68793,1562.0293 421.73869,1562.0293 426.78945,1562.0293 427.29453,1562.5344 427.29453,1562.5344 427.29453,1562.5344 443.96204,1565.5649 448.50773,1566.0699 453.05342,1566.575 464.43855,1570.0977 472.24632,1572.6359 477.71827,1574.4148 482.93787,1576.9147 488.40876,1578.6968 491.47167,1579.6945 494.6651,1580.2619 497.7199,1581.2842 501.5913,1582.5797 509.25498,1583.733 509.11688,1585.7679 508.83487,1589.9233 501.08005,1587.9862 496.99505,1588.7984 484.64145,1591.2547 472.18786,1593.5302 459.61941,1594.3543 455.87013,1594.6001 451.1561,1595.5692 448.34897,1594.167 445.09264,1592.5403 444.02943,1588.2647 440.42651,1588.2933 438.29699,1588.3102 436.69624,1590.6099 434.87067,1591.8288 431.45245,1594.1112 428.24584,1596.7077 424.76914,1598.9 421.0067,1601.2724 419.21331,1607.4862 413.15239,1605.4659 407.09148,1603.4456 391.43411,1596.3745 387.3935,1592.3339 383.35289,1588.2933 377.78264,1585.1476 373.25137,1581.2222 366.28054,1575.1835 359.38384,1567.7651 352.37959,1561.1102 348.4199,1557.3481 345.88265,1549.8184 340.4214,1549.9075 335.66012,1549.9851 333.73107,1556.6865 330.31989,1560.0091 323.83642,1566.3242 317.69298,1572.6359 310.62191,1578.6968 303.55084,1584.7578 291.42901,1590.3136 291.42901,1590.3136 V 1590.3136 C 291.42901,1590.3136 272.74119,1598.8999 265.16504,1599.405 257.5889,1599.9101 243.44676,1602.4354 251.52798,1598.3948 259.6092,1594.3542 278.29011,1587.9623 289.4087,1579.2019 297.5703,1572.7713 303.62363,1563.9549 309.61175,1555.4634 312.52413,1551.3334 317.1879,1542.3314 317.1879,1542.3314 V 1542.3314 C 317.1879,1542.3314 322.92553,1536.4267 322.74374,1532.7349 322.41743,1526.1082 315.42296,1521.6285 311.12699,1516.5724 308.81449,1513.8508 305.84632,1511.7323 303.55084,1508.9963 299.58823,1504.2732 296.19316,1499.0837 292.94424,1493.844 289.60924,1488.4655 288.22305,1481.7539 283.85287,1477.1765 280.04459,1473.1877 273.89697,1472.1804 269.71073,1468.5902 265.53817,1465.0118 263.41988,1459.3677 259.10413,1455.9633 257.03513,1454.3312 252.03306,1452.4278 252.03306,1452.4278 252.03306,1452.4278 241.28858,1447.6681 242.94169,1443.8415 244.07871,1441.2096 248.75475,1443.6191 251.52798,1444.3466 Z"
 id="path5338"
 inkscape:connector-curvature="0"
 sodipodi:nodetypes="acccsssasacassasccccssaasccaaasaassaasssaaacccssaacaaaaaaaacaa" />
</g>
</svg>
