<?xml version="1.0" standalone="no"?>
<!DOCTYPE svg PUBLIC "-//W3C//DTD SVG 1.1//EN" "http://www.w3.org/Graphics/SVG/1.1/DTD/svg11.dtd" >
<svg xmlns="http://www.w3.org/2000/svg" xmlns:xlink="http://www.w3.org/1999/xlink" version="1.1" viewBox="0 0 256 256">
  <g transform="matrix(1 0 0 -1 0 204)">
   <path fill="currentColor"
d="M187 198q10 -2 15 -7q1 -1 -1 -3q-2 -4 -6 -2q-5 1 -12 -3q-22 -13 -35 -20q8 -7 8 -14q8 1 13 3q0 3 4 3l14 -2q2 -1 1 -2q-2 -3 -6 -2q-10 -1 -26 -5q-1 -4 -2 -10v-10q3 0 11 2q11 2 20 4q1 1 3 1q5 0 10 -5q1 -2 2 -6q1 -3 4 -5q2 -2 1 -4q-1 -3 -5 -2q-2 0 -3 -1
q-2 -2 -4 -3l-3 -3q20 1 34 2q2 2 5 2q2 -1 6 -4q1 -1 3 -2q1 -1 0 -3q-3 -2 -4 -1q-7 1 -14 0q-13 -4 -28 -5q-3 -1 0 1q2 0 4 1q11 2 19 6q3 1 -1 1q-5 0 -19 -2q-5 -1 -9 -1q-11 -10 -27 -17h2q21 2 25 1q2 -1 2 -2t-1 -2q-1 -2 -4 -1q-7 0 -13 -1q-4 0 -18 -3
q-2 -6 0 -12q11 -25 35 -42q10 -8 21 -7q23 0 43 -8q0 -1 1 -1t0 0q-8 -1 -14 1q-13 2 -31 2q-10 -1 -15 4q-20 13 -41 42q-1 -37 2 -59v-3q1 -8 4 -17v-2t-2 -1q-3 0 -4 3q-3 7 -9 15q-4 4 -8 11v2q-1 1 2 0q2 -1 7 -4q3 -2 4 -3q2 0 2 3v2q-2 33 -2 61q-4 8 -8 11
q-1 0 -2 -1q-2 -1 -2 0q-1 -4 -8 -16q0 -15 -1 -22v-15q-1 -10 5 -17q2 -4 1 -4q-3 -1 -3 0q-6 5 -11 12q-1 1 1 3q1 2 3 4q2 22 1 33q-27 -37 -56 -47q-4 0 0 2q34 14 54 53q2 4 2 11q-13 -4 -17 -2q-2 0 0 1h2q10 3 15 6v9v5q-5 -1 -21 -5q-11 -5 -23 0q-1 0 1 1
q14 0 43 9q-1 2 0 10t1 12q-11 -2 -20 0q-2 0 0 1h3q12 2 17 4q0 10 -1 13v7q-10 -1 -13 2q-3 0 -1 1q10 2 12 2q-1 3 0 3l6 -1h2q8 1 21 4q0 5 -3 12v2q-15 -7 -31 -12q-3 -1 -1 1q28 13 65 39q2 1 1 2q0 1 -3 1q-24 -3 -48 -16q-7 -4 -10 -11q-2 -4 -6 -2q-6 -1 -5 4
q0 4 3 10q4 9 4 16q1 2 2 0q3 -6 3 -12q0 -3 4 -1q21 11 52 16q5 2 1 0q4 2 9 1zM150 143q-13 -3 -20 -5q-2 -6 -1 -19h5q9 2 15 4q1 10 1 20zM184 125q-7 0 -24 -5q-3 -1 -6 -1q-2 -9 -1 -23q11 2 26 5q7 6 11 16q2 8 -6 8zM149 118q-5 -2 -10 -3q-7 -1 -10 -2
q-2 -11 -1 -22l20 4v13q1 7 1 10zM175 96q-14 -4 -23 -5v-10q13 6 23 15zM147 90q-2 -1 -7 -2q-9 -2 -12 -2q-1 -4 -1 -10q1 -3 1 -4h2q10 3 17 7v11zM60 196l10 -2q12 -3 17 -9q1 -2 0 -3q0 -4 -7 -3h-13q-4 -1 -5 0q0 1 2 3q3 3 2 6q-5 2 -7 7q-1 1 1 1zM86 156q7 0 13 -3
q2 -1 1 -3q0 -3 -3 -2q-11 -1 -25 -7q-4 -3 -9 -5q-3 -1 -1 1l12 9l1 1h-4q-23 -4 -38 -10q-14 -5 -28 -4q-2 0 0 2q9 1 25 6l8 2q32 8 44 10q3 3 4 3zM69 118q1 2 3 2q7 -2 11 -1q1 -1 0 -1q4 0 2 -3q-1 -3 -5 -4q-7 -1 -11 -5q-7 -5 -11 -8q-2 -1 -1 1q2 3 2 4t-3 1
q-8 -1 -14 2q-2 2 0 3q20 -2 27 9zM67 90q2 2 4 2q6 -1 11 -2q1 0 1 -1v-2q-1 -1 -5 -2q-9 -4 -14 -9q-12 -12 -18 -22q-5 -7 2 -15q1 0 4 1q12 6 21 9q4 5 5 4q9 -3 14 -7l-1 -2q-4 -2 -7 -6q-1 -1 -2 -3q-2 -3 -6 -7q5 1 14 0q1 0 1 -1t-1 -2q-2 -4 -11 -3q-13 0 -23 -4
q1 -5 7 -9q2 -1 2 -2t-1 -2q-2 -4 -4 -2q-9 3 -14 14q-1 1 3 6h-1q-1 10 -6 20q-3 3 0 9q0 1 1 2t3 5t10 14q0 1 -1 2h-2q-9 -4 -11 1q-1 2 1 1q6 -3 23 10q-2 2 1 3zM70 44q-3 -1 -8 -3q-6 -3 -12 -4q-1 -2 1 -6q0 -2 1 -3q1 -3 3 -7q3 2 11 5q0 1 1 2t2 3q4 3 5 10
q0 2 -1 3h-3z" />
  </g>

</svg>
