
<svg version="1.1" baseProfile="full" xmlns="http://www.w3.org/2000/svg" width="512" height="512" viewBox="0,0,512,512">

  <rect width="512" height="512" stroke="red" fill="white"></rect>

  <text x="2" y="12" font-size="12" text-anchor="start" fill="red">0</text>
  <path d="M256  64 H0 H512" stroke="lightgray" fill="white"></path>
  <text x="2" y="64" font-size="12" text-anchor="start" fill="red">64</text>
  <path d="M256 128 H0 H512" stroke="lightgray" fill="white"></path>
  <text x="2" y="128" font-size="12" text-anchor="start" fill="red">128</text>
  <path d="M256 192 H0 H512" stroke="lightgray" fill="white"></path>
  <text x="2" y="192" font-size="12" text-anchor="start" fill="red">192</text>
  <path d="M256 256 H0 H512" stroke="lightgray" fill="white"></path>
  <text x="2" y="256" font-size="12" text-anchor="start" fill="red">256</text>
  <path d="M256 320 H0 H512" stroke="lightgray" fill="white"></path>
  <text x="2" y="320" font-size="12" text-anchor="start" fill="red">320</text>
  <path d="M256 384 H0 H512" stroke="lightgray" fill="white"></path>
  <text x="2" y="384" font-size="12" text-anchor="start" fill="red">384</text>
  <path d="M256 448 H0 H512" stroke="lightgray" fill="white"></path>
  <text x="2" y="448" font-size="12" text-anchor="start" fill="red">448</text>
  <text x="2" y="512" font-size="12" text-anchor="start" fill="red">512</text>

  <path d="M64  0 V512" stroke="lightgray" fill="white"></path>
  <text x="64" y="12" font-size="12" text-anchor="start" fill="red">64</text>
  <path d="M128  0 V512" stroke="lightgray" fill="white"></path>
  <text x="128" y="12" font-size="12" text-anchor="start" fill="red">128</text>
  <path d="M195  0 V512" stroke="lightgray" fill="white"></path>
  <text x="192" y="12" font-size="12" text-anchor="start" fill="red">192</text>
  <path d="M256  0 V512" stroke="lightgray" fill="white"></path>
  <text x="256" y="12" font-size="12" text-anchor="start" fill="red">256</text>
  <path d="M320  0 V512" stroke="lightgray" fill="white"></path>
  <text x="320" y="12" font-size="12" text-anchor="start" fill="red">320</text>
  <path d="M384  0 V512" stroke="lightgray" fill="white"></path>
  <text x="384" y="12" font-size="12" text-anchor="start" fill="red">384</text>
  <path d="M448  0 V512" stroke="lightgray" fill="white"></path>
  <text x="448" y="12" font-size="12" text-anchor="start" fill="red">448</text>
  <text x="512" y="12" font-size="12" text-anchor="start" fill="red">512</text>


  <path d="M256 256 V270 V242 M256 256 H270 H242" stroke="black" fill="white"></path>
  <text x="256" y="256" font-size="16" text-anchor="middle" fill="red">(256, 256)</text>

<ellipse fill="white" stroke="black" stroke-width="5" cx="256" cy="192" rx="100" ry="80"/>
  <circle cx="110" cy="140" r="10" fill="black" transform="translate(100,50)"></circle>
  <circle cx="202" cy="140" r="10" fill="black" transform="translate(100,50)"></circle>
<ellipse fill="yellow" stroke="black" stroke-width="5" cx="256" cy="210" rx="10" ry="8"/>
<path d="M220 220 H130" stroke="black"/>
<path d="M128 192 L220 210" stroke="black"/>
<path d="M292 220 H382" stroke="black"/>
<path d="M384 192 L292 210" stroke="black"/>
<path d="M160 180 C128 80,178 128,192,128" stroke="black" stroke-width="5" fill="none"/>
<path d="M352 180 C384 80,334 128,320,128" stroke="black" stroke-width="5" fill="none"/>












  <defs>
    <path id="a1" d="M0 50 C150 150 100 -50 300 50" stroke="#000" fill="none" transform="translate(175,215)"></path>
  </defs>


</svg>
